<svg width="33" height="33" viewBox="0 0 33 33" fill="none" xmlns="http://www.w3.org/2000/svg">
<path d="M29.0755 6.51685V11.5299C29.0755 11.9287 28.9171 12.3113 28.635 12.5933C28.353 12.8753 27.9705 13.0338 27.5716 13.0338C27.1728 13.0338 26.7902 12.8753 26.5082 12.5933C26.2262 12.3113 26.0677 11.9287 26.0677 11.5299V8.02075H22.5586C22.1597 8.02075 21.7772 7.8623 21.4952 7.58027C21.2131 7.29823 21.0547 6.91571 21.0547 6.51685C21.0547 6.11798 21.2131 5.73546 21.4952 5.45342C21.7772 5.17139 22.1597 5.01294 22.5586 5.01294H27.5716C27.9705 5.01294 28.353 5.17139 28.635 5.45342C28.9171 5.73546 29.0755 6.11798 29.0755 6.51685ZM9.52474 24.0624H6.01563V20.5533C6.01563 20.1544 5.85718 19.7719 5.57514 19.4899C5.2931 19.2078 4.91058 19.0494 4.51172 19.0494C4.11286 19.0494 3.73033 19.2078 3.4483 19.4899C3.16626 19.7719 3.00781 20.1544 3.00781 20.5533V25.5663C3.00781 25.9652 3.16626 26.3477 3.4483 26.6297C3.73033 26.9118 4.11286 27.0702 4.51172 27.0702H9.52474C9.9236 27.0702 10.3061 26.9118 10.5882 26.6297C10.8702 26.3477 11.0286 25.9652 11.0286 25.5663C11.0286 25.1675 10.8702 24.7849 10.5882 24.5029C10.3061 24.2209 9.9236 24.0624 9.52474 24.0624ZM27.5716 19.0494C27.1728 19.0494 26.7902 19.2078 26.5082 19.4899C26.2262 19.7719 26.0677 20.1544 26.0677 20.5533V24.0624H22.5586C22.1597 24.0624 21.7772 24.2209 21.4952 24.5029C21.2131 24.7849 21.0547 25.1675 21.0547 25.5663C21.0547 25.9652 21.2131 26.3477 21.4952 26.6297C21.7772 26.9118 22.1597 27.0702 22.5586 27.0702H27.5716C27.9705 27.0702 28.353 26.9118 28.635 26.6297C28.9171 26.3477 29.0755 25.9652 29.0755 25.5663V20.5533C29.0755 20.1544 28.9171 19.7719 28.635 19.4899C28.353 19.2078 27.9705 19.0494 27.5716 19.0494ZM4.51172 13.0338C4.91058 13.0338 5.2931 12.8753 5.57514 12.5933C5.85718 12.3113 6.01563 11.9287 6.01563 11.5299V8.02075H9.52474C9.9236 8.02075 10.3061 7.8623 10.5882 7.58027C10.8702 7.29823 11.0286 6.91571 11.0286 6.51685C11.0286 6.11798 10.8702 5.73546 10.5882 5.45342C10.3061 5.17139 9.9236 5.01294 9.52474 5.01294H4.51172C4.11286 5.01294 3.73033 5.17139 3.4483 5.45342C3.16626 5.73546 3.00781 6.11798 3.00781 6.51685V11.5299C3.00781 11.9287 3.16626 12.3113 3.4483 12.5933C3.73033 12.8753 4.11286 13.0338 4.51172 13.0338ZM11.0286 10.026C10.6298 10.026 10.2473 10.1844 9.96522 10.4664C9.68319 10.7485 9.52474 11.131 9.52474 11.5299V20.5533C9.52474 20.9522 9.68319 21.3347 9.96522 21.6167C10.2473 21.8988 10.6298 22.0572 11.0286 22.0572C11.4275 22.0572 11.81 21.8988 12.0921 21.6167C12.3741 21.3347 12.5326 20.9522 12.5326 20.5533V11.5299C12.5326 11.131 12.3741 10.7485 12.0921 10.4664C11.81 10.1844 11.4275 10.026 11.0286 10.026ZM22.5586 20.5533V11.5299C22.5586 11.131 22.4001 10.7485 22.1181 10.4664C21.8361 10.1844 21.4536 10.026 21.0547 10.026C20.6558 10.026 20.2733 10.1844 19.9913 10.4664C19.7092 10.7485 19.5508 11.131 19.5508 11.5299V20.5533C19.5508 20.9522 19.7092 21.3347 19.9913 21.6167C20.2733 21.8988 20.6558 22.0572 21.0547 22.0572C21.4536 22.0572 21.8361 21.8988 22.1181 21.6167C22.4001 21.3347 22.5586 20.9522 22.5586 20.5533ZM16.0417 10.026C15.6428 10.026 15.2603 10.1844 14.9782 10.4664C14.6962 10.7485 14.5378 11.131 14.5378 11.5299V20.5533C14.5378 20.9522 14.6962 21.3347 14.9782 21.6167C15.2603 21.8988 15.6428 22.0572 16.0417 22.0572C16.4405 22.0572 16.8231 21.8988 17.1051 21.6167C17.3871 21.3347 17.5456 20.9522 17.5456 20.5533V11.5299C17.5456 11.131 17.3871 10.7485 17.1051 10.4664C16.8231 10.1844 16.4405 10.026 16.0417 10.026Z" fill="#DDF093"/>
</svg>
