<svg clip-rule="evenodd" fill-rule="evenodd" height="512" image-rendering="optimizeQuality" shape-rendering="geometricPrecision" text-rendering="geometricPrecision" viewBox="0 0 512 512" width="512" xmlns="http://www.w3.org/2000/svg"><g id="Layer_x0020_1"><path d="m173.673 479.952c-33.6001 0-75.4998-11.5004-112.7-55.6998-21.7997-25.9005-37.0005-57.7998-43.9997-92.1995-7.80002-38.2005-11.8004-95.2987 13.3004-149.899.900003-1.99961 2.89962-3.4004 5.10002-3.49962 2.2004-.100394 4.30041 1.0004 5.50041 2.89962.199607.300001 17.5004 28.3005 36.9001 36.6001 3.49962-3.1004 10.5-10.6996 16.0004-24.9001 7.00042-18.4005 12.6-51.7006-.600002-106.1-.499608-2.10001.199607-4.30041 1.80001-5.80041 1.6004-1.5 3.90001-1.99961 5.89962-1.3004 1.2.400395 23.1001 7.69963 42.1005 31.3005-.799609-9.19963-1.39961-19.9997-1.3004-31.2001.199607-41.8997 9.10042-68.4994 26.5997-79.2002 2.10001-1.3004 4.69962-1.2 6.70041.300001 1.99961 1.39961 2.89962 3.90001 2.29961 6.30002-.100394.499608-11.2004 47.4001 22.0997 71.2998 3.00001 1.69961 23.2005 13.3004 44.5005 37.3005 19.5993 22.2001 43.5993 59.2998 49.8994 112.6 7.00042-5.59962 17.5997-17.5997 23.8997-41.8997.600002-2.5004 2.8004-4.30041 5.29962-4.50001 2.59961-.199607 4.99962 1.3004 6.00002 3.60001.400395 1.0004 10.5 24.4997 16.9997 58.5002 6.10041 31.4989 10.0996 78.1987-5.50041 121.598-.546852 1.54252-18.7938 16.4233-37.3667 30.8469.367324 3.32363-105.933 81.1538-109.133 81.6534-6.30002.898822-13.0996 1.39961-20.2997 1.39961z" fill="#ffa426"/><path d="m173.673 479.952c-29.895 0-66.3593-9.10515-100.239-42.2434-.105118-.464175-.193701-.793703-.261024-.956696-.300001-.700396-6.49963-16.8001-1.69961-40.2001 4.30041-21.1005 18.7997-52.6006 63.4006-82.9999 17.4001-11.8004 28.9997-30.3001 31.6997-50.5998 1.3004-9.69924.600002-19.5993-2.10001-29.1993-.700396-2.59961.400395-5.40002 2.70001-6.79963 2.29961-1.39961 5.29962-1.0004 7.20002.799609 2.70001 2.59961 66.6002 64.9986 87.9983 134.299.588191 1.8815 5.53702 34.2367 8.85948 60.7632-31.4788 23.817-75.2235 55.4199-77.2585 55.7376-6.30002.898822-13.0996 1.39961-20.2997 1.39961z" fill="#fdda45"/><path d="m473.072 511.952h-258c-15.4004 0-27.9001-12.4996-27.9001-27.9001v-98.2999c0-15.4004 12.4996-27.9001 27.9001-27.9001h258c15.4004 0 27.9001 12.4996 27.9001 27.9001v98.2999c0 15.4004-12.5008 27.9001-27.9001 27.9001z" fill="#d43e46"/><g fill="#fff"><path d="m245.773 487.152c-3.30001 0-6.00002-2.70001-6.00002-6.00002v-84.4999c0-3.30001 2.70001-6.00002 6.00002-6.00002s6.00002 2.70001 6.00002 6.00002v84.4999c0 3.30001-2.70001 6.00002-6.00002 6.00002z"/><path d="m287.472 483.051c-1.39961 0-2.8004-.499608-3.90001-1.39961l-41.6989-35.4001c-1.5-1.3004-2.29961-3.19962-2.10001-5.20041.199607-1.99961 1.39961-3.70041 3.1004-4.69962l41.6989-22.6997c2.89962-1.6004 6.60002-.499608 8.10002 2.40001 1.6004 2.89962.499608 6.60002-2.40001 8.10002l-34.0005 18.4997 34.9997 29.7001c2.5004 2.10001 2.8004 5.89962.700396 8.50042-1.09961 1.5-2.8004 2.19922-4.50001 2.19922z"/><path d="m343.872 483.051h-13.4008c-15.4997 0-28.0997-12.6-28.0997-28.0997s12.6-28.0997 28.0997-28.0997h13.4008c3.30001 0 6.00002 2.70001 6.00002 6.00002s-2.70001 6.00002-6.00002 6.00002h-13.4008c-8.89963 0-16.0997 7.20002-16.0997 16.0997 0 8.89963 7.20002 16.0997 16.0997 16.0997h13.4008c3.30001 0 6.00002 2.70001 6.00002 6.00002s-2.70001 6.00002-6.00002 6.00002z"/><path d="m386.871 485.851c-16.2 0-29.5005-13.2-29.5005-29.5005 0-16.2 13.2-29.5005 29.5005-29.5005 16.2 0 29.5005 13.2 29.5005 29.5005-.100394 16.3004-13.3004 29.5005-29.5005 29.5005zm0-46.8994c-9.60003 0-17.5004 7.80002-17.5004 17.5004 0 9.70042 7.80002 17.5004 17.5004 17.5004 9.60003 0 17.5004-7.80002 17.5004-17.5004 0-9.70042-7.90042-17.5004-17.5004-17.5004z"/><path d="m410.271 487.152c-3.30001 0-6.00002-2.70001-6.00002-6.00002v-44.8997c0-3.30001 2.70001-6.00002 6.00002-6.00002s6.00002 2.70001 6.00002 6.00002v44.8997c0 3.30001-2.59961 6.00002-6.00002 6.00002z"/><path d="m442.371 485.151c-3.30001 0-6.00002-2.70001-6.00002-6.00002v-82.5003c0-3.30001 2.70001-6.00002 6.00002-6.00002s6.00002 2.70001 6.00002 6.00002v82.5003c0 3.30001-2.59961 6.00002-6.00002 6.00002z"/></g></g></svg>