<svg id="Layer_1" enable-background="new 0 0 74 74" height="512" viewBox="0 0 74 74" width="512" xmlns="http://www.w3.org/2000/svg"><g><g><path d="m68.48 7.37-4.82 2.22-1.28.58-4.48 2.06c-10.05.01-20.11-.38-30.13-1.21-4.04-.32-8.07-.71-12.09-1.17l5.71-2.62.9-.41 3.98-1.82c14.01 1.61 28.11 2.4 42.21 2.37z" fill="#fb3"/><path d="m68.89 64.14-10.57 4.86c.17-15.64.15-31.28-.17-46.92-.07-3.27-.15-6.56-.24-9.85l10.58-4.86c.54 18.92.61 37.85.4 56.77z" fill="#f4aa27"/><g fill="#ffcf47"><path d="m67.08 28.87-6.94 3.19c-.05-3.37-.11-6.71-.17-10.02l-.01-.54c-.01-.74-.04-1.47-.05-2.22l6.96-3.2c.1 4.2.16 8.44.21 12.79z"/><path d="m67.12 57.96c0 1.66-.02 3.32-.04 5l-6.91 3.18c.01-1.68.02-3.35.04-5l6.67-3.07z"/><path d="m67.12 32.49c0 1.66-.01.18-.02 1.86l-6.91 3.18c.01-1.68.01-.21.02-1.86l6.67-3.07z"/><path d="m67.12 36.25c0 1.66-.01.18-.02 1.86l-6.91 3.18c.01-1.68.01-.21.02-1.86l6.67-3.07z"/><path d="m67.12 40c0 1.66-.01.18-.02 1.86l-6.91 3.18c.01-1.68.01-.21.02-1.86l6.67-3.07z"/><path d="m58.32 69-41.73-2.9c-.43-5.38-.74-10.8-.96-16.21-.3-7.33-.43-14.69-.38-22.03.04-6.01.18-12.01.44-18 4.02.46 8.05.85 12.09 1.17 10.02.83 20.07 1.22 30.13 1.21.1 3.29.17 6.57.24 9.85.31 15.63.34 31.27.17 46.91z"/></g><path d="m58.41 53.79c0 5.08-.04 10.15-.1 15.21l-41.73-2.9c-.17-2.14-.32-4.28-.45-6.43 7.62-3.77 15.95-6.12 24.42-6.82 5.96-.49 11.98-.16 17.86.94z" fill="#fb3"/><path d="m58.15 22.08c-8.28 10.41-19.16 18.77-31.43 23.91-3.62 1.52-7.34 2.75-11.09 3.91-.3-7.33-.43-14.69-.38-22.03 2.42-4.35 5.1-8.52 8.29-12.33 1.31-1.57 2.73-3.09 4.24-4.5 10.02.83 20.07 1.22 30.13 1.21.09 3.27.16 6.55.24 9.83z" fill="#ffe35a"/><path d="m57.11 67.7-39.39-2.74c-.06-.72-.11-1.44-.16-2.17l23.38 1.63c7.52.52 13.93-5.42 13.94-12.96.03-11.04-.07-21.5-.27-31.67l-.01-.54c-.05-1.94-.09-3.88-.13-5.82.75.01 1.5.01 2.25.01.07 2.71.13 5.42.19 8.12l.01.54c.3 14.35.36 29.28.19 45.6z" opacity=".05"/><g fill="#f25a5a"><path d="m23.56 36.25c-.43.27-.84.42-1.23.46s-.76-.02-1.1-.2c-.34-.17-.64-.46-.91-.84-.12-.19-.25-.39-.38-.6-.13-.22-.26-.42-.38-.62-.23-.41-.34-.8-.35-1.18 0-.38.1-.74.31-1.07.21-.34.53-.63.95-.9.31-.19.62-.33.92-.41s.59-.1.86-.07.52.12.75.25.42.32.57.56c.03.04.04.08.03.13s-.04.08-.08.11l-.79.49c-.06.03-.11.05-.15.05-.05-.01-.1-.04-.16-.09-.24-.23-.47-.35-.69-.35s-.45.08-.69.22c-.28.17-.45.39-.52.65s0 .57.21.94c.22.39.46.77.72 1.16.24.35.49.55.75.6s.53-.01.81-.18c.24-.15.41-.32.51-.53.1-.2.1-.46-.01-.77-.02-.07-.02-.14-.01-.18.02-.05.05-.09.11-.12l.79-.49c.04-.02.08-.03.13-.02s.08.04.1.08c.15.25.23.5.25.76s-.02.52-.11.78-.24.51-.44.74-.46.45-.77.64z"/><path d="m26.53 34.3c-.05.03-.1.04-.15.02-.05-.01-.09-.04-.12-.09l-2.78-4.47c-.03-.05-.04-.1-.03-.15s.04-.09.09-.12l3.12-1.94c.05-.03.1-.04.15-.03s.09.04.12.09l.34.55c.03.05.04.1.03.15s-.04.09-.09.12l-2.23 1.39.67 1.07 2.08-1.29c.05-.03.1-.04.15-.03s.09.04.13.09l.32.51c.03.05.04.1.03.15s-.04.1-.09.13l-2.08 1.29.68 1.1 2.28-1.42c.05-.03.1-.04.15-.03s.09.04.13.09l.34.55c.03.05.04.1.03.15s-.04.09-.09.13z"/><path d="m30.88 31.61c-.05.03-.1.04-.15.02-.05-.01-.09-.04-.12-.09l-2.78-4.47c-.03-.05-.04-.1-.03-.15s.04-.09.09-.12l1.83-1.14c.57-.36 1.11-.51 1.6-.45s.9.34 1.2.83c.21.34.3.66.28.99s-.13.63-.33.9l2.05 1.11c.03.02.05.04.07.06.02.04.03.08.02.13s-.04.08-.07.11l-.77.48c-.08.05-.16.07-.23.05s-.12-.04-.16-.06l-1.82-1.05-.83.52.99 1.59c.03.05.04.1.03.15s-.04.1-.09.13zm-.71-3.22.89-.55c.25-.15.4-.33.45-.52s.01-.39-.12-.59c-.13-.21-.29-.33-.48-.38s-.42.01-.67.17l-.89.55z"/><path d="m35.57 28.69c-.05.03-.1.04-.15.02-.05-.01-.09-.04-.12-.09l-2.78-4.47c-.03-.05-.04-.1-.03-.15s.04-.09.09-.12l3.12-1.94c.05-.03.1-.04.15-.03s.09.04.12.09l.34.55c.03.05.04.1.03.15s-.04.1-.09.13l-2.23 1.39.67 1.07 2.08-1.29c.05-.03.1-.04.15-.03s.09.04.13.09l.32.51c.03.05.04.1.03.15s-.04.1-.09.13l-2.08 1.29.68 1.1 2.28-1.42c.05-.03.1-.04.15-.03s.09.04.12.09l.34.55c.03.05.04.1.03.15s-.04.1-.09.13z"/><path d="m39.47 26.27c-.04.03-.09.03-.13.02-.05-.01-.08-.04-.1-.07-.01-.02-.02-.05-.03-.07l-1.11-5.44c-.02-.06-.02-.12 0-.18s.06-.12.14-.16l.88-.55c.07-.05.14-.06.21-.05.06.01.12.04.17.08l4.38 3.41c.02.01.04.03.05.05.02.04.03.08.02.13s-.04.08-.08.11l-.72.45c-.06.04-.12.05-.17.04s-.09-.03-.12-.05l-.77-.59-1.94 1.21.19.95c0 .04 0 .08-.01.13s-.05.1-.12.14zm.36-2.72 1.42-.88-1.94-1.53z"/><path d="m44.76 22.98c-.05.03-.1.04-.15.02-.05-.01-.09-.04-.12-.09l-2.78-4.47c-.03-.05-.04-.1-.03-.15s.04-.09.09-.12l.78-.48c.05-.03.09-.04.15-.02.05.01.09.04.12.09l2.31 3.72 2.13-1.33c.05-.03.1-.04.15-.03s.09.04.12.09l.36.59c.03.05.04.1.03.15s-.04.09-.09.13z"/></g><path d="m49.5 47.7c.49 3.32-2.09 6.48-5.2 7.74-3.1 1.27-6.59 1.08-9.92.79-3.35-.29-6.78-.66-9.99.3-1.87.56-3.59 1.55-5.48 2.08-.93.27-1.87.4-2.82.41-.18-3.04-.34-6.09-.46-9.14-.3-7.33-.43-14.69-.38-22.03.04-6.01.18-12.01.44-18 4.02.46 8.05.85 12.09 1.17 7.95.66 15.91 1.03 23.87 1.16-.26 1.74-.68 3.44-1.31 5.11-.97 2.52-2.45 5.16-1.69 7.77.68 2.35 3.07 4.02 3.36 6.44.46 3.72-4.14 6.43-4.2 10.18-.03 2.09 1.39 3.95 1.69 6.02z" fill="#fff" opacity=".1"/><path d="m47.24 17.96c-.62 3.02-3.57 4.98-6.45 6.06s-6.04 1.68-8.51 3.53c-1.45 1.08-2.64 2.84-2.26 4.6.24 1.16 1.11 2.07 1.68 3.1 1.01 1.83 1.1 4.13.21 6.01-.88 1.89-2.7 3.31-4.75 3.7-3.89.74-7.97-2.02-11.76-2.01-.13-5.04-.18-10.08-.15-15.11.04-6.01.18-12.01.44-18 4.02.46 8.05.85 12.09 1.17 5.98.5 11.97.83 17.95 1.02 1.17 1.84 1.92 3.85 1.51 5.93z" fill="#fff" opacity=".1"/><path d="m66.96 45.31c-1.07 2.48-.06 5.33-.23 8.02-.16 2.56-1.39 4.92-2.9 6.97-.71.95-1.52 1.9-2.63 2.31-.9.34-1.86.29-2.82.24.1-13.6.05-27.19-.23-40.79-.07-3.27-.15-6.56-.24-9.85l7.84-3.6c-.04.74.09 1.51.27 2.22.39 1.48.97 3.01.6 4.48-.33 1.28-1.36 2.32-1.52 3.64-.19 1.57.86 2.97 1.42 4.44.78 2.11.51 4.43.23 6.66-.29 2.26-.57 4.53-.86 6.79-.16 1.3-.29 2.75.47 3.81.45.63 1.18 1.08 1.41 1.81.28.98-.41 1.93-.81 2.85z" fill="#fff" opacity=".1"/><path d="m64.22 43.27c-.35 3.48-.74 7.07-2.43 10.22-.86 1.59-2.03 3.02-3.38 4.26.06-11.89-.01-23.78-.26-35.68-.07-3.27-.15-6.56-.24-9.85l3.99-1.84c-.23.3-.43.62-.61.96-.77 1.4-1.01 3.15-.24 4.5.47.84 1.29 1.44 1.85 2.23 1.47 2.08.89 5.01-.3 7.34-.69 1.36-1.62 2.79-1.33 4.25.21 1.05 1 1.85 1.58 2.73 2.08 3.08 1.76 7.14 1.37 10.88z" fill="#fff" opacity=".1"/><path d="m68.28 63.75-9.35 4.3c0-.45.01-.89.01-1.33l.03-.02c4.78-2.2 7.86-6.97 7.89-12.24.1-16.3-.04-31.27-.43-45.49l1.45-.67c.5 17.1.62 35.25.4 55.45z" opacity=".05"/><g><path d="m63.66 9.59-1.28.58c-2.12-.04-4.24-.05-6.32-.06-11.5-.07-23.37-.17-34.67-2.87l.9-.41c11 2.52 22.55 2.6 33.78 2.68 2.5.01 5.05.03 7.59.08z" fill="#f4aa27"/></g><path d="m65.72 7.98-7.95 3.64h-.32c-9.98 0-19.95-.4-29.63-1.21-3.27-.26-6.6-.56-9.88-.93 1.02-.47 2.15-.65 3.27-.54 2.13.21 4.26.4 6.39.56 7.13.59 20.03.97 26.31 1.12 2.38.06 4.74-.43 6.91-1.42l1.46-.67c.85-.39 1.77-.58 2.7-.57.24.02.49.02.74.02z" opacity=".05"/><path d="m63.54 7.35c-1.16.75-2.45 1.28-3.81 1.46-1.79.23-3.65-.13-5.39.33-1.33.37-2.51 1.21-3.86 1.42-1.64.27-3.27-.39-4.92-.68-3.81-.69-7.75.6-11.6.1-2.01-.26-3.93-1-5.95-1.14-1.98-.15-3.97.29-5.96.26-1.08-.02-2.23-.22-3.21-.67l2.57-1.18.9-.41 3.96-1.84c12.38 1.42 24.82 2.2 37.27 2.35z" fill="#fff" opacity=".1"/><path d="m59.31 7.28c-.19.07-.39.13-.6.18-2.35.62-4.8.58-7.22.54-3.68-.06-7.35-.13-11.03-.21-2.14-.04-4.31-.09-6.39-.62-1.96-.5-3.89-1.44-5.89-1.14-.9.13-1.74.51-2.63.72-1.05.23-2.09.22-3.14.02l3.86-1.77c10.98 1.27 22 2.02 33.04 2.28z" fill="#fff" opacity=".1"/></g><g><path d="m33.01 62.3c.83.41 1.69.97 2 1.8.85 2.22-2.11 3.65-4.07 4.14-4 1-8.49 1.14-12.38-.31-1.58-.59-3.54-1.62-3.45-3.35s1.95-2.58 3.57-3.11c2.1-.69 4.35-1.01 6.59-.95 2.66.07 5.4.63 7.74 1.78z" fill="#4bbadd"/><path d="m30.73 68.1c-3.85.97-8.18 1.1-11.92-.29-1.12-.42-2.43-1.07-3.02-2.04.54.34 1.15.6 1.7.81 3.75 1.39 8.07 1.26 11.93.29 1.88-.47 4.73-1.84 3.91-3.99-.03-.07-.06-.14-.1-.21.62.36 1.18.83 1.42 1.45.82 2.15-2.03 3.51-3.92 3.98z" opacity=".05"/><path d="m5.09 44.74c-.55 5.84 1.49 10.93 5.21 14.96 3.95 4.28 9.51 6.2 14.84 6.2s10.89-1.92 14.84-6.2c3.71-4.03 5.76-9.12 5.21-14.96z" fill="#6cf"/><path d="m38.76 55.4c-.63 1.22-2.26 1.45-3.64 1.37-1.37-.08-2.88-.28-3.99.54-1.5 1.14-1.48 3.67-3.12 4.59-1.94 1.07-4.31-1.03-6.48-.6-1.22.23-2.31 1.25-3.54 1.04s-1.9-1.55-2.89-2.33c-1.21-.93-2.87-.98-4.39-.98h-1c-3.34-3.91-5.15-8.78-4.62-14.29h33.83c-.32.67-.61 1.36-.87 2.06-.38 1.03-.7 2.15-.51 3.23.17.93.68 1.76 1.06 2.63.37.87.59 1.9.16 2.74z" fill="#fff" opacity=".15"/><path d="m38.92 44.74c-.32.67-.62 1.36-.87 2.06-.28.75-.52 1.54-.56 2.33-.57.89-1.23 1.72-1.99 2.45-.43.43-.9.82-1.4 1.17-.04.03-.08.06-.12.08-1.98 1.36-4.3 2.08-6.6 2.77-1.84.57-3.69 1.13-5.61 1.33-1.91.2-3.91 0-5.62-.89-.78-.42-1.49-.96-2.29-1.37-.79-.4-1.72-.65-2.57-.39-.72.21-1.3.75-1.99 1.04-.67.28-1.37.3-2.06.13-1.71-3.17-2.52-6.76-2.15-10.69-.01-.01-.01-.02 0-.03h33.83z" fill="#fff" opacity=".15"/><path d="m39.32 59.09c-3.47 3.76-8.64 5.92-14.18 5.92-5.2 0-10.07-1.9-13.52-5.24 3.24 2.69 7.54 4.2 12.1 4.2 5.37 0 10.37-2.09 13.71-5.72 3.36-3.64 5.03-7.99 4.88-12.63h2.04c.26 4.97-1.47 9.61-5.03 13.47z" opacity=".05"/><path d="m40.88 39.56c1.66.87 3.38 2.06 4.01 3.82 1.7 4.73-4.22 7.76-8.13 8.8-8 2.13-16.99 2.43-24.76-.66-3.15-1.25-7.09-3.46-6.9-7.14.18-3.67 3.89-5.48 7.14-6.61 4.2-1.46 8.7-2.15 13.18-2.02 5.31.17 10.79 1.38 15.46 3.81z" fill="#6cf"/><path d="m44.34 47.63c-1.57 2.32-5.01 3.87-7.59 4.56-8 2.13-16.98 2.43-24.76-.65-2.24-.89-4.88-2.26-6.15-4.3 1.29-2.1 3.97-3.31 6.39-4.15 4.2-1.46 8.7-2.16 13.18-2.03 5.31.16 10.79 1.37 15.46 3.8 1.31.68 2.65 1.57 3.47 2.77z" fill="#fcf0d6"/><path d="m44.89 43.38c-.63-1.76-2.34-2.95-4.01-3.82-4.66-2.44-10.14-3.65-15.45-3.81-.36-.01-.71-.01-1.07-.01-4.13 0-8.26.69-12.13 2.03-3.25 1.13-6.96 2.94-7.14 6.61-.19 3.67 3.75 5.88 6.9 7.13 4.02 1.6 8.36 2.29 12.73 2.29 4.07 0 8.17-.6 12.04-1.63 3.91-1.03 9.82-4.06 8.13-8.79zm-1.01 3.31c-1.21 2.3-4.71 3.93-7.35 4.63-3.99 1.07-7.96 1.6-11.81 1.6-4.51 0-8.68-.75-12.4-2.22-4.33-1.72-6.46-3.83-6.34-6.27.12-2.49 2.14-4.29 6.54-5.81 3.8-1.32 7.78-1.99 11.83-1.99.35 0 .69 0 1.04.01 5.53.16 10.75 1.45 15.07 3.7 1.98 1.04 3.15 2.13 3.59 3.34.38 1.07.32 2.05-.17 3.01z" fill="#92e0ff"/><path d="m24.72 52.93c-4.51 0-8.68-.75-12.4-2.22-3.65-1.45-5.74-3.18-6.23-5.14-.12-.47-.51-.82-1-.82-.01.01-.01.02 0 .03.08 3.45 3.86 5.55 6.9 6.76 4.02 1.6 8.36 2.29 12.73 2.29 3.11 0 6.24-.35 9.26-.98h.01c.54-.37 1.04-.79 1.51-1.25-3.65.88-7.26 1.33-10.78 1.33z" fill="#fff" opacity=".15"/><g><path d="m26.05 44.23c.25-.09.48-.26.59-.5.04-.09.07-.2.14-.28.12-.13.32-.14.48-.1.17.04.32.13.49.16.29.06.62-.05.81-.27.1-.11.17-.28.11-.42-.04-.1-.15-.17-.15-.28 0-.13.16-.2.18-.33.01-.09-.05-.17-.13-.21s-.17-.05-.25-.05c-.3-.02-.63-.04-.89.12-.21.12-.36.34-.6.38-.28.04-.56-.2-.84-.13s-.43.43-.72.48c-.2.03-.39-.11-.59-.08-.22.03-.36.27-.38.5-.03.28.06.56.25.77.37.38 1.02.41 1.5.24z" fill="#ffcf47"/><path d="m26.48 43.13c.41-.13.84-.17 1.25-.27.26-.06.54-.18.62-.43.02-.06.03-.13-.01-.18s-.11-.06-.18-.06c-.14-.01-.29-.01-.42.05-.11.05-.2.15-.3.21-.24.16-.55.14-.84.13s-.6-.02-.83.15c-.11.08-.18.2-.29.27-.12.08-.29.06-.42.08-.07.01-.15.02-.21.05-.22.13-.08.47.06.6.11.11.27.18.43.17s.18-.14.28-.26c.22-.24.54-.41.86-.51z" fill="#fff" opacity=".15"/><path d="m24.89 43.97c.16.07.33.09.5.08.15-.01.3-.04.41-.14.1-.09.16-.22.25-.32.11-.12.28-.19.43-.25.64-.24 1.32-.39 2-.44.04.17-.07.34-.22.42s-.33.08-.5.06c-.17-.03-.33-.08-.51-.09-.17-.02-.35 0-.49.1-.16.11-.24.31-.36.46-.19.23-.49.33-.79.37-.23.03-.47.02-.68-.07-.17-.07-.33-.21-.4-.39-.06-.16.05-.01.1.04.08.07.17.13.26.17z" fill="#efbb3c"/></g><g><path d="m17.54 47.8c.25-.09.48-.26.59-.5.04-.09.07-.2.14-.28.12-.13.32-.14.48-.1.17.04.32.13.49.16.29.06.62-.05.81-.27.1-.11.17-.28.11-.42-.04-.1-.15-.17-.15-.28 0-.13.16-.2.18-.33.01-.09-.05-.17-.13-.21s-.17-.05-.25-.05c-.3-.02-.63-.04-.89.12-.21.12-.36.34-.6.38-.28.04-.56-.2-.84-.13s-.43.43-.72.48c-.2.03-.39-.11-.59-.08-.22.03-.36.27-.38.5-.03.28.06.56.25.77.37.39 1.03.41 1.5.24z" fill="#ffcf47"/><path d="m17.97 46.71c.41-.13.84-.17 1.25-.27.26-.06.54-.18.62-.43.02-.06.03-.13-.01-.18s-.11-.06-.18-.06c-.14-.01-.29-.01-.42.05-.11.05-.2.15-.3.21-.24.16-.55.14-.84.13s-.6-.02-.83.15c-.11.08-.18.2-.29.27-.12.08-.29.06-.42.08-.07.01-.15.02-.21.05-.22.13-.08.47.06.6.11.11.27.18.43.17s.18-.14.28-.26c.23-.25.54-.41.86-.51z" fill="#fff" opacity=".15"/><path d="m16.39 47.55c.16.07.33.09.5.08.15-.01.3-.04.41-.14.1-.09.16-.22.25-.32.11-.12.28-.19.43-.25.64-.24 1.32-.39 2-.44.04.17-.07.34-.22.42s-.33.08-.5.06c-.17-.03-.33-.08-.51-.09-.17-.02-.35 0-.49.1-.16.11-.24.31-.36.46-.19.23-.49.33-.79.37-.23.03-.47.02-.68-.07-.17-.07-.33-.21-.4-.39-.06-.16.05-.01.1.04.07.07.16.13.26.17z" fill="#efbb3c"/></g><g><path d="m12.47 45.56c.25-.09.48-.26.59-.5.04-.09.07-.2.14-.28.12-.13.32-.14.48-.1s.32.13.49.16c.29.06.62-.05.81-.27.1-.11.17-.28.11-.42-.04-.1-.15-.17-.15-.28 0-.13.16-.2.18-.33.01-.09-.05-.17-.13-.21s-.17-.05-.25-.05c-.3-.02-.63-.04-.89.12-.21.12-.36.34-.6.38-.28.04-.56-.2-.84-.13s-.43.43-.72.48c-.2.03-.39-.11-.59-.08-.22.03-.36.27-.38.5-.03.28.06.56.25.77.37.39 1.02.41 1.5.24z" fill="#ffcf47"/><path d="m12.9 44.46c.41-.13.84-.17 1.25-.27.26-.06.54-.18.62-.43.02-.06.03-.13-.01-.18s-.11-.06-.18-.06c-.14-.01-.29-.01-.42.05-.11.05-.2.15-.3.21-.24.16-.55.14-.84.13s-.6-.02-.83.15c-.11.08-.18.2-.29.27-.12.08-.29.06-.42.08-.07.01-.15.02-.21.05-.22.13-.08.47.06.6.11.11.27.18.43.17s.18-.14.28-.26c.23-.24.54-.41.86-.51z" fill="#fff" opacity=".15"/><path d="m11.31 45.3c.16.07.33.09.5.08.15-.01.3-.04.41-.14.1-.09.16-.22.25-.32.11-.12.28-.19.43-.25.64-.24 1.32-.39 2-.44.04.17-.07.34-.22.42s-.33.08-.5.06c-.17-.03-.33-.08-.51-.09-.17-.02-.35 0-.49.1-.16.11-.24.31-.36.46-.19.23-.49.33-.79.37-.23.03-.47.02-.68-.07-.17-.07-.33-.21-.4-.39-.06-.16.05-.01.1.04.08.07.17.13.26.17z" fill="#efbb3c"/></g><g><path d="m27.82 48.84c.61-.2 1.18-.52 1.73-.85.06-.04.12-.07.15-.14.08-.15-.09-.32-.25-.38s-.35-.08-.46-.22c-.1-.14-.07-.33-.12-.5-.08-.26-.41-.4-.65-.29-.18.08-.31.28-.5.32-.18.04-.36-.06-.53-.13-.47-.19-1.09-.09-1.37.33-.1.15-.16.34-.31.44-.13.08-.29.09-.42.17-.26.15-.26.52-.13.75.15.27.49.46.76.58.63.29 1.49.12 2.1-.08z" fill="#ffcf47"/><path d="m25.4 48.01c.1-.15.27-.22.43-.29s.33-.15.43-.3c.09-.15.09-.34.19-.47.11-.14.3-.17.47-.15s.33.1.49.15.34.09.51.03c.11-.04.2-.12.29-.19s.2-.14.31-.14c.12-.01.25.06.27.17.02.09-.03.18-.06.27s-.04.2.03.26c.05.04.14.04.16.11.01.06-.05.11-.11.12-.23.07-.49.01-.72-.07s-.46-.18-.71-.18c-.24 0-.51.12-.59.35-.05.15-.02.34-.14.44-.15.12-.39-.01-.57.06-.09.03-.15.11-.21.18-.11.13-.28.26-.44.11-.11-.11-.12-.33-.03-.46z" fill="#fff" opacity=".15"/><path d="m27.25 48.83c.34-.09.65-.23.97-.37.35-.16.7-.31 1.05-.47.05-.02.1-.05.15-.09.04-.04.07-.1.06-.15-.02-.09-.12-.14-.21-.13-.15.01-.27.11-.4.18-.23.11-.5.12-.73.02-.11-.05-.22-.12-.34-.13-.13-.02-.27.04-.36.13s-.16.21-.19.34c-.02.08-.03.16-.07.23-.08.12-.24.16-.38.16s-.29-.04-.43-.02c-.09.01-.19.06-.23.14-.19.37.96.19 1.11.16z" fill="#efbb3c"/></g><g><path d="m12.96 47.71c.69-.23 1.33-.59 1.95-.96.07-.04.14-.08.17-.15.09-.17-.1-.36-.28-.43s-.4-.09-.52-.25c-.11-.16-.07-.37-.13-.56-.09-.29-.46-.45-.73-.33-.21.09-.35.32-.57.36-.2.04-.4-.07-.59-.15-.53-.22-1.23-.1-1.54.38-.11.17-.18.39-.35.5-.14.1-.33.1-.48.19-.29.17-.29.58-.15.85.16.31.55.52.86.66.7.32 1.67.12 2.36-.11z" fill="#ffcf47"/><path d="m10.22 46.77c.11-.17.31-.25.49-.33s.38-.17.48-.34.1-.38.22-.53.34-.2.53-.17.37.11.56.17c.18.06.39.1.57.04.12-.04.23-.13.33-.21.11-.08.22-.15.35-.16s.28.07.3.2c.02.1-.03.2-.07.3s-.05.23.04.29c.06.04.16.05.18.12s-.06.12-.12.14c-.26.08-.55.01-.81-.08s-.52-.2-.8-.2-.58.14-.66.4c-.05.17-.02.39-.16.5-.17.14-.44-.01-.65.07-.1.04-.17.12-.23.21-.12.15-.32.29-.49.12-.14-.13-.15-.39-.06-.54z" fill="#fff" opacity=".15"/><path d="m12.31 47.7c.38-.1.74-.26 1.1-.42.39-.18.79-.35 1.18-.53.06-.03.12-.05.16-.1.05-.04.08-.11.07-.17-.02-.1-.14-.15-.24-.15-.17.01-.31.12-.46.2-.25.13-.56.14-.83.03-.13-.05-.24-.13-.38-.15-.15-.02-.3.04-.41.14s-.18.24-.21.39c-.02.09-.03.18-.08.26-.09.14-.27.18-.43.18s-.33-.04-.49-.02c-.1.01-.21.06-.26.16-.18.43 1.12.22 1.28.18z" fill="#efbb3c"/></g><g><path d="m30.78 45.41c.15-.11.3-.21.48-.25.14-.03.29-.01.44-.02.15-.02.3-.08.36-.22.07-.17-.05-.37.03-.54.05-.1.16-.16.19-.26.02-.1-.05-.2-.14-.26s-.19-.1-.27-.17c-.23-.21-.21-.64-.5-.75-.15-.06-.32.01-.46.09-.14.09-.27.2-.43.23-.26.06-.51-.09-.77-.12-.37-.05-.75.12-1 .4s-.38.65-.42 1.03c-.03.23-.01.48.13.66.11.14.29.22.46.29.31.12.7.37 1.02.41.27.03.65-.36.88-.52z" fill="#ffcf47"/><path d="m29.59 45.37c.2.04.43.07.61-.03.18-.09.29-.29.47-.37.2-.1.45-.04.67-.1.17-.05.32-.17.43-.31.08-.11.15-.25.12-.39s-.19-.25-.32-.19c-.14.07-.15.28-.26.39-.1.09-.25.09-.39.08-.13-.01-.26-.02-.39.01s-.25.1-.31.22c-.06.11-.06.25-.14.33-.08.07-.19.08-.3.06-.1-.03-.19-.08-.29-.12-.13-.05-.79-.19-.75.08.05.22.67.3.85.34z" fill="#efbb3c"/><path d="m29.09 44.49c.24-.06.5-.05.74-.12.26-.07.49-.23.75-.31.15-.05.32-.07.46-.14.15-.06.29-.18.31-.34.03-.16-.11-.34-.27-.32-.13.02-.21.16-.31.24-.17.14-.4.14-.61.09s-.41-.13-.62-.14-.45.07-.54.27c-.07.15-.03.34-.13.46-.05.07-.14.1-.21.16s-.32.5-.09.5c.05 0 .16-.17.21-.21.09-.07.2-.11.31-.14z" fill="#fff" opacity=".15"/></g><g><path d="m33.08 47.12c.37-.28.88-.49 1.08-.93.1-.24.1-.51.21-.75.13-.3.42-.5.73-.63.3-.12.63-.18.95-.27.21-.06.42-.14.58-.29s.26-.38.19-.59c-.09-.29-.43-.41-.73-.39s-.59.13-.88.15-.58-.05-.87-.07-.61.04-.81.26c-.29.32-.17.84-.36 1.23-.15.3-.46.48-.77.59s-.65.17-.95.3c-.44.2-.82.59-.89 1.06-.08.54.37.88.86.94.65.1 1.16-.23 1.66-.61z" fill="#ffcf47"/><path d="m33.23 46.92c.16-.07.32-.14.45-.27.38-.38.25-1.03.5-1.49.19-.35.58-.55.96-.66.38-.12.78-.18 1.14-.36.14-.07.28-.2.24-.34-.03-.1-.13-.15-.23-.18-.46-.13-.95.14-1.43.08-.31-.04-.64-.21-.91-.06-.2.11-.29.35-.33.58s-.04.47-.16.67c-.14.24-.4.37-.65.5-.4.2-.79.43-1.16.68-.17.12-.34.24-.47.4s-.21.37-.19.57c.02.18.13.34.29.42.18.09.39-.01.57-.06.49-.14.94-.3 1.38-.48z" fill="#fff" opacity=".15"/></g><g><path d="m28.43 51.98c.45-.09 1.01-.05 1.38-.37.2-.17.32-.41.52-.58.25-.21.6-.27.93-.24.33.02.64.12.97.18.21.04.44.06.65 0s.4-.23.43-.44c.05-.3-.21-.56-.49-.68s-.58-.14-.86-.25c-.27-.11-.5-.3-.75-.44s-.57-.23-.84-.12c-.4.17-.52.68-.87.95-.26.2-.62.23-.96.2-.33-.04-.66-.13-.99-.14-.48-.02-.99.17-1.26.57-.31.45-.05.96.36 1.22.56.34 1.16.27 1.78.14z" fill="#ffcf47"/><path d="m28.65 51.87c.17.01.35.01.52-.04.5-.17.67-.81 1.1-1.12.33-.23.76-.24 1.15-.18s.78.18 1.18.18c.15 0 .34-.05.37-.2.02-.1-.05-.19-.12-.26-.36-.32-.92-.29-1.32-.56-.26-.17-.48-.47-.79-.46-.23.01-.41.19-.55.38s-.24.4-.44.53c-.23.16-.53.16-.8.16-.45.01-.9.04-1.34.1-.2.03-.41.07-.59.16-.19.09-.35.24-.42.43-.06.17-.03.36.08.5.13.16.35.16.54.2.47.1.95.16 1.43.18z" fill="#fff" opacity=".15"/></g><g><path d="m22.31 48.12c.3-.23.73-.4.89-.77.09-.2.09-.42.17-.62.11-.25.35-.42.6-.52s.52-.15.78-.22c.17-.05.35-.11.48-.24s.21-.31.16-.49c-.07-.24-.36-.34-.61-.33s-.48.11-.73.13c-.24.02-.48-.04-.72-.06-.24-.01-.51.03-.67.21-.24.27-.14.7-.3 1.02-.12.25-.38.4-.64.49s-.54.14-.79.25c-.36.16-.68.48-.73.88-.07.45.31.73.71.78.56.08.98-.19 1.4-.51z" fill="#ffcf47"/><path d="m22.43 47.96c.13-.06.27-.12.37-.22.31-.31.2-.85.42-1.23.16-.29.48-.45.79-.55s.65-.15.94-.3c.11-.06.23-.16.2-.28-.02-.08-.11-.13-.19-.15-.38-.11-.79.11-1.18.06-.26-.03-.53-.17-.76-.05-.17.09-.24.29-.27.48s-.04.39-.13.55c-.11.2-.33.31-.54.41-.33.17-.65.35-.96.56-.14.1-.28.2-.38.33s-.17.3-.15.47c.02.15.11.28.24.35.15.07.32-.01.47-.05.39-.1.77-.23 1.13-.38z" fill="#fff" opacity=".15"/></g><g><path d="m19.52 45.04c.28-.05.55-.16.82-.27.06-.28.13-.56.08-.85-.04-.28-.21-.56-.49-.65-.2-.06-.44-.03-.58-.18-.15-.15-.1-.4-.18-.6-.12-.29-.47-.39-.78-.45-.27-.05-.54-.1-.81-.06-.27.05-.53.21-.61.47-.12.37.15.76.1 1.14-.05.36-.08.57.24.82.19.14.37.16.59.2.27.04.46.15.69.29.3.16.61.2.93.14z" fill="#ffcf47"/><path d="m17.53 42.28c.12-.07.26-.08.4-.08.26-.01.56 0 .75.19.25.26.17.74.46.95.12.08.26.1.4.14.2.05.38.16.51.32s.18.38.11.57-.29.33-.49.28c-.21-.05-.33-.25-.42-.44-.1-.19-.21-.4-.41-.46-.15-.05-.32-.01-.47-.06-.32-.12-.35-.56-.66-.7-.16-.07-.4.04-.44-.19-.02-.18.12-.43.26-.52z" fill="#fff" opacity=".15"/><path d="m18.8 44.13c-.27-.13-.58-.21-.79-.43-.07-.08-.13-.17-.21-.24s-.2-.11-.29-.07c-.11.05-.16.19-.13.3.03.12.12.21.22.27s.21.1.32.16c.24.13.43.33.66.47.13.08.67.33.76.08.07-.23-.4-.48-.54-.54z" fill="#efbb3c"/></g><g><path d="m15.62 50.6c.28-.05.55-.16.82-.27.06-.28.13-.56.08-.85s-.21-.56-.49-.65c-.2-.06-.44-.03-.58-.18-.15-.15-.1-.4-.18-.6-.12-.29-.47-.39-.78-.45-.27-.05-.54-.1-.81-.06s-.53.21-.61.47c-.12.37.15.76.1 1.14-.05.36-.08.57.24.82.19.14.37.16.59.2.27.04.46.15.69.29.3.16.61.2.93.14z" fill="#ffcf47"/><path d="m13.63 47.84c.12-.07.26-.08.4-.08.26-.01.56 0 .75.19.25.26.17.74.46.95.12.08.26.1.4.14.2.05.38.16.51.32s.18.38.11.57-.29.33-.49.28c-.21-.05-.33-.25-.42-.44s-.21-.4-.41-.46c-.15-.05-.32-.01-.47-.06-.32-.12-.35-.56-.66-.7-.16-.07-.4.04-.44-.19-.02-.18.11-.43.26-.52z" fill="#fff" opacity=".15"/><path d="m14.9 49.68c-.27-.13-.58-.21-.79-.43-.07-.08-.13-.17-.21-.24s-.2-.11-.29-.07c-.11.05-.16.19-.13.3s.12.21.22.27.21.1.32.16c.24.13.43.33.66.47.13.08.67.33.76.08.07-.22-.4-.47-.54-.54z" fill="#efbb3c"/></g><g><path d="m24.2 52.15c.28-.05.55-.16.82-.27.06-.28.13-.56.08-.85-.04-.28-.21-.56-.49-.65-.2-.06-.44-.03-.58-.18-.15-.15-.1-.4-.18-.6-.12-.29-.47-.39-.78-.45-.27-.05-.54-.1-.81-.06-.27.05-.53.21-.61.47-.12.37.15.76.1 1.14-.05.36-.08.57.24.82.19.14.37.16.59.2.27.04.46.15.69.29.3.16.61.19.93.14z" fill="#ffcf47"/><path d="m22.22 49.39c.12-.07.26-.08.4-.08.26-.01.56 0 .75.19.25.26.17.74.46.95.12.08.26.1.4.14.2.05.38.16.51.32s.18.38.11.57-.29.33-.49.28c-.21-.05-.33-.25-.42-.44-.1-.19-.21-.4-.41-.46-.15-.05-.32-.01-.47-.06-.32-.12-.35-.56-.66-.7-.16-.07-.4.04-.44-.19-.02-.19.11-.43.26-.52z" fill="#fff" opacity=".15"/><path d="m23.48 51.23c-.27-.13-.58-.21-.79-.43-.07-.08-.13-.17-.21-.24s-.2-.11-.29-.07c-.11.05-.16.19-.13.3.03.12.12.21.22.27s.21.1.32.16c.24.13.43.33.66.47.13.08.67.33.76.08.08-.22-.39-.47-.54-.54z" fill="#efbb3c"/></g><g><path d="m19.85 52.39c.28-.05.55-.16.82-.27.06-.28.13-.56.08-.85-.04-.28-.21-.56-.49-.65-.2-.06-.44-.03-.58-.18-.15-.15-.1-.4-.18-.6-.12-.29-.47-.39-.78-.45-.27-.05-.54-.1-.81-.06-.27.05-.53.21-.61.47-.12.37.15.76.1 1.14-.05.36-.08.57.24.82.19.14.37.16.59.2.27.04.46.15.69.29.3.17.61.2.93.14z" fill="#ffcf47"/><path d="m17.87 49.64c.12-.07.26-.08.4-.08.26-.01.56 0 .75.19.25.26.17.74.46.95.12.08.26.1.4.14.2.05.38.16.51.32s.18.38.11.57-.29.33-.49.28c-.21-.05-.33-.25-.42-.44-.1-.19-.21-.4-.41-.46-.15-.05-.32-.01-.47-.06-.32-.12-.35-.56-.66-.7-.16-.07-.4.04-.44-.19-.02-.19.11-.43.26-.52z" fill="#fff" opacity=".15"/><path d="m19.13 51.48c-.27-.13-.58-.21-.79-.43-.07-.08-.13-.17-.21-.24s-.2-.11-.29-.07c-.11.05-.16.19-.13.3.03.12.12.21.22.27s.21.1.32.16c.24.13.43.33.66.47.13.08.67.33.76.08.08-.22-.39-.48-.54-.54z" fill="#efbb3c"/></g><g><path d="m19.6 41.81c-.1-.08-.22-.15-.3-.25s-.13-.24-.09-.37c.06-.18.28-.25.46-.29.21-.05.43-.1.65-.09s.44.08.59.24c.11.12.18.28.31.38.15.12.36.13.55.09s.36-.13.55-.18c.62-.19 1.34-.03 1.82.41.18.16.33.37.37.61s-.05.51-.25.63c-.23.14-.54.06-.78-.08-.23-.14-.43-.34-.68-.46s-.58-.14-.77.06c-.07.08-.12.18-.18.26-.16.21-.45.3-.71.29-.38-.02-.68-.1-.85-.43-.17-.32-.4-.6-.69-.82z" fill="#ffcf47"/><path d="m20.31 40.94c.12 0 .22.06.32.13.28.19.53.48.86.54.23.04.46-.03.68-.08.36-.08.73-.11 1.08-.03s.7.25.93.54c.05.06.09.12.11.19s0 .15-.05.21c-.08.07-.2.06-.29.01-.2-.11-.29-.36-.45-.52-.21-.21-.54-.25-.84-.22s-.58.13-.88.17-.62 0-.85-.2c-.12-.1-.21-.25-.35-.3-.13-.04-.27 0-.39.05s-.25.11-.38.11c-.08 0-.25-.05-.27-.15-.02-.11.14-.13.22-.18.17-.1.33-.28.55-.27z" fill="#fff" opacity=".15"/><path d="m20.21 41.87c.06.02.13.07.17.11.1.08.18.19.21.32.03.15-.01.33.09.44.06.07.17.09.26.09.22 0 .45-.07.62-.21.11-.09.2-.21.32-.3.23-.18.55-.24.83-.17.29.06.54.24.73.47.04.05.07.1.13.13s.12.04.17 0c.07-.07.02-.18-.03-.26-.15-.23-.32-.47-.57-.57-.21-.08-.44-.06-.66-.04-.24.03-.5.06-.71.18-.18.11-.34.28-.54.26-.22-.02-.35-.25-.51-.39-.09-.08-.68-.4-.74-.18-.01.05.03.1.08.11.05.02.1 0 .15.01z" fill="#efbb3c"/></g><g><path d="m33.76 48.96c-.1-.08-.22-.15-.3-.25s-.13-.24-.09-.37c.06-.18.28-.25.46-.29.21-.05.43-.1.65-.09s.44.08.59.24c.11.12.18.28.31.38.15.12.36.13.55.09s.36-.13.55-.18c.62-.19 1.34-.03 1.82.41.18.16.33.37.37.61s-.05.51-.25.63c-.23.14-.54.06-.78-.08-.23-.14-.43-.34-.68-.46s-.58-.14-.77.06c-.07.08-.12.18-.18.26-.16.21-.45.3-.71.29-.38-.02-.68-.1-.85-.43-.17-.32-.4-.6-.69-.82z" fill="#ffcf47"/><path d="m34.47 48.09c.12 0 .22.06.32.13.28.19.53.48.86.54.23.04.46-.03.68-.08.36-.08.73-.11 1.08-.03s.7.25.93.54c.05.06.09.12.11.19s0 .15-.05.21c-.08.07-.2.06-.29.01-.2-.11-.29-.36-.45-.52-.21-.21-.54-.25-.84-.22s-.58.13-.88.17-.62 0-.85-.2c-.12-.1-.21-.25-.35-.3-.13-.04-.27 0-.39.05s-.25.11-.38.11c-.08 0-.25-.05-.27-.15-.02-.11.14-.13.22-.18.17-.1.33-.28.55-.27z" fill="#fff" opacity=".15"/><path d="m34.37 49.02c.06.02.13.07.17.11.1.08.18.19.21.32.03.15-.01.33.09.44.06.07.17.09.26.09.22 0 .45-.07.62-.21.11-.09.2-.21.32-.3.23-.18.55-.24.83-.17.29.06.54.24.73.47.04.05.07.1.13.13.05.03.12.04.17 0 .07-.07.02-.18-.03-.26-.15-.23-.32-.47-.57-.57-.21-.08-.44-.06-.66-.04-.24.03-.5.06-.71.18-.18.11-.34.28-.54.26-.22-.02-.35-.25-.51-.39-.09-.08-.68-.4-.74-.18-.01.05.03.1.08.11.05.02.1 0 .15.01z" fill="#efbb3c"/></g><g><path d="m36.74 46.36c-.1-.08-.22-.15-.3-.25s-.13-.24-.09-.37c.06-.18.28-.25.46-.29.21-.05.43-.1.65-.09s.44.08.59.24c.11.12.18.28.31.38.15.12.36.13.55.09s.36-.13.55-.18c.62-.19 1.34-.03 1.82.41.18.16.33.37.37.61s-.05.51-.25.63c-.23.14-.54.06-.78-.08-.23-.14-.43-.34-.68-.46s-.58-.14-.77.06c-.07.08-.12.18-.18.26-.16.21-.45.3-.71.29-.38-.02-.68-.1-.85-.43-.17-.32-.4-.6-.69-.82z" fill="#ffcf47"/><path d="m37.45 45.49c.12 0 .22.06.32.13.28.19.53.48.86.54.23.04.46-.03.68-.08.36-.08.73-.11 1.08-.03.36.07.7.25.93.54.05.06.09.12.11.19s0 .15-.05.21c-.08.07-.2.06-.29.01-.2-.11-.29-.36-.45-.52-.21-.21-.54-.25-.84-.22s-.58.13-.88.17-.62 0-.85-.2c-.12-.1-.21-.25-.35-.3-.13-.04-.27 0-.39.05s-.25.11-.38.11c-.08 0-.25-.05-.27-.15-.02-.11.14-.13.22-.18.17-.11.33-.28.55-.27z" fill="#fff" opacity=".15"/><path d="m37.35 46.42c.06.02.13.07.17.11.1.08.18.19.21.32.03.15-.01.33.09.44.06.07.17.09.26.09.22 0 .45-.07.62-.21.11-.09.2-.21.32-.3.23-.18.55-.24.83-.17s.54.24.73.47c.04.05.07.1.13.13.05.03.12.04.17 0 .07-.07.02-.18-.03-.26-.15-.23-.32-.47-.57-.57-.21-.08-.44-.06-.66-.04-.24.03-.5.06-.71.18-.18.11-.34.28-.54.26-.22-.02-.35-.25-.51-.39-.09-.08-.68-.4-.74-.18-.01.05.03.1.08.11.05.02.1-.01.15.01z" fill="#efbb3c"/></g></g></g></svg>