<svg id="Capa_1" enable-background="new 0 0 512 512" height="512" viewBox="0 0 512 512" width="512" xmlns="http://www.w3.org/2000/svg"><g><path d="m294.19 29.097v53.668h-277.832v-53.657c0-2.537 3.33-3.919 5.515-2.288l10.743 8.019c5.059 3.776 12.435 3.776 17.495.001l10.985-8.197c5.06-3.776 12.437-3.775 17.496.002l10.972 8.191c5.06 3.778 12.438 3.778 17.498 0l10.972-8.191c5.059-3.777 12.436-3.778 17.496-.002l10.986 8.198c5.059 3.775 12.434 3.775 17.493 0l10.986-8.198c5.06-3.776 12.437-3.775 17.496.002l10.974 8.193c5.059 3.777 12.436 3.778 17.496.002l10.985-8.198c5.059-3.775 12.434-3.775 17.494 0l10.986 8.198c5.06 3.776 12.436 3.775 17.495-.001l10.756-8.029c2.183-1.632 5.513-.25 5.513 2.287z" fill="#e3e0e4"/><path d="m294.19 472.486v-53.668h-277.832v53.657c0 2.537 3.33 3.919 5.515 2.288l10.743-8.019c5.059-3.776 12.435-3.776 17.495-.001l10.985 8.197c5.06 3.776 12.437 3.775 17.496-.002l10.972-8.191c5.06-3.778 12.438-3.778 17.498 0l10.972 8.191c5.059 3.777 12.436 3.778 17.496.002l10.986-8.198c5.059-3.775 12.434-3.775 17.493 0l10.986 8.198c5.06 3.776 12.437 3.775 17.496-.002l10.974-8.193c5.059-3.777 12.436-3.778 17.496-.002l10.985 8.198c5.059 3.775 12.434 3.775 17.494 0l10.986-8.198c5.06-3.776 12.436-3.775 17.495.001l10.756 8.029c2.183 1.632 5.513.25 5.513-2.287z" fill="#e3e0e4"/><path d="m288.676 26.809-10.756 8.029c-5.059 3.776-12.435 3.777-17.495.001l-5.483-4.091v52.017h39.248v-53.668c0-2.537-3.33-3.919-5.514-2.288z" fill="#c5bec6"/><path d="m254.942 418.818v52.017l5.483-4.091c5.06-3.776 12.436-3.775 17.495.001l10.756 8.029c2.185 1.631 5.514.249 5.514-2.288v-53.668z" fill="#c5bec6"/><path d="m294.19 418.82h-277.83c-21.81-111.18-21.81-224.88 0-336.06h277.83c21.81 111.18 21.81 224.88 0 336.06z" fill="#80b6fc"/><path d="m208.316 260.926-12.888 4.102-24.751-14.29 24.751-14.29 12.888 4.101c.78.248 1.568.366 2.345.366 3.275 0 6.315-2.099 7.36-5.385 1.295-4.066-.953-8.411-5.019-9.706l-9.429-3 2.116-9.665c.912-4.169-1.726-8.288-5.895-9.2-4.166-.911-8.287 1.727-9.199 5.895l-2.892 13.212-24.752 14.29v-28.471l9.996-9.11c3.154-2.874 3.38-7.761.506-10.915-2.873-3.155-7.763-3.38-10.914-.507l-7.314 6.665-7.313-6.665c-3.153-2.874-8.04-2.649-10.914.506-2.874 3.154-2.648 8.041.506 10.915l9.995 9.11v28.472l-24.657-14.236-2.891-13.211c-.911-4.167-5.022-6.808-9.199-5.896-4.168.912-6.808 5.031-5.895 9.2l2.115 9.665-9.428 3.001c-4.066 1.294-6.314 5.64-5.019 9.706 1.046 3.287 4.086 5.385 7.36 5.385.777 0 1.566-.118 2.345-.366l12.887-4.102 24.657 14.235-24.657 14.235-12.887-4.101c-4.066-1.293-8.411.953-9.705 5.02-1.295 4.066.953 8.411 5.019 9.706l9.428 3-2.115 9.666c-.912 4.169 1.727 8.287 5.895 9.2.556.122 1.112.18 1.659.18 3.552 0 6.751-2.464 7.54-6.076l2.891-13.211 24.657-14.236v28.58l-9.995 9.11c-3.154 2.874-3.38 7.761-.506 10.915s7.762 3.38 10.914.506l7.313-6.665 7.314 6.665c1.481 1.35 3.344 2.016 5.202 2.016 2.098 0 4.188-.85 5.712-2.522 2.874-3.154 2.648-8.041-.506-10.915l-9.996-9.11v-28.58l24.752 14.29 2.892 13.211c.791 3.612 3.988 6.075 7.54 6.075.546 0 1.103-.058 1.659-.18 4.169-.912 6.808-5.032 5.895-9.2l-2.116-9.665 9.429-3c4.066-1.294 6.314-5.64 5.019-9.706-1.294-4.066-5.644-6.311-9.705-5.019z" fill="#efedef"/><path d="m294.19 82.765c-13.083 0-26.166 0-39.248 0 21.811 111.179 21.811 224.874 0 336.052h39.248c21.811-111.178 21.811-224.873 0-336.052z" fill="#5392f9"/><ellipse cx="347.654" cy="387.498" fill="#e38523" rx="56.138" ry="56.138"/><ellipse cx="260.172" cy="368.175" fill="#eec06b" rx="56.138" ry="56.138"/><path d="m223.323 469.569-16.24-52.377h272.782l-16.24 52.377c-3.433 11.073-13.676 18.621-25.27 18.621h-189.763c-11.593.001-21.836-7.548-25.269-18.621z" fill="#655e67"/><path d="m449.225 417.193h-242.142l6.876 22.175h215.293c6.502 0 11.144 6.299 9.219 12.51l-5.486 17.692c-3.433 11.073-13.676 18.621-25.27 18.621h30.639c11.593 0 21.836-7.548 25.27-18.621l16.24-52.377z" fill="#544f56"/><path d="m427.059 269.897-11.018-3.682c-8.179-2.734-17.026 1.681-19.76 9.86l-39.06 116.866c-2.734 8.179 1.681 17.026 9.86 19.76l11.018 3.682c8.179 2.734 17.026-1.681 19.76-9.86l39.06-116.866c2.734-8.18-1.681-17.027-9.86-19.76z" fill="#68b76a"/><path d="m488.607 339.031-5.167-10.405c-3.836-7.724-13.207-10.876-20.931-7.041l-110.362 54.804c-7.724 3.836-10.876 13.207-7.041 20.931l5.167 10.405c3.836 7.724 13.207 10.876 20.931 7.041l110.362-54.804c7.725-3.836 10.877-13.207 7.041-20.931z" fill="#94d4a2"/><path d="m174.947 392.251v8.778c0 8.926 7.236 16.163 16.163 16.163h304.728c8.926 0 16.163-7.236 16.163-16.163v-8.778c0-8.926-7.236-16.163-16.163-16.163h-304.729c-8.926.001-16.162 7.237-16.162 16.163z" fill="#655e67"/></g></svg>