<svg width="54" height="54" viewBox="0 0 54 54" fill="none" xmlns="http://www.w3.org/2000/svg">
<path d="M48.375 32.4001V37.5526C48.375 45.7426 43.4925 50.6251 35.3025 50.6251H16.4475C10.71 50.6251 6.57001 48.2176 4.63501 43.9426L4.88251 43.7626L15.9525 36.3376C16.8457 35.7467 17.905 35.4583 18.9745 35.515C20.0439 35.5717 21.0669 35.9705 21.8925 36.6526L22.6575 37.2826C23.553 38.014 24.6738 38.4135 25.83 38.4135C26.9863 38.4135 28.107 38.014 29.0025 37.2826L38.3625 29.2501C39.258 28.5187 40.3788 28.1191 41.535 28.1191C42.6913 28.1191 43.812 28.5187 44.7075 29.2501L48.375 32.4001Z" fill="url(#paint0_linear_699_2584)"/>
<path opacity="0.4" d="M48.375 18.6233V18.6975V32.4L44.7075 29.25C43.812 28.5186 42.6912 28.1191 41.535 28.1191C40.3787 28.1191 39.258 28.5186 38.3625 29.25L29.0025 37.2825C28.107 38.0139 26.9862 38.4134 25.83 38.4134C24.6737 38.4134 23.553 38.0139 22.6575 37.2825L21.8925 36.6525C21.0668 35.9704 20.0439 35.5717 18.9744 35.5149C17.905 35.4582 16.8456 35.7466 15.9525 36.3375L4.88248 43.7625L4.63498 43.9425C3.75597 41.9293 3.326 39.7487 3.37498 37.5525V18.6975C3.37498 10.5075 8.25747 5.625 16.4475 5.625H35.3025H35.3767C35.0334 6.34863 34.8617 7.14169 34.875 7.9425V14.5575C34.8182 15.1715 34.8973 15.7905 35.1067 16.3705C35.3162 16.9504 35.6508 17.4771 36.0868 17.9131C36.5229 18.3492 37.0496 18.6838 37.6295 18.8932C38.2095 19.1027 38.8285 19.1818 39.4425 19.125H46.0575C46.8583 19.1382 47.6514 18.9665 48.375 18.6233Z" fill="url(#paint1_linear_699_2584)"/>
<path d="M24.4688 19.125C24.4688 20.1819 24.1553 21.2151 23.5682 22.0938C22.981 22.9726 22.1464 23.6575 21.17 24.062C20.1935 24.4664 19.1191 24.5723 18.0825 24.3661C17.0459 24.1599 16.0937 23.6509 15.3464 22.9036C14.5991 22.1563 14.0901 21.2041 13.8839 20.1675C13.6777 19.1309 13.7836 18.0565 14.188 17.08C14.5925 16.1036 15.2774 15.269 16.1562 14.6818C17.0349 14.0947 18.0681 13.7812 19.125 13.7812C20.5419 13.7824 21.9004 14.3458 22.9023 15.3477C23.9042 16.3496 24.4676 17.7081 24.4688 19.125Z" fill="url(#paint2_linear_699_2584)"/>
<path d="M46.0574 3.37504H39.4424C38.8284 3.31822 38.2094 3.39735 37.6295 3.6068C37.0495 3.81624 36.5228 4.15087 36.0868 4.58689C35.6507 5.02291 35.3161 5.54962 35.1067 6.12959C34.8972 6.70955 34.8181 7.32854 34.8749 7.94254V14.5575C34.8181 15.1715 34.8972 15.7905 35.1067 16.3705C35.3161 16.9505 35.6507 17.4772 36.0868 17.9132C36.5228 18.3492 37.0495 18.6838 37.6295 18.8933C38.2094 19.1027 38.8284 19.1819 39.4424 19.125H46.0574C46.6714 19.1819 47.2904 19.1027 47.8704 18.8933C48.4503 18.6838 48.977 18.3492 49.4131 17.9132C49.8491 17.4772 50.1837 16.9505 50.3932 16.3705C50.6026 15.7905 50.6817 15.1715 50.6249 14.5575V7.94254C50.6817 7.32854 50.6026 6.70955 50.3932 6.12959C50.1837 5.54962 49.8491 5.02291 49.4131 4.58689C48.977 4.15087 48.4503 3.81624 47.8704 3.6068C47.2904 3.39735 46.6714 3.31822 46.0574 3.37504ZM48.1724 12.2175C47.9229 12.458 47.5958 12.6016 47.2499 12.6225H44.0774L44.0999 15.75C44.0871 16.1155 43.934 16.462 43.6724 16.7175C43.4264 16.9603 43.0955 17.0975 42.7499 17.1C42.5726 17.1 42.3971 17.0651 42.2333 16.9973C42.0695 16.9294 41.9207 16.83 41.7953 16.7046C41.67 16.5793 41.5705 16.4305 41.5027 16.2667C41.4348 16.1029 41.3999 15.9273 41.3999 15.75V12.6L38.2499 12.6225C37.8898 12.6166 37.5465 12.4694 37.2939 12.2127C37.0414 11.9559 36.8999 11.6102 36.8999 11.25C36.8999 10.892 37.0421 10.5486 37.2953 10.2954C37.5485 10.0423 37.8919 9.90004 38.2499 9.90004L41.3999 9.92254V6.77254C41.3999 6.4145 41.5421 6.07112 41.7953 5.81795C42.0485 5.56477 42.3919 5.42254 42.7499 5.42254C43.108 5.42254 43.4513 5.56477 43.7045 5.81795C43.9577 6.07112 44.0999 6.4145 44.0999 6.77254L44.0774 9.90004H47.2499C47.4272 9.90004 47.6028 9.93496 47.7665 10.0028C47.9303 10.0706 48.0792 10.1701 48.2045 10.2954C48.3299 10.4208 48.4293 10.5696 48.4972 10.7334C48.565 10.8972 48.5999 11.0728 48.5999 11.25C48.5768 11.6131 48.4252 11.956 48.1724 12.2175Z" fill="url(#paint3_linear_699_2584)"/>
<defs>
<linearGradient id="paint0_linear_699_2584" x1="4.63501" y1="39.3728" x2="48.375" y2="39.3728" gradientUnits="userSpaceOnUse">
<stop stop-color="#16B0E2"/>
<stop offset="1" stop-color="#2B59C3"/>
</linearGradient>
<linearGradient id="paint1_linear_699_2584" x1="3.37498" y1="24.7838" x2="2.24998" y2="24.7838" gradientUnits="userSpaceOnUse">
<stop stop-color="#16B0E2"/>
<stop offset="1" stop-color="#2B59C3"/>
</linearGradient>
<linearGradient id="paint2_linear_699_2584" x1="13.7813" y1="19.125" x2="24.4688" y2="19.125" gradientUnits="userSpaceOnUse">
<stop stop-color="#16B0E2"/>
<stop offset="1" stop-color="#2B59C3"/>
</linearGradient>
<linearGradient id="paint3_linear_699_2584" x1="34.8749" y1="11.25" x2="50.6249" y2="11.25" gradientUnits="userSpaceOnUse">
<stop stop-color="#16B0E2"/>
<stop offset="1" stop-color="#2B59C3"/>
</linearGradient>
</defs>
</svg>
