<svg width="48" height="48" viewBox="0 0 48 48" fill="none" xmlns="http://www.w3.org/2000/svg">
<g clip-path="url(#clip0_683_1899)">
<path d="M15.0471 3.50389C14.5605 2.76945 13.5216 2.68414 12.9113 3.31958C12.7123 3.52677 12.5307 3.75383 12.369 4.00049C10.6929 6.55808 11.796 10.2446 14.8327 12.2346C16.2164 13.1414 17.7624 13.539 19.1943 13.4615C20.241 13.4048 20.8184 12.2147 20.2395 11.3407L15.0471 3.50389Z" fill="#FDDE2E"/>
<path d="M20.2395 11.3407L15.0472 3.50365C14.5605 2.76921 13.5216 2.6839 12.9114 3.31934C12.8238 3.41055 12.7402 3.50627 12.6595 3.60518L17.7846 11.3407C18.2453 12.0361 17.9733 12.9311 17.3157 13.2966C17.9485 13.44 18.5818 13.4946 19.1944 13.4614C20.241 13.4047 20.8184 12.2145 20.2395 11.3407Z" fill="#F9C400"/>
<path d="M29.4962 9.6899C31.3263 7.85978 30.8952 4.46148 28.5333 2.09958C26.1714 -0.262324 22.7731 -0.693415 20.943 1.13671C19.1129 2.96683 19.544 6.36514 21.9059 8.72704C24.2678 11.0889 27.6661 11.52 29.4962 9.6899Z" fill="#F9C301"/>
<path d="M28.5371 2.09689C26.7743 0.334206 24.4347 -0.352607 22.6 0.172581C23.7593 0.461143 24.9276 1.10971 25.9148 2.09689C28.2771 4.45911 28.7082 7.85792 26.8778 9.68839C26.4133 10.1529 25.8474 10.4711 25.2234 10.6497C26.8379 11.0515 28.4348 10.7538 29.5001 9.68839C31.3305 7.85802 30.8993 4.45921 28.5371 2.09689Z" fill="#E6B700"/>
<path d="M35.0115 10.1225C36.1974 6.99889 35.1968 3.72177 32.7765 2.80282C30.3562 1.88388 27.4327 3.67109 26.2467 6.79468C25.0608 9.91827 26.0614 13.1954 28.4817 14.1143C30.9021 15.0333 33.8255 13.2461 35.0115 10.1225Z" fill="#FDDE2E"/>
<path d="M35.0154 10.1323C35.901 7.80192 35.5686 5.38635 34.3377 3.92798C34.5496 5.1036 34.4368 6.43504 33.9408 7.74023C32.7541 10.863 29.8305 12.6493 27.4107 11.7298C26.7966 11.4964 26.2745 11.1106 25.8559 10.6146C26.1509 12.2519 27.077 13.5865 28.4854 14.1217C30.9051 15.0412 33.8287 13.2551 35.0154 10.1323Z" fill="#F9C301"/>
<path d="M40.898 44.0071L39.8485 36.4175C39.8146 36.1723 39.7976 35.925 39.7976 35.6773V17.0694C39.7976 16.8218 39.8147 16.5745 39.8485 16.3291L40.898 8.73952C41.0224 7.83999 40.253 7.07058 39.3533 7.1949L30.8631 8.36883C30.6178 8.40277 30.3705 8.41974 30.1228 8.41974H17.8771C17.6295 8.41974 17.3822 8.40268 17.1368 8.36883L8.64657 7.1949C7.74703 7.07049 6.97763 7.8399 7.10194 8.73952L8.15138 16.3291C8.18532 16.5744 8.20228 16.8217 8.20228 17.0694V35.6774C8.20228 35.925 8.18522 36.1723 8.15138 36.4176L7.10194 44.0072C6.97753 44.9068 7.74694 45.6762 8.64657 45.5519L16.9241 44.4074C17.1694 44.3734 17.4167 44.3565 17.6644 44.3565H30.3356C30.5832 44.3565 30.8305 44.3735 31.0759 44.4074L39.3534 45.5519C40.253 45.6761 41.0224 44.9067 40.898 44.0071Z" fill="#FB4753"/>
<path d="M39.8486 36.4175C39.8147 36.1723 39.7977 35.9249 39.7977 35.6773V17.0694C39.7977 16.8218 39.8147 16.5745 39.8486 16.3291L40.8981 8.7395C41.0225 7.83997 40.2531 7.07057 39.3534 7.19488L35.834 7.68153L35.2712 11.7517C35.2373 11.9969 35.2203 12.2443 35.2203 12.4919V31.0999C35.2203 31.3475 35.2373 31.5948 35.2712 31.8402L36.3205 39.4298C36.4449 40.3293 35.6755 41.0987 34.7759 40.9744L26.4984 39.8297C26.2532 39.7958 26.0059 39.7788 25.7582 39.7788H13.0869C12.8393 39.7788 12.592 39.7959 12.3467 39.8297L7.58869 40.4876L7.10203 44.007C6.97763 44.9066 7.74703 45.676 8.64666 45.5517L16.9242 44.4072C17.1695 44.3732 17.4168 44.3563 17.6645 44.3563H30.3356C30.5832 44.3563 30.8305 44.3732 31.0759 44.4072L39.3534 45.5517C40.253 45.6761 41.0224 44.9067 40.8981 44.007L39.8486 36.4175Z" fill="#E21F2D"/>
<path d="M18.7708 31.5413C22.1064 29.2393 26.228 27.6608 30.7587 27.0362C31.0368 26.9979 31.2618 26.7905 31.3254 26.517L33.436 17.4572C33.5439 16.9942 33.1562 16.5661 32.6847 16.6272C32.4655 16.6556 32.246 16.6862 32.0261 16.7191C24.8244 17.7992 18.6007 21.0749 14.191 25.5854C13.9558 25.826 13.9318 26.2026 14.1341 26.4714L17.838 31.3923C18.0583 31.6852 18.4694 31.7493 18.7708 31.5413Z" fill="#FDB143"/>
<path d="M32.6847 16.6274C32.5517 16.6447 32.4183 16.6644 32.285 16.6833L29.8401 27.1774C30.1444 27.1262 30.4505 27.0789 30.7586 27.0364C31.0367 26.9981 31.2617 26.7907 31.3253 26.5172L33.4359 17.4574C33.5439 16.9944 33.1562 16.5663 32.6847 16.6274Z" fill="#FA9801"/>
<path d="M20.8819 47.2415C22.9579 45.6961 23.0241 42.2714 21.0296 39.5921C19.0352 36.9128 15.7355 35.9936 13.6594 37.539C11.5834 39.0844 11.5172 42.5091 13.5116 45.1884C15.5061 47.8677 18.8058 48.7869 20.8819 47.2415Z" fill="#F9C301"/>
<path d="M15.3967 36.8398C16.4844 37.2971 17.5273 38.1014 18.3488 39.205C20.3434 41.885 20.277 45.3104 18.2004 46.8559C17.6857 47.239 17.0955 47.4702 16.4688 47.5611C18.0222 48.2143 19.6669 48.159 20.8882 47.2499C22.9647 45.7043 23.0311 42.279 21.0365 39.5991C19.5365 37.5835 17.2979 36.5641 15.3967 36.8398Z" fill="#E6B700"/>
<path d="M25.1488 24.061C24.8451 24.061 24.5621 23.8686 24.4611 23.5645C24.3351 23.1847 24.5407 22.7745 24.9206 22.6484C25.5672 22.4337 26.2244 22.2487 26.8741 22.0981C27.2639 22.0081 27.6532 22.2506 27.7436 22.6405C27.8339 23.0304 27.5911 23.4197 27.2012 23.5101C26.5951 23.6505 25.9815 23.8233 25.3774 24.0239C25.3015 24.0491 25.2246 24.061 25.1488 24.061Z" fill="#FB850A"/>
<path d="M18.0143 27.9633C17.8141 27.9633 17.615 27.8808 17.4717 27.7192C17.2063 27.4197 17.234 26.9617 17.5335 26.6963C17.6056 26.6324 19.3333 25.1151 22.2145 23.7405C22.5756 23.5681 23.0082 23.7212 23.1806 24.0825C23.3529 24.4437 23.1997 24.8761 22.8386 25.0486C20.1397 26.336 18.5107 27.7666 18.4946 27.7809C18.3567 27.9032 18.1852 27.9633 18.0143 27.9633Z" fill="#FB850A"/>
</g>
<defs>
<clipPath id="clip0_683_1899">
<rect width="48" height="48" fill="white"/>
</clipPath>
</defs>
</svg>
