<svg width="48" height="47" viewBox="0 0 48 47" fill="none" xmlns="http://www.w3.org/2000/svg">
<g clip-path="url(#clip0_476_289)">
<path d="M40.8236 4.75529V4.75457L32.9738 0.922567L32.9724 0.923286C32.8401 0.858705 32.6936 0.820801 32.5355 0.820801C32.0599 0.820801 31.6635 1.15134 31.5729 1.58984L29.1862 13.0851L31.1088 13.4662L33.2424 3.1952L39.9469 6.46807C40.0791 6.53194 40.2285 6.56912 40.3865 6.56912C40.9268 6.56912 41.3664 6.14041 41.3664 5.61128C41.3666 5.23664 41.1454 4.91248 40.8236 4.75529Z" fill="#424953"/>
<path d="M32.5356 11.3596H28.6159C28.613 11.3596 28.613 11.3596 28.6116 11.3596C28.0698 11.3596 27.6302 11.7883 27.6302 12.3181C27.6302 12.8465 28.0698 13.2759 28.6116 13.2759C28.613 13.2759 28.613 13.2759 28.6159 13.2759H32.5356C33.0759 13.2759 33.5156 12.8465 33.5156 12.3181C33.5156 11.7884 33.0759 11.3596 32.5356 11.3596Z" fill="#8AC054"/>
<path d="M6.0542 45.8509C6.0542 46.3786 6.49313 46.808 7.03487 46.808H28.6159C29.1562 46.808 29.5958 46.3786 29.5958 45.8509V13.2762C29.5958 12.7471 29.1562 12.3184 28.6159 12.3184H7.03478C6.49304 12.3184 6.05411 12.7471 6.05411 13.2762L6.0542 45.8509Z" fill="#8AC054"/>
<path opacity="0.1" d="M6.0542 13.276V13.7089L9.19734 17.7066C9.38053 17.9395 9.66285 18.0771 9.9632 18.0813C9.96752 18.0813 9.97184 18.0813 9.97543 18.0813C10.2715 18.0813 10.5517 17.9508 10.7384 17.7255L13.9261 13.8788C14.2666 13.4676 14.202 12.8641 13.781 12.5315C13.36 12.1982 12.7422 12.262 12.4009 12.6732L9.99557 15.5755L7.43426 12.3181H7.03478C6.49313 12.3181 6.0542 12.7469 6.0542 13.276Z" fill="black"/>
<path d="M11.9395 45.8509C11.9395 46.3786 12.3785 46.808 12.9202 46.808H36.4611C37.0042 46.808 37.444 46.3786 37.444 45.8509V13.2762C37.444 12.7471 37.0043 12.3184 36.4611 12.3184H12.9203C12.3786 12.3184 11.9396 12.7471 11.9396 13.2762V45.8509H11.9395Z" fill="#9ED36A"/>
<g opacity="0.2">
<path d="M36.4611 12.3184H34.5012C35.0415 12.3184 35.4812 12.7471 35.4812 13.2762V45.8509C35.4812 46.3786 35.0415 46.808 34.5012 46.808H36.4611C37.0042 46.808 37.444 46.3786 37.444 45.8509V13.2762C37.444 12.7471 37.0043 12.3184 36.4611 12.3184Z" fill="white"/>
</g>
<path d="M27.6417 21.9549C27.6417 21.4259 27.202 20.9971 26.6588 20.9971C26.4375 20.9971 26.2306 21.0707 26.0667 21.1936L26.0653 21.1929C25.7994 21.3908 23.4725 23.1892 23.716 25.3667L25.6672 25.1583C25.5609 24.2179 26.8111 23.051 27.2564 22.7162L27.255 22.7155C27.4894 22.5401 27.6417 22.2651 27.6417 21.9549Z" fill="#424953"/>
<path d="M24.6911 24.6213C20.0716 22.6375 16.9377 25.7538 16.9377 30.1661C16.9377 34.577 21.2016 38.4799 24.6911 36.9432C28.1804 38.4798 32.4437 34.577 32.4437 30.1661C32.4437 25.7539 29.3113 22.6375 24.6911 24.6213Z" fill="#EC5564"/>
<g opacity="0.2">
<path d="M26.3959 24.1012C28.9291 24.5953 30.4838 27.0589 30.4838 30.166C30.4838 33.5006 28.0454 36.5446 25.3483 37.1663C28.6934 37.9929 32.4436 34.3034 32.4436 30.166C32.4437 26.3221 30.0643 23.4613 26.3959 24.1012Z" fill="white"/>
</g>
</g>
<defs>
<clipPath id="clip0_476_289">
<rect width="47.0842" height="45.988" fill="white" transform="translate(0.168304 0.820312)"/>
</clipPath>
</defs>
</svg>
