<svg width="40" height="40" viewBox="0 0 40 40" fill="none" xmlns="http://www.w3.org/2000/svg">
<g clip-path="url(#clip0_683_1918)">
<path d="M29.6503 35.862H7.59102C5.59172 35.8606 3.8793 34.431 3.52204 32.4641L1.3793 20.6897H35.862L33.7241 32.4641C33.3662 34.4324 31.651 35.8634 29.6503 35.862Z" fill="#BF7341"/>
<path d="M8.56 35.8621H29.6503C31.6496 35.8607 33.362 34.4311 33.7193 32.4642L35.862 20.6897H31.3213C25.3103 29.3649 14.8145 33.8498 8.56 35.8621Z" fill="#B56D3E"/>
<path d="M15.1724 17.931H6.89658V4.13797C6.89658 1.85242 8.749 0 11.0345 0C13.32 0 15.1724 1.85242 15.1724 4.13797V17.931Z" fill="#C96E23"/>
<path d="M10.085 11.5727L13.5332 8.8147L12.6717 7.7376L9.22347 10.4957L10.085 11.5727Z" fill="#B5611D"/>
<path d="M33.7931 17.9311H25.5173V16.5518C25.5173 14.2662 27.3697 12.4138 29.6552 12.4138C31.9408 12.4138 33.7932 14.2662 33.7932 16.5518V17.9311H33.7931Z" fill="#C96E23"/>
<path d="M28.9655 14.4827H27.5862V15.862H28.9655V14.4827Z" fill="#B5611D"/>
<path d="M32.4138 15.1724H31.0345V16.5517H32.4138V15.1724Z" fill="#B5611D"/>
<path d="M28.4952 17.931H19.5297L26.7586 2.27586C27.3966 0.889688 28.782 0.00140625 30.3076 0H30.571C31.4593 0 32.3213 0.302031 33.0145 0.857266C34.4124 1.97523 34.8724 3.9 34.1317 5.52969L28.4952 17.931Z" fill="#D68033"/>
<path d="M27.3073 6.87094L32.1348 5.49072L31.7556 4.16445L26.9281 5.54467L27.3073 6.87094Z" fill="#C96E23"/>
<path d="M26.5373 11.4304L26.1207 10.1152L29.6662 8.99731L30.0827 10.3132L26.5373 11.4304Z" fill="#C96E23"/>
<path d="M22.966 16.5192L27.3233 15.1404L26.9072 13.8254L22.5499 15.2042L22.966 16.5192Z" fill="#C96E23"/>
<path d="M1.3793 17.9309H35.862C36.6241 17.9309 37.2413 18.5482 37.2413 19.3102C37.2413 20.0722 36.6241 20.6895 35.862 20.6895H1.3793C0.617266 20.6896 0 20.0723 0 19.3102C0 18.5482 0.617266 17.9309 1.3793 17.9309Z" fill="#BF7341"/>
<path d="M32.4138 17.931V16.5517C32.4138 8.93375 26.2387 2.75859 18.6207 2.75859C11.0027 2.75859 4.82756 8.93375 4.82756 16.5517V17.931H2.06897V16.5517C2.06897 7.41031 9.47928 0 18.6207 0C27.7621 0 35.1724 7.41031 35.1724 16.5517V17.931H32.4138Z" fill="#965735"/>
<path d="M25.5173 17.9309C25.327 11.0165 22.3166 5.51709 18.6207 5.51709C14.9249 5.51709 11.9145 11.0164 11.7242 17.9309H25.5173Z" fill="#F09E3E"/>
<path d="M18.762 13.9757L15.1723 15.1723C15.173 13.524 16.2289 12.0613 17.793 11.5413L21.3792 10.3447C21.3793 11.9923 20.3248 13.455 18.762 13.9757Z" fill="#D68033"/>
<path d="M24.889 13.1201C22.9787 15.1781 20.6614 16.8167 18.0841 17.9311H25.5173C25.478 16.3098 25.2676 14.6974 24.889 13.1201Z" fill="#EB9634"/>
<path d="M31.0345 23.4482H26.8966V24.8275H31.0345V23.4482Z" fill="#965735"/>
<path d="M24.138 23.4482H20V24.8275H24.138V23.4482Z" fill="#965735"/>
<path d="M17.2414 23.4482H13.1035V24.8275H17.2414V23.4482Z" fill="#965735"/>
<path d="M10.3448 23.4482H6.20688V24.8275H10.3448V23.4482Z" fill="#965735"/>
<path d="M10.3448 27.5862H6.20688V28.9655H10.3448V27.5862Z" fill="#965735"/>
<path d="M10.3448 31.7241H6.20688V33.1034H10.3448V31.7241Z" fill="#965735"/>
<path d="M11.7241 17.9311H3.44827V16.5518C3.44827 14.2662 5.30069 12.4138 7.58624 12.4138C9.87179 12.4138 11.7242 14.2662 11.7242 16.5518V17.9311H11.7241Z" fill="#D68033"/>
<path d="M11.7241 16.5518C11.7248 15.3304 11.1848 14.1718 10.249 13.387C9.31656 15.3435 7.76758 16.9401 5.83929 17.9311H11.7241V16.5518Z" fill="#D97A27"/>
<path d="M6.89657 14.4827H5.51727V15.862H6.89657V14.4827Z" fill="#C96E23"/>
<path d="M9.65518 15.1724H8.27588V16.5517H9.65518V15.1724Z" fill="#C96E23"/>
<path d="M35.1724 21.3793H3.44829C3.06759 21.3793 2.75861 21.0703 2.75861 20.6896C2.75861 20.3089 3.06759 20 3.44829 20H35.1724C35.5531 20 35.8621 20.309 35.8621 20.6897C35.8621 21.0704 35.5531 21.3793 35.1724 21.3793Z" fill="#965735"/>
<path d="M40 29.6552C40 30.7979 39.0738 31.7242 37.931 31.7242V38.6207C37.931 39.3827 37.3138 40 36.5517 40H15.862C15.1 40 14.4827 39.3827 14.4827 38.6207V31.7242C13.34 31.7242 12.4138 30.798 12.4138 29.6552C12.4138 28.5124 13.3399 27.5862 14.4827 27.5862H37.931C39.0738 27.5862 40 28.5124 40 29.6552Z" fill="#F09E3E"/>
<path d="M35.4317 31.7241C35.42 31.7372 35.4062 31.7483 35.3945 31.7614C33.4952 35.7614 30.0841 38.3965 27.1827 40H36.5517C37.3138 40 37.931 39.3827 37.931 38.6207V31.7241H35.4317Z" fill="#F09235"/>
<path d="M27.5862 29.6552C27.5862 30.7979 26.66 31.7242 25.5172 31.7242V38.6207C25.5172 39.3827 24.8999 40 24.1379 40H15.862C15.1 40 14.4827 39.3827 14.4827 38.6207V31.7242C13.34 31.7242 12.4138 30.798 12.4138 29.6552C12.4138 28.5124 13.3399 27.5862 14.4827 27.5862H25.5172C26.66 27.5862 27.5862 28.5124 27.5862 29.6552Z" fill="#F0DBC2"/>
<path d="M35.1724 29.6553H33.7931V31.0346H35.1724V29.6553Z" fill="#D68033"/>
<path d="M31.7241 31.7244H30.3448V33.1037H31.7241V31.7244Z" fill="#D68033"/>
<path d="M35.8621 35.1726H34.4828V36.5519H35.8621V35.1726Z" fill="#D68033"/>
<path d="M28.9655 36.5518H27.5862V37.9311H28.9655V36.5518Z" fill="#D68033"/>
</g>
<defs>
<clipPath id="clip0_683_1918">
<rect width="40" height="40" fill="white"/>
</clipPath>
</defs>
</svg>
