<svg width="49" height="48" viewBox="0 0 49 48" fill="none" xmlns="http://www.w3.org/2000/svg">
<g clip-path="url(#clip0_476_263)">
<path d="M33.0488 45.4247C33.2505 46.7053 32.3428 47.7888 31.0317 47.7888H18.5261C17.215 47.7888 16.2065 46.6067 16.5091 45.4247L17.0133 41.4845C17.215 39.9085 17.215 38.3324 16.9124 36.7564C16.3073 33.1118 16.0048 29.3686 16.0048 25.7239C16.0048 22.1779 16.3073 18.6317 16.9124 15.0856C17.0133 14.593 17.1141 14.002 17.215 13.5095L21.0473 3.65918H28.4095L32.2419 13.5095C32.3427 14.0021 32.4436 14.5931 32.5445 15.0856C33.1495 18.6317 33.4521 22.1779 33.4521 25.7239C33.4521 29.3686 33.1495 33.1117 32.5445 36.7564C32.3427 38.2339 32.3427 39.81 32.5445 41.386L33.0488 45.4247Z" fill="#F2F2F2"/>
<path d="M18.5261 46.3112C18.3243 46.3112 18.2235 46.2127 18.1226 46.1142C18.0218 46.0157 18.0218 45.9172 18.0218 45.7201L18.526 41.6815C18.7277 39.9084 18.7277 38.1354 18.4251 36.4607C17.114 28.9745 17.2149 21.3898 18.7277 13.8049L22.1567 5.03809H27.3001L30.6283 13.8049C32.141 21.2911 32.2418 28.9744 30.9308 36.4607C30.6283 38.1353 30.6283 39.8099 30.83 41.6815L31.3342 45.6216C31.3342 45.9172 31.3342 46.0157 31.2333 46.1142C31.3342 46.1142 31.2333 46.3112 31.0316 46.3112H18.5261Z" fill="#40596B"/>
<path d="M33.4521 25.6254H16.1057C16.1057 22.0793 16.4083 18.5332 17.0134 14.9871H32.5445C33.1495 18.5332 33.4521 22.0793 33.4521 25.6254Z" fill="#FF7058"/>
<path d="M24.7789 23.3599C27.341 23.3599 29.418 21.9928 29.418 20.3063C29.418 18.6198 27.341 17.2527 24.7789 17.2527C22.2168 17.2527 20.1398 18.6198 20.1398 20.3063C20.1398 21.9928 22.2168 23.3599 24.7789 23.3599Z" fill="#F2F2F2"/>
<path d="M29.1155 1.19658C29.0147 0.802619 28.6112 0.50708 28.2078 0.50708H21.1482C20.7447 0.50708 20.3414 0.802619 20.2405 1.19658L19.4337 3.5607H29.7206L29.1155 1.19658Z" fill="#FFD15C"/>
</g>
<defs>
<clipPath id="clip0_476_263">
<rect width="48.4087" height="47.2817" fill="white" transform="translate(0.524139 0.50708)"/>
</clipPath>
</defs>
</svg>
