<svg width="20" height="26" viewBox="0 0 20 26" fill="none" xmlns="http://www.w3.org/2000/svg">
<path d="M17.5 0.5C18.163 0.5 18.7989 0.763392 19.2678 1.23223C19.7366 1.70107 20 2.33696 20 3V23C20 23.663 19.7366 24.2989 19.2678 24.7678C18.7989 25.2366 18.163 25.5 17.5 25.5H2.5C1.83696 25.5 1.20107 25.2366 0.732233 24.7678C0.263392 24.2989 0 23.663 0 23V3C0 2.33696 0.263392 1.70107 0.732233 1.23223C1.20107 0.763392 1.83696 0.5 2.5 0.5H17.5ZM10 14.25H6.25C5.91848 14.25 5.60054 14.3817 5.36612 14.6161C5.1317 14.8505 5 15.1685 5 15.5C5 15.8315 5.1317 16.1495 5.36612 16.3839C5.60054 16.6183 5.91848 16.75 6.25 16.75H10C10.3315 16.75 10.6495 16.6183 10.8839 16.3839C11.1183 16.1495 11.25 15.8315 11.25 15.5C11.25 15.1685 11.1183 14.8505 10.8839 14.6161C10.6495 14.3817 10.3315 14.25 10 14.25ZM13.75 8H6.25C5.9314 8.00035 5.62496 8.12235 5.39329 8.34106C5.16162 8.55977 5.02221 8.85869 5.00353 9.17674C4.98486 9.4948 5.08834 9.80797 5.29283 10.0523C5.49732 10.2966 5.78738 10.4536 6.10375 10.4913L6.25 10.5H13.75C14.0686 10.4996 14.375 10.3777 14.6067 10.1589C14.8384 9.94023 14.9778 9.64131 14.9965 9.32326C15.0151 9.0052 14.9117 8.69203 14.7072 8.44771C14.5027 8.20339 14.2126 8.04638 13.8962 8.00875L13.75 8Z" fill="#BBC2CD"/>
</svg>
