<svg width="28" height="28" viewBox="0 0 28 28" fill="none" xmlns="http://www.w3.org/2000/svg">
<path d="M2.63376 7.43751C6.25876 1.16001 14.285 -0.991244 20.5625 2.63376C23.05 4.06929 24.998 6.28112 26.1077 8.93007C27.2175 11.579 27.4277 14.5188 26.7063 17.2988C26.3088 18.83 24.4438 19.2613 23.3838 18.2313L23.265 18.1063L20.4513 14.8725C19.1975 13.4325 20.4813 11.26 22.2988 11.5875L22.465 11.625L23.1125 11.7925C22.6245 9.78101 21.4845 7.98757 19.8703 6.69189C18.2562 5.39622 16.2586 4.67116 14.1891 4.6298C12.1197 4.58845 10.0947 5.23311 8.4301 6.46326C6.76546 7.69341 5.55472 9.43987 4.98672 11.4303C4.41871 13.4207 4.52538 15.5431 5.29008 17.4665C6.05478 19.3899 7.43452 21.0062 9.21411 22.0632C10.9937 23.1203 13.0731 23.5587 15.1279 23.3101C17.1828 23.0614 19.0976 22.1397 20.5738 20.6888C20.7493 20.5161 20.9572 20.3796 21.1855 20.2873C21.4137 20.1949 21.658 20.1484 21.9042 20.1505C22.1505 20.1525 22.3939 20.203 22.6206 20.2991C22.8474 20.3952 23.0529 20.5351 23.2256 20.7106C23.3983 20.8862 23.5347 21.094 23.6271 21.3223C23.7195 21.5506 23.7659 21.7948 23.7639 22.0411C23.7619 22.2873 23.7114 22.5308 23.6153 22.7575C23.5191 22.9842 23.3793 23.1898 23.2038 23.3625C19.1025 27.3975 12.6663 28.385 7.43751 25.3663C1.16001 21.7413 -0.991244 13.7163 2.63376 7.43751ZM14 5.87501C14.4659 5.875 14.9151 6.04845 15.2601 6.36157C15.6051 6.67468 15.8212 7.10503 15.8663 7.56876L15.875 7.75001V13.2238L18.45 15.7988C18.7914 16.1383 18.9891 16.5961 19.0022 17.0774C19.0152 17.5587 18.8426 18.0266 18.5201 18.3841C18.1976 18.7416 17.75 18.9614 17.2699 18.9979C16.7898 19.0343 16.3141 18.8847 15.9413 18.58L15.7988 18.4513L12.6738 15.3263C12.3672 15.0197 12.1764 14.6164 12.1338 14.185L12.125 14V7.75001C12.125 7.25273 12.3225 6.77581 12.6742 6.42418C13.0258 6.07255 13.5027 5.87501 14 5.87501Z" fill="#BBC2CD"/>
</svg>
