<svg width="20" height="26" viewBox="0 0 20 26" fill="none" xmlns="http://www.w3.org/2000/svg">
<path d="M17.1938 15.5C17.9392 15.5006 18.654 15.7972 19.1809 16.3246C19.7078 16.852 20.0038 17.567 20.0038 18.3125V19.46C20.0037 20.1762 19.78 20.8746 19.3638 21.4575C17.4313 24.1625 14.2763 25.5012 10.0013 25.5012C5.72376 25.5012 2.57 24.1612 0.642505 21.4562C0.227662 20.8737 0.00481632 20.1763 0.005005 19.4612V18.3112C0.00533626 17.5657 0.301627 16.8509 0.828767 16.3237C1.35591 15.7966 2.07077 15.5003 2.81625 15.5H17.1938ZM10 0.506226C10.8208 0.506226 11.6335 0.667886 12.3918 0.981978C13.1501 1.29607 13.8391 1.75644 14.4194 2.33681C14.9998 2.91717 15.4602 3.60617 15.7743 4.36445C16.0883 5.12274 16.25 5.93546 16.25 6.75623C16.25 7.57699 16.0883 8.38971 15.7743 9.148C15.4602 9.90628 14.9998 10.5953 14.4194 11.1756C13.8391 11.756 13.1501 12.2164 12.3918 12.5305C11.6335 12.8446 10.8208 13.0062 10 13.0062C8.3424 13.0062 6.75269 12.3477 5.58059 11.1756C4.40848 10.0035 3.75 8.41383 3.75 6.75623C3.75 5.09862 4.40848 3.50891 5.58059 2.33681C6.75269 1.16471 8.3424 0.506226 10 0.506226Z" fill="#BBC2CD"/>
</svg>
