<svg width="27" height="23" viewBox="0 0 27 23" fill="none" xmlns="http://www.w3.org/2000/svg">
<path d="M26.0755 1.51697V6.52999C26.0755 6.92885 25.9171 7.31137 25.635 7.59341C25.353 7.87545 24.9705 8.03389 24.5716 8.03389C24.1728 8.03389 23.7902 7.87545 23.5082 7.59341C23.2262 7.31137 23.0677 6.92885 23.0677 6.52999V3.02087H19.5586C19.1597 3.02087 18.7772 2.86243 18.4952 2.58039C18.2131 2.29835 18.0547 1.91583 18.0547 1.51697C18.0547 1.11811 18.2131 0.735582 18.4952 0.453545C18.7772 0.171508 19.1597 0.0130615 19.5586 0.0130615H24.5716C24.9705 0.0130615 25.353 0.171508 25.635 0.453545C25.9171 0.735582 26.0755 1.11811 26.0755 1.51697ZM6.52474 19.0625H3.01563V15.5534C3.01563 15.1546 2.85718 14.772 2.57514 14.49C2.2931 14.208 1.91058 14.0495 1.51172 14.0495C1.11286 14.0495 0.730334 14.208 0.448297 14.49C0.166259 14.772 0.0078125 15.1546 0.0078125 15.5534V20.5664C0.0078125 20.9653 0.166259 21.3478 0.448297 21.6299C0.730334 21.9119 1.11286 22.0704 1.51172 22.0704H6.52474C6.9236 22.0704 7.30613 21.9119 7.58816 21.6299C7.8702 21.3478 8.02865 20.9653 8.02865 20.5664C8.02865 20.1676 7.8702 19.7851 7.58816 19.503C7.30613 19.221 6.9236 19.0625 6.52474 19.0625ZM24.5716 14.0495C24.1728 14.0495 23.7902 14.208 23.5082 14.49C23.2262 14.772 23.0677 15.1546 23.0677 15.5534V19.0625H19.5586C19.1597 19.0625 18.7772 19.221 18.4952 19.503C18.2131 19.7851 18.0547 20.1676 18.0547 20.5664C18.0547 20.9653 18.2131 21.3478 18.4952 21.6299C18.7772 21.9119 19.1597 22.0704 19.5586 22.0704H24.5716C24.9705 22.0704 25.353 21.9119 25.635 21.6299C25.9171 21.3478 26.0755 20.9653 26.0755 20.5664V15.5534C26.0755 15.1546 25.9171 14.772 25.635 14.49C25.353 14.208 24.9705 14.0495 24.5716 14.0495ZM1.51172 8.03389C1.91058 8.03389 2.2931 7.87545 2.57514 7.59341C2.85718 7.31137 3.01563 6.92885 3.01563 6.52999V3.02087H6.52474C6.9236 3.02087 7.30613 2.86243 7.58816 2.58039C7.8702 2.29835 8.02865 1.91583 8.02865 1.51697C8.02865 1.11811 7.8702 0.735582 7.58816 0.453545C7.30613 0.171508 6.9236 0.0130615 6.52474 0.0130615H1.51172C1.11286 0.0130615 0.730334 0.171508 0.448297 0.453545C0.166259 0.735582 0.0078125 1.11811 0.0078125 1.51697V6.52999C0.0078125 6.92885 0.166259 7.31137 0.448297 7.59341C0.730334 7.87545 1.11286 8.03389 1.51172 8.03389ZM8.02865 5.02608C7.62979 5.02608 7.24726 5.18453 6.96522 5.46657C6.68319 5.7486 6.52474 6.13113 6.52474 6.52999V15.5534C6.52474 15.9523 6.68319 16.3348 6.96522 16.6168C7.24726 16.8989 7.62979 17.0573 8.02865 17.0573C8.42751 17.0573 8.81003 16.8989 9.09207 16.6168C9.37411 16.3348 9.53255 15.9523 9.53255 15.5534V6.52999C9.53255 6.13113 9.37411 5.7486 9.09207 5.46657C8.81003 5.18453 8.42751 5.02608 8.02865 5.02608ZM19.5586 15.5534V6.52999C19.5586 6.13113 19.4001 5.7486 19.1181 5.46657C18.8361 5.18453 18.4536 5.02608 18.0547 5.02608C17.6558 5.02608 17.2733 5.18453 16.9913 5.46657C16.7092 5.7486 16.5508 6.13113 16.5508 6.52999V15.5534C16.5508 15.9523 16.7092 16.3348 16.9913 16.6168C17.2733 16.8989 17.6558 17.0573 18.0547 17.0573C18.4536 17.0573 18.8361 16.8989 19.1181 16.6168C19.4001 16.3348 19.5586 15.9523 19.5586 15.5534ZM13.0417 5.02608C12.6428 5.02608 12.2603 5.18453 11.9782 5.46657C11.6962 5.7486 11.5378 6.13113 11.5378 6.52999V15.5534C11.5378 15.9523 11.6962 16.3348 11.9782 16.6168C12.2603 16.8989 12.6428 17.0573 13.0417 17.0573C13.4405 17.0573 13.8231 16.8989 14.1051 16.6168C14.3871 16.3348 14.5456 15.9523 14.5456 15.5534V6.52999C14.5456 6.13113 14.3871 5.7486 14.1051 5.46657C13.8231 5.18453 13.4405 5.02608 13.0417 5.02608Z" fill="white"/>
</svg>
