<svg width="41" height="40" viewBox="0 0 41 40" fill="none" xmlns="http://www.w3.org/2000/svg">
<path d="M30.7501 4.40166C30.7501 4.83314 30.3922 5.18291 29.9493 5.18291H11.0519C10.6096 5.18291 10.2511 4.83322 10.2511 4.40166V0.781738C10.2511 0.350801 10.6096 0.000488281 11.0519 0.000488281H29.9493C30.3922 0.000488281 30.7501 0.350801 30.7501 0.781738V4.40166Z" fill="#4FC0E8"/>
<path d="M30.7501 3.33423L34.1659 10.8341V39.2185C34.1659 39.6506 33.808 39.9998 33.3651 39.9998H14.4683C14.026 39.9998 13.6675 39.6506 13.6675 39.2185V10.8341L10.2511 3.33423H30.7501Z" fill="#3BAED9"/>
<path d="M13.6675 0.834238C14.1392 0.834238 14.5215 0.460723 14.5215 0.000488281H12.8136C12.8136 0.460723 13.1958 0.834238 13.6675 0.834238Z" fill="#3BAED9"/>
<path d="M17.0839 0.834238C17.5556 0.834238 17.9384 0.460723 17.9384 0.000488281H16.23C16.23 0.460723 16.6122 0.834238 17.0839 0.834238Z" fill="#3BAED9"/>
<path d="M20.501 0.834238C20.9727 0.834238 21.3549 0.460723 21.3549 0.000488281H19.6464C19.6464 0.460723 20.0292 0.834238 20.501 0.834238Z" fill="#3BAED9"/>
<path d="M23.9161 0.834238C24.389 0.834238 24.7719 0.460723 24.7719 0.000488281H23.0627C23.0627 0.460723 23.4456 0.834238 23.9161 0.834238Z" fill="#3BAED9"/>
<path d="M27.3344 0.834238C27.8048 0.834238 28.1877 0.460723 28.1877 0.000488281H26.4785C26.4785 0.460723 26.8614 0.834238 27.3344 0.834238Z" fill="#3BAED9"/>
<path d="M10.2511 3.33423L6.83411 10.8341V39.2185C6.83411 39.6506 7.19262 39.9998 7.63489 39.9998H26.5336C26.9741 39.9998 27.3344 39.6506 27.3344 39.2185V10.8341L30.7501 3.33423H10.2511Z" fill="#4FC0E8"/>
<path opacity="0.1" d="M10.2511 3.33423L6.83411 10.8341H27.3344L30.7501 3.33423H10.2511Z" fill="black"/>
<path d="M21.3549 7.50104C21.3549 8.88166 20.2075 10.001 18.7924 10.001C17.3773 10.001 16.23 8.88166 16.23 7.50104C16.23 6.11979 17.3773 5.00049 18.7924 5.00049C20.2075 5.00041 21.3549 6.11979 21.3549 7.50104Z" fill="#E5E8EC"/>
<path d="M18.7924 10.001C19.0871 10.001 19.3699 9.95161 19.6339 9.86185C19.5657 9.46817 19.2153 9.16724 18.7924 9.16724C18.3689 9.16724 18.0185 9.46817 17.951 9.86185C18.2143 9.95153 18.4977 10.001 18.7924 10.001Z" fill="#CBD0D8"/>
<path d="M18.7924 5.00024C18.4977 5.00024 18.2143 5.0497 17.951 5.13938C18.0185 5.53306 18.3689 5.83399 18.7924 5.83399C19.2153 5.83399 19.5657 5.53306 19.6339 5.13938C19.3699 5.0497 19.087 5.00024 18.7924 5.00024Z" fill="#CBD0D8"/>
<path d="M21.0114 8.75102C21.1591 8.50141 21.2566 8.23774 21.3093 7.9704C20.9258 7.83063 20.4835 7.97649 20.272 8.33415C20.06 8.69181 20.1519 9.13798 20.4678 9.39243C20.6786 9.21423 20.8638 9.00001 21.0114 8.75102Z" fill="#CBD0D8"/>
<path d="M16.5734 6.25029C16.4258 6.4999 16.3282 6.76357 16.2756 7.03092C16.6591 7.17068 17.1014 7.02482 17.3129 6.66717C17.5243 6.30951 17.4329 5.86334 17.1171 5.60889C16.9056 5.78709 16.7205 6.00123 16.5734 6.25029Z" fill="#CBD0D8"/>
<path d="M21.0114 6.25029C20.8638 6.00123 20.6793 5.78709 20.4678 5.60889C20.1519 5.86342 20.0599 6.30951 20.272 6.66717C20.4835 7.02482 20.9258 7.17068 21.3093 7.03092C21.2566 6.76357 21.159 6.4999 21.0114 6.25029Z" fill="#CBD0D8"/>
<path d="M16.5734 8.75102C16.7205 9.00009 16.9056 9.21423 17.1171 9.39243C17.4329 9.1379 17.5243 8.69181 17.3129 8.33415C17.1014 7.97649 16.6591 7.83063 16.2756 7.9704C16.3282 8.23766 16.4258 8.50134 16.5734 8.75102Z" fill="#CBD0D8"/>
<path opacity="0.1" d="M30.7501 3.33423L27.3344 10.8341H34.1659L30.7501 3.33423Z" fill="black"/>
<path d="M27.3345 18.3998C27.0642 18.4359 26.8115 18.4859 26.5913 18.5512L24.5142 19.1641C24.0238 19.3087 23.3781 19.3813 22.73 19.3813C22.0844 19.3813 21.4363 19.3087 20.9452 19.1641L18.8707 18.5512C18.3796 18.4066 17.7327 18.334 17.0853 18.334C16.4384 18.334 15.7916 18.4066 15.3004 18.5512L13.2254 19.1641C12.7349 19.3087 12.0874 19.3813 11.4405 19.3813C10.7936 19.3813 10.1461 19.3087 9.65565 19.1641L7.58059 18.5512C7.35909 18.4859 7.10508 18.4353 6.83426 18.3993V30.5115C6.89248 30.5237 6.94309 30.5371 6.98569 30.5493L9.06019 31.1621C9.90846 31.4112 10.8231 31.4648 11.4406 31.4648C12.0581 31.4648 12.9727 31.4111 13.821 31.1621L15.8955 30.5493C16.1113 30.4859 16.5374 30.4175 17.0854 30.4175C17.634 30.4175 18.06 30.4859 18.2758 30.5493L20.3503 31.1621C21.1987 31.4112 22.112 31.4648 22.7301 31.4648C23.3482 31.4648 24.2616 31.4111 25.1099 31.1621L27.1844 30.5493C27.227 30.5371 27.277 30.5249 27.3346 30.5127V18.3998H27.3345Z" fill="#E5E8EC"/>
<path d="M22.2094 24.1675H11.959C11.4873 24.1675 11.1051 24.541 11.1051 24.9999C11.1051 25.4613 11.4873 25.8337 11.959 25.8337H22.2094C22.6799 25.8337 23.0627 25.4613 23.0627 24.9999C23.0627 24.541 22.6799 24.1675 22.2094 24.1675Z" fill="#4FC0E8"/>
</svg>
