<svg width="47" height="46" viewBox="0 0 47 46" fill="none" xmlns="http://www.w3.org/2000/svg">
<g clip-path="url(#clip0_683_1977)">
<path d="M31.1482 42.883C31.3414 44.1055 30.4721 45.14 29.2165 45.14H17.2401C15.9845 45.14 15.0187 44.0115 15.3084 42.883L15.7913 39.1213C15.9845 37.6167 15.9845 36.1119 15.6947 34.6073C15.1152 31.1278 14.8255 27.5542 14.8255 24.0746C14.8255 20.6891 15.1152 17.3036 15.6947 13.9181C15.7913 13.4478 15.8879 12.8836 15.9845 12.4135L19.6546 3.00928H26.7053L30.3754 12.4135C30.472 12.8837 30.5686 13.4479 30.6652 13.9181C31.2447 17.3036 31.5344 20.6891 31.5344 24.0746C31.5344 27.5541 31.2447 31.1277 30.6652 34.6073C30.472 36.0179 30.472 37.5226 30.6652 39.0272L31.1482 42.883Z" fill="#F2F2F2"/>
<path d="M17.2401 43.7293C17.0469 43.7293 16.9503 43.6352 16.8537 43.5412C16.7571 43.4471 16.7571 43.3531 16.7571 43.165L17.24 39.3093C17.4332 37.6165 17.4332 35.9238 17.1434 34.325C15.8878 27.1779 15.9844 19.9367 17.4332 12.6954L20.7171 4.32568H25.6428L28.8301 12.6954C30.2788 19.8425 30.3754 27.1778 29.1199 34.325C28.8301 35.9237 28.8301 37.5225 29.0233 39.3093L29.5062 43.0709C29.5062 43.3531 29.5062 43.4471 29.4096 43.5412C29.5062 43.5412 29.4096 43.7293 29.2164 43.7293H17.2401Z" fill="#40596B"/>
<path d="M31.5344 23.9807H14.9221C14.9221 20.5952 15.2119 17.2097 15.7914 13.8242H30.6652C31.2447 17.2097 31.5344 20.5952 31.5344 23.9807Z" fill="#FF7058"/>
<path d="M23.2283 21.8177C25.682 21.8177 27.6711 20.5124 27.6711 18.9024C27.6711 17.2923 25.682 15.9871 23.2283 15.9871C20.7746 15.9871 18.7855 17.2923 18.7855 18.9024C18.7855 20.5124 20.7746 21.8177 23.2283 21.8177Z" fill="#F2F2F2"/>
<path d="M27.3814 0.658266C27.2848 0.282153 26.8985 0 26.5121 0H19.7512C19.3649 0 18.9786 0.282153 18.882 0.658266L18.1093 2.91531H27.9609L27.3814 0.658266Z" fill="#FFD15C"/>
</g>
<defs>
<clipPath id="clip0_683_1977">
<rect width="46.36" height="45.14" fill="white"/>
</clipPath>
</defs>
</svg>
