<svg width="58" height="59" viewBox="0 0 58 59" fill="none" xmlns="http://www.w3.org/2000/svg">
<path d="M13.2357 18.3904L15.4414 34.3288H41.5732L43.7789 18.3904H13.2357Z" fill="#FFC107"/>
<path d="M46.3244 18.3905V15.3254C46.3244 14.8376 46.1367 14.3699 45.8025 14.025C45.4684 13.6801 45.0152 13.4863 44.5427 13.4863H12.4719C11.9994 13.4863 11.5462 13.6801 11.2121 14.025C10.8779 14.3699 10.6902 14.8376 10.6902 15.3254V18.3905H46.3244Z" fill="#795548"/>
<path d="M15.6113 35.5549L17.8171 51.4933H39.1975L41.4033 35.5549H15.6113Z" fill="#77574F"/>
<path d="M22.5683 34.3289C22.5683 35.1339 22.7219 35.9311 23.0203 36.6748C23.3188 37.4185 23.7563 38.0943 24.3078 38.6636C24.8593 39.2328 25.514 39.6843 26.2345 39.9924C26.9551 40.3005 27.7274 40.459 28.5073 40.459C29.2872 40.459 30.0595 40.3005 30.7801 39.9924C31.5006 39.6843 32.1553 39.2328 32.7068 38.6636C33.2583 38.0943 33.6958 37.4185 33.9942 36.6748C34.2927 35.9311 34.4463 35.1339 34.4463 34.3289C34.4463 33.5239 34.2927 32.7267 33.9942 31.983C33.6958 31.2392 33.2583 30.5635 32.7068 29.9942C32.1553 29.425 31.5006 28.9734 30.7801 28.6654C30.0595 28.3573 29.2872 28.1987 28.5073 28.1987C27.7274 28.1987 26.9551 28.3573 26.2345 28.6654C25.514 28.9734 24.8593 29.425 24.3078 29.9942C23.7563 30.5635 23.3188 31.2392 23.0203 31.983C22.7219 32.7267 22.5683 33.5239 22.5683 34.3289Z" fill="#77574F"/>
<path d="M23.7561 34.3289C23.7561 33.4314 24.0067 32.6014 24.4153 31.8768H15.1029L15.951 38.007H25.3952C24.8825 37.551 24.4708 36.9866 24.188 36.352C23.9052 35.7174 23.7579 35.0274 23.7561 34.3289ZM32.5993 31.8768C33.0079 32.6014 33.2585 33.4314 33.2585 34.3289C33.2567 35.0274 33.1094 35.7174 32.8266 36.352C32.5438 36.9866 32.132 37.551 31.6193 38.007H41.0636L41.9117 31.8768H32.5993ZM42.761 7.3562H14.2536L13.0658 13.4864H43.9488L42.761 7.3562Z" fill="#4E342E"/>
<path d="M28.5073 25.7465C30.7125 25.7465 32.8273 26.6507 34.3866 28.2602C35.9459 29.8697 36.8219 32.0526 36.8219 34.3288C36.8219 36.6049 35.9459 38.7878 34.3866 40.3973C32.8273 42.0068 30.7125 42.911 28.5073 42.911C26.3021 42.911 24.1873 42.0068 22.628 40.3973C21.0687 38.7878 20.1927 36.6049 20.1927 34.3288C20.1927 32.0526 21.0687 29.8697 22.628 28.2602C24.1873 26.6507 26.3021 25.7465 28.5073 25.7465ZM28.5073 24.5205C23.2679 24.5205 19.0049 28.9207 19.0049 34.3288C19.0049 39.7368 23.2679 44.137 28.5073 44.137C33.7467 44.137 38.0097 39.7368 38.0097 34.3288C38.0097 28.9207 33.7467 24.5205 28.5073 24.5205Z" fill="#5D4037"/>
<path d="M28.5073 25.7466C26.3021 25.7466 24.1873 26.6508 22.628 28.2603C21.0687 29.8697 20.1927 32.0527 20.1927 34.3288C20.1927 36.6049 21.0687 38.7879 22.628 40.3973C24.1873 42.0068 26.3021 42.911 28.5073 42.911C30.7125 42.911 32.8273 42.0068 34.3866 40.3973C35.9459 38.7879 36.8219 36.6049 36.8219 34.3288C36.8219 32.0527 35.9459 29.8697 34.3866 28.2603C32.8273 26.6508 30.7125 25.7466 28.5073 25.7466ZM28.5073 39.2329C27.2472 39.2329 26.0387 38.7162 25.1477 37.7965C24.2566 36.8768 23.7561 35.6295 23.7561 34.3288C23.7561 33.0281 24.2566 31.7808 25.1477 30.8611C26.0387 29.9414 27.2472 29.4247 28.5073 29.4247C29.7674 29.4247 30.9759 29.9414 31.8669 30.8611C32.7579 31.7808 33.2585 33.0281 33.2585 34.3288C33.2585 35.6295 32.7579 36.8768 31.8669 37.7965C30.9759 38.7162 29.7674 39.2329 28.5073 39.2329Z" fill="#FFF3E0"/>
</svg>
