<svg width="54" height="52" viewBox="0 0 54 52" fill="none" xmlns="http://www.w3.org/2000/svg">
<g clip-path="url(#clip0_476_274)">
<path d="M34.4694 26.6857C35.2275 26.6972 35.8341 26.0665 35.8341 25.3259V16.359C35.8341 13.7226 34.4342 11.4067 32.3213 10.0792C31.3182 9.44892 30.7047 8.37064 30.7047 7.20567V2.4043H23.1647V6.57756C23.1647 7.87571 22.4135 9.06989 21.2161 9.63333C18.655 10.8384 16.8873 13.3964 16.8873 16.3592V25.3261C16.8873 26.0667 17.4939 26.6974 18.252 26.6859C19.0281 26.6741 19.661 27.285 19.661 28.0402V31.191C19.661 31.9316 19.0544 32.5623 18.2963 32.5508C17.5202 32.539 16.8873 33.1499 16.8873 33.9051V47.7649C16.8873 50.0805 18.8093 51.9578 21.1801 51.9578H31.5415C33.9123 51.9578 35.8343 50.0805 35.8343 47.7649V33.9101C35.8343 33.1695 35.2277 32.5388 34.4696 32.5503C33.6934 32.5621 33.0606 31.9512 33.0606 31.196V28.0401C33.0604 27.2848 33.6933 26.674 34.4694 26.6857Z" fill="#ACD4F3"/>
<path opacity="0.44" d="M16.8873 47.635C16.8873 49.9506 18.8093 51.8279 21.1801 51.8279H31.5415C33.9123 51.8279 35.8343 49.9506 35.8343 47.635H16.8873Z" fill="#3C66B1"/>
<g opacity="0.44">
<path d="M20.0261 18.2887C19.5547 18.2887 19.1726 17.9156 19.1726 17.4551C19.1726 14.2885 21.0615 11.3535 23.9845 9.97818C24.8748 9.55923 25.4501 8.65466 25.4501 7.67349C25.4501 7.21301 25.8322 6.83984 26.3036 6.83984C26.7749 6.83984 27.1571 7.21301 27.1571 7.67349C27.1571 9.29105 26.2025 10.7852 24.7254 11.4802C22.3891 12.5795 20.8796 14.9247 20.8796 17.4551C20.8796 17.9156 20.4974 18.2887 20.0261 18.2887Z" fill="#3C66B1"/>
</g>
<path d="M30.7047 0.221436H23.1643V4.48857H30.7047V0.221436Z" fill="#3C66B1"/>
<g opacity="0.39">
<path d="M33.0604 28.0403C33.0604 27.8652 33.0957 27.6986 33.1575 27.5449H19.5639C19.6258 27.6985 19.6611 27.8651 19.6611 28.0403V31.0872H33.0604V28.0403Z" fill="#3C66B1"/>
</g>
<path d="M30.7047 2.35547H23.1643V4.48959H30.7047V2.35547Z" fill="#4E8FE3"/>
<path opacity="0.26" d="M35.8341 16.4503C35.8341 14.2868 34.8908 12.3395 33.3849 10.9768L17.4625 26.5286C17.685 26.6877 17.9567 26.7816 18.2522 26.7772C19.0283 26.7654 19.6612 27.3763 19.6612 28.1315V31.2823C19.6612 32.0229 19.0546 32.6536 18.2965 32.642C17.5204 32.6302 16.8875 33.2411 16.8875 33.9964V44.1549L33.0605 28.3583V28.1313C33.0605 27.3761 33.6934 26.7651 34.4694 26.777C34.5476 26.7782 34.6234 26.771 34.6978 26.7591L35.8089 25.6739C35.825 25.5904 35.8341 25.5047 35.8341 25.4172V16.4503Z" fill="white"/>
</g>
<defs>
<clipPath id="clip0_476_274">
<rect width="52.9697" height="51.7365" fill="white" transform="translate(0.2397 0.221436)"/>
</clipPath>
</defs>
</svg>
