<svg width="60" height="60" viewBox="0 0 60 60" fill="none" xmlns="http://www.w3.org/2000/svg">
<path d="M23.28 13.2H18.24C15.4608 13.2 13.2 15.4607 13.2 18.24V23.28C13.2 26.0592 15.4608 28.32 18.24 28.32H23.28C26.0592 28.32 28.32 26.0592 28.32 23.28V18.24C28.32 15.4607 26.0592 13.2 23.28 13.2ZM24.96 23.28C24.96 24.2069 24.2061 24.96 23.28 24.96H18.24C17.3139 24.96 16.56 24.2069 16.56 23.28V18.24C16.56 17.313 17.3139 16.56 18.24 16.56H23.28C24.2061 16.56 24.96 17.313 24.96 18.24V23.28ZM41.76 13.2H36.72C33.9408 13.2 31.68 15.4607 31.68 18.24V23.28C31.68 26.0592 33.9408 28.32 36.72 28.32H41.76C44.5392 28.32 46.8 26.0592 46.8 23.28V18.24C46.8 15.4607 44.5392 13.2 41.76 13.2ZM43.44 23.28C43.44 24.2069 42.6861 24.96 41.76 24.96H36.72C35.7939 24.96 35.04 24.2069 35.04 23.28V18.24C35.04 17.313 35.7939 16.56 36.72 16.56H41.76C42.6861 16.56 43.44 17.313 43.44 18.24V23.28ZM23.28 31.68H18.24C15.4608 31.68 13.2 33.9407 13.2 36.72V41.76C13.2 44.5392 15.4608 46.8 18.24 46.8H23.28C26.0592 46.8 28.32 44.5392 28.32 41.76V36.72C28.32 33.9407 26.0592 31.68 23.28 31.68ZM24.96 41.76C24.96 42.6869 24.2061 43.44 23.28 43.44H18.24C17.3139 43.44 16.56 42.6869 16.56 41.76V36.72C16.56 35.793 17.3139 35.04 18.24 35.04H23.28C24.2061 35.04 24.96 35.793 24.96 36.72V41.76ZM41.76 31.68H36.72C33.9408 31.68 31.68 33.9407 31.68 36.72V41.76C31.68 44.5392 33.9408 46.8 36.72 46.8H41.76C44.5392 46.8 46.8 44.5392 46.8 41.76V36.72C46.8 33.9407 44.5392 31.68 41.76 31.68ZM43.44 41.76C43.44 42.6869 42.6861 43.44 41.76 43.44H36.72C35.7939 43.44 35.04 42.6869 35.04 41.76V36.72C35.04 35.793 35.7939 35.04 36.72 35.04H41.76C42.6861 35.04 43.44 35.793 43.44 36.72V41.76Z" fill="url(#paint0_linear_683_1961)"/>
<defs>
<linearGradient id="paint0_linear_683_1961" x1="14.6778" y1="14.6778" x2="45.3222" y2="45.3222" gradientUnits="userSpaceOnUse">
<stop stop-color="#2B59C3"/>
<stop offset="1" stop-color="#57EBDB"/>
</linearGradient>
</defs>
</svg>
