<svg width="22" height="24" viewBox="0 0 22 24" fill="none" xmlns="http://www.w3.org/2000/svg">
<path d="M12.5086 0.747883C12.0807 0.404612 11.5485 0.217529 11 0.217529C10.4514 0.217529 9.91929 0.404612 9.49142 0.747883L1.18785 7.40896C0.906291 7.63484 0.679055 7.92107 0.522912 8.24653C0.366769 8.57198 0.285706 8.92834 0.285706 9.28931V21.375C0.285706 22.0144 0.539691 22.6276 0.991788 23.0797C1.44388 23.5318 2.05706 23.7857 2.69642 23.7857H5.37499C6.01435 23.7857 6.62753 23.5318 7.07962 23.0797C7.53172 22.6276 7.78571 22.0144 7.78571 21.375V15.4822C7.78571 14.7429 8.38571 14.1429 9.12499 14.1429H12.875C13.6143 14.1429 14.2143 14.7429 14.2143 15.4822V21.375C14.2143 22.0144 14.4683 22.6276 14.9204 23.0797C15.3725 23.5318 15.9856 23.7857 16.625 23.7857H19.3036C19.9429 23.7857 20.5561 23.5318 21.0082 23.0797C21.4603 22.6276 21.7143 22.0144 21.7143 21.375V9.28931C21.7143 8.92834 21.6332 8.57198 21.4771 8.24653C21.3209 7.92107 21.0937 7.63484 20.8121 7.40896L12.5086 0.747883Z" fill="#1B998B"/>
</svg>
<svg width="22" height="24" viewBox="0 0 22 24" fill="none" xmlns="http://www.w3.org/2000/svg">
<path d="M12.5086 0.747883C12.0807 0.404612 11.5485 0.217529 11 0.217529C10.4514 0.217529 9.91929 0.404612 9.49142 0.747883L1.18785 7.40896C0.906291 7.63484 0.679055 7.92107 0.522912 8.24653C0.366769 8.57198 0.285706 8.92834 0.285706 9.28931V21.375C0.285706 22.0144 0.539691 22.6276 0.991788 23.0797C1.44388 23.5318 2.05706 23.7857 2.69642 23.7857H5.37499C6.01435 23.7857 6.62753 23.5318 7.07962 23.0797C7.53172 22.6276 7.78571 22.0144 7.78571 21.375V15.4822C7.78571 14.7429 8.38571 14.1429 9.12499 14.1429H12.875C13.6143 14.1429 14.2143 14.7429 14.2143 15.4822V21.375C14.2143 22.0144 14.4683 22.6276 14.9204 23.0797C15.3725 23.5318 15.9856 23.7857 16.625 23.7857H19.3036C19.9429 23.7857 20.5561 23.5318 21.0082 23.0797C21.4603 22.6276 21.7143 22.0144 21.7143 21.375V9.28931C21.7143 8.92834 21.6332 8.57198 21.4771 8.24653C21.3209 7.92107 21.0937 7.63484 20.8121 7.40896L12.5086 0.747883Z" fill="#1B998B"/>
</svg>
