<svg width="46" height="44" viewBox="0 0 46 44" fill="none" xmlns="http://www.w3.org/2000/svg">
<g clip-path="url(#clip0_476_309)">
<path d="M32.1595 7.96233H14.0339C13.038 7.78945 12.4948 6.82745 12.6706 5.8547L13.4456 1.5954C13.6092 0.69654 14.433 0.0767083 15.3423 0.123213C15.3667 0.122018 15.3899 0.119629 15.4156 0.119629H31.1124C31.3113 0.119629 31.5005 0.150603 31.6799 0.207859C32.3573 0.374764 32.9077 0.913533 33.0371 1.62885L33.8121 5.88934C33.9878 6.86201 33.1542 7.78945 32.1595 7.96233Z" fill="#FFC033"/>
<path d="M32.1595 7.96233H22.9887V0.119629H31.1124C31.3113 0.119629 31.5005 0.150603 31.6799 0.207859C32.3573 0.374764 32.9077 0.913533 33.0371 1.62885L33.8121 5.88934C33.9879 6.86201 33.1542 7.78945 32.1595 7.96233Z" fill="#F9A926"/>
<path d="M36.2787 9.19602V39.1113C36.2787 41.7017 34.1208 43.8081 31.4687 43.8081H14.7467C12.0946 43.8081 9.93677 41.7016 9.93677 39.1113V9.19602C9.93677 6.6056 12.0946 4.49805 14.7467 4.49805H31.4687C34.1209 4.49805 36.2787 6.60568 36.2787 9.19602Z" fill="#E6563A"/>
<path d="M36.2787 9.19602V39.1113C36.2787 41.7017 34.1208 43.8081 31.4687 43.8081H22.9887V4.49805H31.4687C34.1209 4.49805 36.2787 6.60568 36.2787 9.19602Z" fill="#D9472B"/>
<path fill-rule="evenodd" clip-rule="evenodd" d="M24.2363 19C24.7146 18.2212 24.4563 17.2111 23.6589 16.7439C22.8616 16.2767 21.8275 16.5292 21.3491 17.3079L17.9821 22.789C17.67 23.297 17.6619 23.9297 17.9607 24.4452C18.2595 24.9608 18.8192 25.2794 19.4257 25.2794H23.1863L21.3491 28.2701C20.8707 29.0489 21.1293 30.0589 21.9266 30.5261C22.7238 30.9934 23.758 30.741 24.2363 29.9622L27.6033 24.4811C27.9153 23.9731 27.9236 23.3404 27.6246 22.8249C27.3259 22.3093 26.7663 21.9907 26.1597 21.9907H22.3991L24.2363 19Z" fill="#F9A926"/>
</g>
<defs>
<clipPath id="clip0_476_309">
<rect width="44.73" height="43.6886" fill="white" transform="translate(0.742737 0.119629)"/>
</clipPath>
</defs>
</svg>
