<svg width="61" height="61" viewBox="0 0 61 61" fill="none" xmlns="http://www.w3.org/2000/svg">
<path d="M17.6406 19.4543L28.3567 53.0866H24.4001C20.0476 53.0866 16.1909 49.5378 15.8293 45.2005L13.6839 19.4545L17.6406 19.4543Z" fill="#99D9FF"/>
<path d="M19.7861 45.2003L17.6406 19.4543H47.3161L46.9863 23.4111H47.9756C53.4386 23.4111 57.8674 27.8399 57.8674 33.303C57.8674 38.7661 53.4386 43.1949 47.9756 43.1949H45.3378L45.1706 45.2005C44.8093 49.5379 40.9524 53.0866 36.5999 53.0866H28.3567C24.0044 53.0865 20.1476 49.5378 19.7861 45.2003ZM47.9756 39.2378C51.2535 39.2378 53.9107 36.5807 53.9107 33.3027C53.9107 30.0248 51.2535 27.3677 47.9756 27.3677H46.6567L45.6675 39.2378H47.9756Z" fill="#CCECFF"/>
<path d="M22.025 24.421L28.3567 49.1298H24.3999C22.1238 49.1298 19.9614 47.1401 19.7724 44.8719L17.984 23.4111C20.1297 23.4111 20.8043 24.0311 22.025 24.421Z" fill="#FDA162"/>
<path d="M23.7292 44.8718L22.0249 24.4208C22.5845 24.5996 23.2587 24.73 24.2423 24.73C27.3714 24.73 27.3714 23.4111 30.5007 23.4111C33.6294 23.4111 33.6294 24.73 36.7581 24.73C39.887 24.73 39.887 23.4111 43.0159 23.4111L41.2275 44.8719C41.0385 47.1402 38.8761 49.1298 36.5999 49.1298H28.3567C26.0805 49.1297 23.9181 47.1401 23.7292 44.8718Z" fill="#FDCE6E"/>
<path d="M34.4567 37.919H26.5433V30.0055L30.5001 28.6865L34.4567 30.0055V37.919Z" fill="white"/>
<path d="M30.5001 18.4651C31.0463 18.4651 31.4893 18.9078 31.4893 19.4543V29.0164H29.511V19.4543C29.5108 18.9081 29.9537 18.4651 30.5001 18.4651Z" fill="#EDF8FF"/>
</svg>
