<svg width="53" height="53" viewBox="0 0 53 53" fill="none" xmlns="http://www.w3.org/2000/svg">
<path d="M27.997 0L25.5976 6.39839H31.996V0.799799C31.996 0.358097 31.6379 0 31.1962 0H27.997Z" fill="#338FDA"/>
<path d="M27.997 0H24.7978L23.998 6.39839H28.7968V0.799799C28.7968 0.358097 28.4387 0 27.997 0Z" fill="#20ACEB"/>
<path d="M22.3984 0.799799V6.39839H25.5976V0.799799C25.5976 0.358097 25.2395 0 24.7978 0H23.1982C22.7565 0 22.3984 0.358097 22.3984 0.799799Z" fill="#0AC7F7"/>
<path d="M31.996 46.6016V53H35.1952C36.9621 53 38.3944 51.5677 38.3944 49.8008V46.6016H31.996Z" fill="#81E2FC"/>
<path d="M16 46.6016V49.8008C16 51.5677 17.4323 53 19.1992 53H31.996C33.7629 53 35.1952 51.5677 35.1952 49.8008V46.6016H16Z" fill="#B6ECFA"/>
<path d="M36.2867 23.6046L32.839 17.571C32.2866 16.6042 31.996 15.51 31.996 14.3965V6.39844H25.5976V14.3964L35.1952 49.8008C36.9621 49.8008 38.3944 48.3686 38.3944 46.6017V31.5408C38.3944 28.7571 37.6679 26.0214 36.2867 23.6046Z" fill="#B6ECFA"/>
<path d="M31.4387 21.5685L30.0613 19.1581C29.234 17.7105 28.7968 16.0638 28.7968 14.3963V6.39844H22.3984V14.3964C22.3984 15.51 22.1078 16.6041 21.5554 17.5709L18.1076 23.6045C16.7265 26.0214 16 28.757 16 31.5407V46.6017C16 48.3686 17.4323 49.8008 19.1992 49.8008H35.1952V45.7216L31.4387 21.5685Z" fill="#D9F4FA"/>
<path d="M24.0846 21.2939C25.987 22.4772 28.4075 22.4772 30.3098 21.2939C30.6996 21.0514 31.211 21.1699 31.4387 21.5686L33.5091 25.1918C34.6121 27.122 35.1952 29.3176 35.1952 31.5408V45.7216C35.1952 46.2322 34.7245 46.6062 34.2243 46.5034C33.6892 46.3935 33.1866 46.1944 32.7327 45.9224L29.6598 44.0816C28.9399 43.6504 28.0976 43.4024 27.1972 43.4024C26.2968 43.4024 25.4545 43.6504 24.7346 44.0816L21.6617 45.9224C21.2078 46.1944 20.7052 46.3935 20.1701 46.5034C19.6699 46.6062 19.1992 46.2322 19.1992 45.7216V31.5408C19.1992 29.3176 19.7823 27.122 20.8853 25.1918L22.9557 21.5685C23.1835 21.1699 23.6948 21.0514 24.0846 21.2939Z" fill="#4BD6FA"/>
<path d="M31.9959 4.79883H28.7968V7.99802H31.9959C32.8794 7.99802 33.5955 7.28183 33.5955 6.39843C33.5955 5.51502 32.8794 4.79883 31.9959 4.79883Z" fill="#81E2FC"/>
<path d="M30.3964 6.39843C30.3964 5.51502 29.6802 4.79883 28.7968 4.79883H22.3984C21.515 4.79883 20.7988 5.51502 20.7988 6.39843C20.7988 7.28183 21.515 7.99802 22.3984 7.99802H28.7968C29.6802 7.99802 30.3964 7.28183 30.3964 6.39843Z" fill="#B6ECFA"/>
</svg>
