<svg width="360" height="800" viewBox="0 0 360 800" fill="none" xmlns="http://www.w3.org/2000/svg">
<rect width="360" height="800" fill="#F6F6F6"/>
<circle cx="180" cy="275" r="125" fill="#2B59C3"/>
<path d="M73.0252 545L69.4832 538.744H67.9652V545H64.7452V528.946H70.7712C72.0132 528.946 73.0712 529.168 73.9452 529.613C74.8192 530.042 75.4709 530.633 75.9002 531.384C76.3449 532.12 76.5672 532.948 76.5672 533.868C76.5672 534.926 76.2605 535.884 75.6472 536.743C75.0339 537.586 74.1215 538.169 72.9102 538.491L76.7512 545H73.0252ZM67.9652 536.329H70.6562C71.5302 536.329 72.1819 536.122 72.6112 535.708C73.0405 535.279 73.2552 534.688 73.2552 533.937C73.2552 533.201 73.0405 532.634 72.6112 532.235C72.1819 531.821 71.5302 531.614 70.6562 531.614H67.9652V536.329ZM91.3246 538.353C91.3246 538.813 91.2939 539.227 91.2326 539.595H81.9176C81.9942 540.515 82.3162 541.236 82.8836 541.757C83.4509 542.278 84.1486 542.539 84.9766 542.539C86.1726 542.539 87.0236 542.025 87.5296 540.998H91.0026C90.6346 542.225 89.9292 543.237 88.8866 544.034C87.8439 544.816 86.5636 545.207 85.0456 545.207C83.8189 545.207 82.7149 544.939 81.7336 544.402C80.7676 543.85 80.0086 543.076 79.4566 542.079C78.9199 541.082 78.6516 539.932 78.6516 538.629C78.6516 537.31 78.9199 536.153 79.4566 535.156C79.9932 534.159 80.7446 533.393 81.7106 532.856C82.6766 532.319 83.7882 532.051 85.0456 532.051C86.2569 532.051 87.3379 532.312 88.2886 532.833C89.2546 533.354 89.9982 534.098 90.5196 535.064C91.0562 536.015 91.3246 537.111 91.3246 538.353ZM87.9896 537.433C87.9742 536.605 87.6752 535.946 87.0926 535.455C86.5099 534.949 85.7969 534.696 84.9536 534.696C84.1562 534.696 83.4816 534.941 82.9296 535.432C82.3929 535.907 82.0632 536.574 81.9406 537.433H87.9896ZM101.219 545L96.8949 539.572V545H93.6749V527.98H96.8949V537.663L101.173 532.258H105.359L99.7469 538.652L105.405 545H101.219ZM112.765 545.207C111.538 545.207 110.434 544.939 109.453 544.402C108.471 543.85 107.697 543.076 107.13 542.079C106.578 541.082 106.302 539.932 106.302 538.629C106.302 537.326 106.585 536.176 107.153 535.179C107.735 534.182 108.525 533.416 109.522 532.879C110.518 532.327 111.63 532.051 112.857 532.051C114.083 532.051 115.195 532.327 116.192 532.879C117.188 533.416 117.97 534.182 118.538 535.179C119.12 536.176 119.412 537.326 119.412 538.629C119.412 539.932 119.113 541.082 118.515 542.079C117.932 543.076 117.135 543.85 116.123 544.402C115.126 544.939 114.007 545.207 112.765 545.207ZM112.765 542.401C113.347 542.401 113.892 542.263 114.398 541.987C114.919 541.696 115.333 541.266 115.64 540.699C115.946 540.132 116.1 539.442 116.1 538.629C116.1 537.418 115.778 536.49 115.134 535.846C114.505 535.187 113.731 534.857 112.811 534.857C111.891 534.857 111.116 535.187 110.488 535.846C109.874 536.49 109.568 537.418 109.568 538.629C109.568 539.84 109.867 540.776 110.465 541.435C111.078 542.079 111.845 542.401 112.765 542.401ZM137.598 532.074C139.162 532.074 140.419 532.557 141.37 533.523C142.336 534.474 142.819 535.808 142.819 537.525V545H139.599V537.962C139.599 536.965 139.346 536.206 138.84 535.685C138.334 535.148 137.644 534.88 136.77 534.88C135.896 534.88 135.198 535.148 134.677 535.685C134.171 536.206 133.918 536.965 133.918 537.962V545H130.698V537.962C130.698 536.965 130.445 536.206 129.939 535.685C129.433 535.148 128.743 534.88 127.869 534.88C126.979 534.88 126.274 535.148 125.753 535.685C125.247 536.206 124.994 536.965 124.994 537.962V545H121.774V532.258H124.994V533.799C125.408 533.262 125.937 532.841 126.581 532.534C127.24 532.227 127.961 532.074 128.743 532.074C129.739 532.074 130.629 532.289 131.411 532.718C132.193 533.132 132.798 533.73 133.228 534.512C133.642 533.776 134.24 533.186 135.022 532.741C135.819 532.296 136.678 532.074 137.598 532.074ZM157.719 538.353C157.719 538.813 157.688 539.227 157.627 539.595H148.312C148.389 540.515 148.711 541.236 149.278 541.757C149.845 542.278 150.543 542.539 151.371 542.539C152.567 542.539 153.418 542.025 153.924 540.998H157.397C157.029 542.225 156.324 543.237 155.281 544.034C154.238 544.816 152.958 545.207 151.44 545.207C150.213 545.207 149.109 544.939 148.128 544.402C147.162 543.85 146.403 543.076 145.851 542.079C145.314 541.082 145.046 539.932 145.046 538.629C145.046 537.31 145.314 536.153 145.851 535.156C146.388 534.159 147.139 533.393 148.105 532.856C149.071 532.319 150.183 532.051 151.44 532.051C152.651 532.051 153.732 532.312 154.683 532.833C155.649 533.354 156.393 534.098 156.914 535.064C157.451 536.015 157.719 537.111 157.719 538.353ZM154.384 537.433C154.369 536.605 154.07 535.946 153.487 535.455C152.904 534.949 152.191 534.696 151.348 534.696C150.551 534.696 149.876 534.941 149.324 535.432C148.787 535.907 148.458 536.574 148.335 537.433H154.384ZM167.13 532.074C168.648 532.074 169.875 532.557 170.81 533.523C171.746 534.474 172.213 535.808 172.213 537.525V545H168.993V537.962C168.993 536.95 168.74 536.176 168.234 535.639C167.728 535.087 167.038 534.811 166.164 534.811C165.275 534.811 164.57 535.087 164.048 535.639C163.542 536.176 163.289 536.95 163.289 537.962V545H160.069V532.258H163.289V533.845C163.719 533.293 164.263 532.864 164.922 532.557C165.597 532.235 166.333 532.074 167.13 532.074ZM174.447 538.583C174.447 537.295 174.7 536.153 175.206 535.156C175.728 534.159 176.433 533.393 177.322 532.856C178.212 532.319 179.201 532.051 180.289 532.051C181.117 532.051 181.907 532.235 182.658 532.603C183.41 532.956 184.008 533.431 184.452 534.029V527.98H187.718V545H184.452V543.114C184.054 543.743 183.494 544.249 182.773 544.632C182.053 545.015 181.217 545.207 180.266 545.207C179.193 545.207 178.212 544.931 177.322 544.379C176.433 543.827 175.728 543.053 175.206 542.056C174.7 541.044 174.447 539.886 174.447 538.583ZM184.475 538.629C184.475 537.847 184.322 537.18 184.015 536.628C183.709 536.061 183.295 535.631 182.773 535.34C182.252 535.033 181.692 534.88 181.094 534.88C180.496 534.88 179.944 535.026 179.438 535.317C178.932 535.608 178.518 536.038 178.196 536.605C177.89 537.157 177.736 537.816 177.736 538.583C177.736 539.35 177.89 540.024 178.196 540.607C178.518 541.174 178.932 541.611 179.438 541.918C179.96 542.225 180.512 542.378 181.094 542.378C181.692 542.378 182.252 542.232 182.773 541.941C183.295 541.634 183.709 541.205 184.015 540.653C184.322 540.086 184.475 539.411 184.475 538.629ZM190.035 538.583C190.035 537.295 190.288 536.153 190.794 535.156C191.316 534.159 192.013 533.393 192.887 532.856C193.777 532.319 194.766 532.051 195.854 532.051C196.805 532.051 197.633 532.243 198.338 532.626C199.059 533.009 199.634 533.492 200.063 534.075V532.258H203.306V545H200.063V543.137C199.649 543.735 199.074 544.233 198.338 544.632C197.618 545.015 196.782 545.207 195.831 545.207C194.758 545.207 193.777 544.931 192.887 544.379C192.013 543.827 191.316 543.053 190.794 542.056C190.288 541.044 190.035 539.886 190.035 538.583ZM200.063 538.629C200.063 537.847 199.91 537.18 199.603 536.628C199.297 536.061 198.883 535.631 198.361 535.34C197.84 535.033 197.28 534.88 196.682 534.88C196.084 534.88 195.532 535.026 195.026 535.317C194.52 535.608 194.106 536.038 193.784 536.605C193.478 537.157 193.324 537.816 193.324 538.583C193.324 539.35 193.478 540.024 193.784 540.607C194.106 541.174 194.52 541.611 195.026 541.918C195.548 542.225 196.1 542.378 196.682 542.378C197.28 542.378 197.84 542.232 198.361 541.941C198.883 541.634 199.297 541.205 199.603 540.653C199.91 540.086 200.063 539.411 200.063 538.629ZM211.327 545.207C210.285 545.207 209.349 545.023 208.521 544.655C207.693 544.272 207.034 543.758 206.543 543.114C206.068 542.47 205.807 541.757 205.761 540.975H209.004C209.066 541.466 209.303 541.872 209.717 542.194C210.147 542.516 210.676 542.677 211.304 542.677C211.918 542.677 212.393 542.554 212.73 542.309C213.083 542.064 213.259 541.749 213.259 541.366C213.259 540.952 213.045 540.645 212.615 540.446C212.201 540.231 211.534 540.001 210.614 539.756C209.664 539.526 208.882 539.288 208.268 539.043C207.67 538.798 207.149 538.422 206.704 537.916C206.275 537.41 206.06 536.728 206.06 535.869C206.06 535.164 206.26 534.52 206.658 533.937C207.072 533.354 207.655 532.894 208.406 532.557C209.173 532.22 210.07 532.051 211.097 532.051C212.615 532.051 213.827 532.434 214.731 533.201C215.636 533.952 216.134 534.972 216.226 536.26H213.144C213.098 535.754 212.884 535.355 212.5 535.064C212.132 534.757 211.634 534.604 211.005 534.604C210.423 534.604 209.97 534.711 209.648 534.926C209.342 535.141 209.188 535.44 209.188 535.823C209.188 536.252 209.403 536.582 209.832 536.812C210.262 537.027 210.929 537.249 211.833 537.479C212.753 537.709 213.512 537.947 214.11 538.192C214.708 538.437 215.222 538.821 215.651 539.342C216.096 539.848 216.326 540.523 216.341 541.366C216.341 542.102 216.134 542.761 215.72 543.344C215.322 543.927 214.739 544.387 213.972 544.724C213.221 545.046 212.339 545.207 211.327 545.207ZM220.617 530.74C220.05 530.74 219.575 530.564 219.191 530.211C218.823 529.843 218.639 529.391 218.639 528.854C218.639 528.317 218.823 527.873 219.191 527.52C219.575 527.152 220.05 526.968 220.617 526.968C221.185 526.968 221.652 527.152 222.02 527.52C222.404 527.873 222.595 528.317 222.595 528.854C222.595 529.391 222.404 529.843 222.02 530.211C221.652 530.564 221.185 530.74 220.617 530.74ZM222.204 532.258V545H218.984V532.258H222.204Z" fill="#2B59C3"/>
<path d="M241.791 528.946V531.545H237.513V545H234.293V531.545H230.015V528.946H241.791ZM255.986 538.353C255.986 538.813 255.955 539.227 255.894 539.595H246.579C246.655 540.515 246.977 541.236 247.545 541.757C248.112 542.278 248.81 542.539 249.638 542.539C250.834 542.539 251.685 542.025 252.191 540.998H255.664C255.296 542.225 254.59 543.237 253.548 544.034C252.505 544.816 251.225 545.207 249.707 545.207C248.48 545.207 247.376 544.939 246.395 544.402C245.429 543.85 244.67 543.076 244.118 542.079C243.581 541.082 243.313 539.932 243.313 538.629C243.313 537.31 243.581 536.153 244.118 535.156C244.654 534.159 245.406 533.393 246.372 532.856C247.338 532.319 248.449 532.051 249.707 532.051C250.918 532.051 251.999 532.312 252.95 532.833C253.916 533.354 254.659 534.098 255.181 535.064C255.717 536.015 255.986 537.111 255.986 538.353ZM252.651 537.433C252.635 536.605 252.336 535.946 251.754 535.455C251.171 534.949 250.458 534.696 249.615 534.696C248.817 534.696 248.143 534.941 247.591 535.432C247.054 535.907 246.724 536.574 246.602 537.433H252.651ZM261.556 534.098C261.97 533.515 262.537 533.032 263.258 532.649C263.994 532.25 264.83 532.051 265.765 532.051C266.854 532.051 267.835 532.319 268.709 532.856C269.598 533.393 270.296 534.159 270.802 535.156C271.323 536.137 271.584 537.28 271.584 538.583C271.584 539.886 271.323 541.044 270.802 542.056C270.296 543.053 269.598 543.827 268.709 544.379C267.835 544.931 266.854 545.207 265.765 545.207C264.83 545.207 264.002 545.015 263.281 544.632C262.576 544.249 262.001 543.766 261.556 543.183V551.072H258.336V532.258H261.556V534.098ZM268.295 538.583C268.295 537.816 268.134 537.157 267.812 536.605C267.505 536.038 267.091 535.608 266.57 535.317C266.064 535.026 265.512 534.88 264.914 534.88C264.331 534.88 263.779 535.033 263.258 535.34C262.752 535.631 262.338 536.061 262.016 536.628C261.709 537.195 261.556 537.862 261.556 538.629C261.556 539.396 261.709 540.063 262.016 540.63C262.338 541.197 262.752 541.634 263.258 541.941C263.779 542.232 264.331 542.378 264.914 542.378C265.512 542.378 266.064 542.225 266.57 541.918C267.091 541.611 267.505 541.174 267.812 540.607C268.134 540.04 268.295 539.365 268.295 538.583ZM273.096 538.583C273.096 537.295 273.349 536.153 273.855 535.156C274.376 534.159 275.074 533.393 275.948 532.856C276.837 532.319 277.826 532.051 278.915 532.051C279.866 532.051 280.694 532.243 281.399 532.626C282.12 533.009 282.695 533.492 283.124 534.075V532.258H286.367V545H283.124V543.137C282.71 543.735 282.135 544.233 281.399 544.632C280.678 545.015 279.843 545.207 278.892 545.207C277.819 545.207 276.837 544.931 275.948 544.379C275.074 543.827 274.376 543.053 273.855 542.056C273.349 541.044 273.096 539.886 273.096 538.583ZM283.124 538.629C283.124 537.847 282.971 537.18 282.664 536.628C282.357 536.061 281.943 535.631 281.422 535.34C280.901 535.033 280.341 534.88 279.743 534.88C279.145 534.88 278.593 535.026 278.087 535.317C277.581 535.608 277.167 536.038 276.845 536.605C276.538 537.157 276.385 537.816 276.385 538.583C276.385 539.35 276.538 540.024 276.845 540.607C277.167 541.174 277.581 541.611 278.087 541.918C278.608 542.225 279.16 542.378 279.743 542.378C280.341 542.378 280.901 542.232 281.422 541.941C281.943 541.634 282.357 541.205 282.664 540.653C282.971 540.086 283.124 539.411 283.124 538.629ZM293.261 534.903V541.067C293.261 541.496 293.36 541.811 293.56 542.01C293.774 542.194 294.127 542.286 294.618 542.286H296.113V545H294.089C291.375 545 290.018 543.681 290.018 541.044V534.903H288.5V532.258H290.018V529.107H293.261V532.258H296.113V534.903H293.261Z" fill="#293C56"/>
<path d="M60.8044 568.65V579H59.7544V570.735L56.0644 579H55.2994L51.6094 570.765V579H50.5594V568.65H51.6694L55.6744 577.62L59.6794 568.65H60.8044ZM70.5963 574.485C70.5963 574.845 70.5863 575.12 70.5663 575.31H63.7713C63.8013 575.93 63.9513 576.46 64.2213 576.9C64.4913 577.34 64.8463 577.675 65.2863 577.905C65.7263 578.125 66.2063 578.235 66.7263 578.235C67.4063 578.235 67.9763 578.07 68.4363 577.74C68.9063 577.41 69.2163 576.965 69.3663 576.405H70.4763C70.2763 577.205 69.8463 577.86 69.1863 578.37C68.5363 578.87 67.7163 579.12 66.7263 579.12C65.9563 579.12 65.2663 578.95 64.6563 578.61C64.0463 578.26 63.5663 577.77 63.2163 577.14C62.8763 576.5 62.7063 575.755 62.7063 574.905C62.7063 574.055 62.8763 573.31 63.2163 572.67C63.5563 572.03 64.0313 571.54 64.6413 571.2C65.2513 570.86 65.9463 570.69 66.7263 570.69C67.5063 570.69 68.1863 570.86 68.7663 571.2C69.3563 571.54 69.8063 572 70.1163 572.58C70.4363 573.15 70.5963 573.785 70.5963 574.485ZM69.5313 574.455C69.5413 573.845 69.4163 573.325 69.1563 572.895C68.9063 572.465 68.5613 572.14 68.1213 571.92C67.6813 571.7 67.2013 571.59 66.6813 571.59C65.9013 571.59 65.2363 571.84 64.6863 572.34C64.1363 572.84 63.8313 573.545 63.7713 574.455H69.5313ZM82.2674 570.66C83.2274 570.66 84.0074 570.965 84.6074 571.575C85.2174 572.175 85.5224 573.05 85.5224 574.2V579H84.4874V574.32C84.4874 573.43 84.2724 572.75 83.8424 572.28C83.4124 571.81 82.8274 571.575 82.0874 571.575C81.3174 571.575 80.7024 571.83 80.2424 572.34C79.7824 572.85 79.5524 573.59 79.5524 574.56V579H78.5174V574.32C78.5174 573.43 78.3024 572.75 77.8724 572.28C77.4424 571.81 76.8524 571.575 76.1024 571.575C75.3324 571.575 74.7174 571.83 74.2574 572.34C73.7974 572.85 73.5674 573.59 73.5674 574.56V579H72.5174V570.81H73.5674V572.22C73.8274 571.71 74.1974 571.325 74.6774 571.065C75.1574 570.795 75.6924 570.66 76.2824 570.66C76.9924 570.66 77.6124 570.83 78.1424 571.17C78.6824 571.51 79.0724 572.01 79.3124 572.67C79.5324 572.02 79.9074 571.525 80.4374 571.185C80.9774 570.835 81.5874 570.66 82.2674 570.66ZM94.9493 570.81V579H93.8993V577.56C93.6593 578.07 93.2893 578.46 92.7893 578.73C92.2893 579 91.7293 579.135 91.1093 579.135C90.1293 579.135 89.3293 578.835 88.7093 578.235C88.0893 577.625 87.7793 576.745 87.7793 575.595V570.81H88.8143V575.475C88.8143 576.365 89.0343 577.045 89.4743 577.515C89.9243 577.985 90.5343 578.22 91.3043 578.22C92.0943 578.22 92.7243 577.97 93.1943 577.47C93.6643 576.97 93.8993 576.235 93.8993 575.265V570.81H94.9493ZM96.8665 574.89C96.8665 574.05 97.0365 573.315 97.3765 572.685C97.7165 572.045 98.1815 571.555 98.7715 571.215C99.3715 570.865 100.046 570.69 100.796 570.69C101.516 570.69 102.166 570.865 102.746 571.215C103.326 571.565 103.751 572.02 104.021 572.58V567.9H105.071V579H104.021V577.17C103.771 577.74 103.361 578.21 102.791 578.58C102.221 578.94 101.551 579.12 100.781 579.12C100.031 579.12 99.3565 578.945 98.7565 578.595C98.1665 578.245 97.7015 577.75 97.3615 577.11C97.0315 576.47 96.8665 575.73 96.8665 574.89ZM104.021 574.905C104.021 574.245 103.886 573.665 103.616 573.165C103.346 572.665 102.976 572.28 102.506 572.01C102.046 571.74 101.536 571.605 100.976 571.605C100.396 571.605 99.8765 571.735 99.4165 571.995C98.9565 572.255 98.5915 572.635 98.3215 573.135C98.0615 573.625 97.9315 574.21 97.9315 574.89C97.9315 575.56 98.0615 576.15 98.3215 576.66C98.5915 577.16 98.9565 577.545 99.4165 577.815C99.8765 578.075 100.396 578.205 100.976 578.205C101.536 578.205 102.046 578.07 102.506 577.8C102.976 577.53 103.346 577.145 103.616 576.645C103.886 576.145 104.021 575.565 104.021 574.905ZM106.989 574.89C106.989 574.05 107.154 573.315 107.484 572.685C107.824 572.045 108.289 571.555 108.879 571.215C109.479 570.865 110.154 570.69 110.904 570.69C111.684 570.69 112.354 570.87 112.914 571.23C113.484 571.59 113.894 572.05 114.144 572.61V570.81H115.194V579H114.144V577.185C113.884 577.745 113.469 578.21 112.899 578.58C112.339 578.94 111.669 579.12 110.889 579.12C110.149 579.12 109.479 578.945 108.879 578.595C108.289 578.245 107.824 577.75 107.484 577.11C107.154 576.47 106.989 575.73 106.989 574.89ZM114.144 574.905C114.144 574.245 114.009 573.665 113.739 573.165C113.469 572.665 113.099 572.28 112.629 572.01C112.169 571.74 111.659 571.605 111.099 571.605C110.519 571.605 109.999 571.735 109.539 571.995C109.079 572.255 108.714 572.635 108.444 573.135C108.184 573.625 108.054 574.21 108.054 574.89C108.054 575.56 108.184 576.15 108.444 576.66C108.714 577.16 109.079 577.545 109.539 577.815C109.999 578.075 110.519 578.205 111.099 578.205C111.659 578.205 112.169 578.07 112.629 577.8C113.099 577.53 113.469 577.145 113.739 576.645C114.009 576.145 114.144 575.565 114.144 574.905ZM121.491 570.66C122.111 570.66 122.666 570.79 123.156 571.05C123.656 571.31 124.046 571.71 124.326 572.25C124.616 572.78 124.761 573.43 124.761 574.2V579H123.726V574.32C123.726 573.43 123.501 572.75 123.051 572.28C122.611 571.81 122.006 571.575 121.236 571.575C120.446 571.575 119.816 571.825 119.346 572.325C118.876 572.825 118.641 573.56 118.641 574.53V579H117.591V567.9H118.641V572.205C118.901 571.715 119.281 571.335 119.781 571.065C120.291 570.795 120.861 570.66 121.491 570.66ZM131.508 579L128.133 575.325V579H127.083V567.9H128.133V574.47L131.433 570.81H132.903L129.018 574.89L132.933 579H131.508ZM133.81 574.89C133.81 574.05 133.975 573.315 134.305 572.685C134.645 572.045 135.11 571.555 135.7 571.215C136.3 570.865 136.975 570.69 137.725 570.69C138.505 570.69 139.175 570.87 139.735 571.23C140.305 571.59 140.715 572.05 140.965 572.61V570.81H142.015V579H140.965V577.185C140.705 577.745 140.29 578.21 139.72 578.58C139.16 578.94 138.49 579.12 137.71 579.12C136.97 579.12 136.3 578.945 135.7 578.595C135.11 578.245 134.645 577.75 134.305 577.11C133.975 576.47 133.81 575.73 133.81 574.89ZM140.965 574.905C140.965 574.245 140.83 573.665 140.56 573.165C140.29 572.665 139.92 572.28 139.45 572.01C138.99 571.74 138.48 571.605 137.92 571.605C137.34 571.605 136.82 571.735 136.36 571.995C135.9 572.255 135.535 572.635 135.265 573.135C135.005 573.625 134.875 574.21 134.875 574.89C134.875 575.56 135.005 576.15 135.265 576.66C135.535 577.16 135.9 577.545 136.36 577.815C136.82 578.075 137.34 578.205 137.92 578.205C138.48 578.205 138.99 578.07 139.45 577.8C139.92 577.53 140.29 577.145 140.56 576.645C140.83 576.145 140.965 575.565 140.965 574.905ZM148.252 570.66C149.232 570.66 150.032 570.965 150.652 571.575C151.272 572.175 151.582 573.05 151.582 574.2V579H150.547V574.32C150.547 573.43 150.322 572.75 149.872 572.28C149.432 571.81 148.827 571.575 148.057 571.575C147.267 571.575 146.637 571.825 146.167 572.325C145.697 572.825 145.462 573.56 145.462 574.53V579H144.412V570.81H145.462V572.205C145.722 571.705 146.097 571.325 146.587 571.065C147.077 570.795 147.632 570.66 148.252 570.66ZM159.055 572.61C159.315 572.06 159.725 571.605 160.285 571.245C160.855 570.875 161.53 570.69 162.31 570.69C163.05 570.69 163.715 570.865 164.305 571.215C164.905 571.555 165.37 572.045 165.7 572.685C166.04 573.315 166.21 574.05 166.21 574.89C166.21 575.73 166.04 576.47 165.7 577.11C165.37 577.75 164.905 578.245 164.305 578.595C163.715 578.945 163.05 579.12 162.31 579.12C161.54 579.12 160.87 578.94 160.3 578.58C159.73 578.21 159.315 577.75 159.055 577.2V582.87H158.02V570.81H159.055V572.61ZM165.145 574.89C165.145 574.21 165.01 573.625 164.74 573.135C164.48 572.635 164.12 572.255 163.66 571.995C163.2 571.735 162.68 571.605 162.1 571.605C161.54 571.605 161.025 571.74 160.555 572.01C160.095 572.28 159.73 572.665 159.46 573.165C159.19 573.665 159.055 574.245 159.055 574.905C159.055 575.565 159.19 576.145 159.46 576.645C159.73 577.145 160.095 577.53 160.555 577.8C161.025 578.07 161.54 578.205 162.1 578.205C162.68 578.205 163.2 578.075 163.66 577.815C164.12 577.545 164.48 577.16 164.74 576.66C165.01 576.15 165.145 575.56 165.145 574.89ZM168.667 569.265C168.457 569.265 168.277 569.19 168.127 569.04C167.977 568.89 167.902 568.705 167.902 568.485C167.902 568.265 167.977 568.085 168.127 567.945C168.277 567.795 168.457 567.72 168.667 567.72C168.877 567.72 169.057 567.795 169.207 567.945C169.357 568.085 169.432 568.265 169.432 568.485C169.432 568.705 169.357 568.89 169.207 569.04C169.057 569.19 168.877 569.265 168.667 569.265ZM169.192 570.81V579H168.142V570.81H169.192ZM172.62 567.9V579H171.57V567.9H172.62ZM175.523 569.265C175.313 569.265 175.133 569.19 174.983 569.04C174.833 568.89 174.758 568.705 174.758 568.485C174.758 568.265 174.833 568.085 174.983 567.945C175.133 567.795 175.313 567.72 175.523 567.72C175.733 567.72 175.913 567.795 176.063 567.945C176.213 568.085 176.288 568.265 176.288 568.485C176.288 568.705 176.213 568.89 176.063 569.04C175.913 569.19 175.733 569.265 175.523 569.265ZM176.048 570.81V579H174.998V570.81H176.048ZM182.326 570.66C182.946 570.66 183.501 570.79 183.991 571.05C184.491 571.31 184.881 571.71 185.161 572.25C185.451 572.78 185.596 573.43 185.596 574.2V579H184.561V574.32C184.561 573.43 184.336 572.75 183.886 572.28C183.446 571.81 182.841 571.575 182.071 571.575C181.281 571.575 180.651 571.825 180.181 572.325C179.711 572.825 179.476 573.56 179.476 574.53V579H178.426V567.9H179.476V572.205C179.736 571.715 180.116 571.335 180.616 571.065C181.126 570.795 181.696 570.66 182.326 570.66ZM187.438 574.89C187.438 574.05 187.603 573.315 187.933 572.685C188.273 572.045 188.738 571.555 189.328 571.215C189.928 570.865 190.603 570.69 191.353 570.69C192.133 570.69 192.803 570.87 193.363 571.23C193.933 571.59 194.343 572.05 194.593 572.61V570.81H195.643V579H194.593V577.185C194.333 577.745 193.918 578.21 193.348 578.58C192.788 578.94 192.118 579.12 191.338 579.12C190.598 579.12 189.928 578.945 189.328 578.595C188.738 578.245 188.273 577.75 187.933 577.11C187.603 576.47 187.438 575.73 187.438 574.89ZM194.593 574.905C194.593 574.245 194.458 573.665 194.188 573.165C193.918 572.665 193.548 572.28 193.078 572.01C192.618 571.74 192.108 571.605 191.548 571.605C190.968 571.605 190.448 571.735 189.988 571.995C189.528 572.255 189.163 572.635 188.893 573.135C188.633 573.625 188.503 574.21 188.503 574.89C188.503 575.56 188.633 576.15 188.893 576.66C189.163 577.16 189.528 577.545 189.988 577.815C190.448 578.075 190.968 578.205 191.548 578.205C192.108 578.205 192.618 578.07 193.078 577.8C193.548 577.53 193.918 577.145 194.188 576.645C194.458 576.145 194.593 575.565 194.593 574.905ZM201.88 570.66C202.86 570.66 203.66 570.965 204.28 571.575C204.9 572.175 205.21 573.05 205.21 574.2V579H204.175V574.32C204.175 573.43 203.95 572.75 203.5 572.28C203.06 571.81 202.455 571.575 201.685 571.575C200.895 571.575 200.265 571.825 199.795 572.325C199.325 572.825 199.09 573.56 199.09 574.53V579H198.04V570.81H199.09V572.205C199.35 571.705 199.725 571.325 200.215 571.065C200.705 570.795 201.26 570.66 201.88 570.66ZM212.683 572.625C212.953 572.055 213.368 571.59 213.928 571.23C214.498 570.87 215.168 570.69 215.938 570.69C216.688 570.69 217.358 570.865 217.948 571.215C218.538 571.555 218.998 572.045 219.328 572.685C219.668 573.315 219.838 574.05 219.838 574.89C219.838 575.73 219.668 576.47 219.328 577.11C218.998 577.75 218.533 578.245 217.933 578.595C217.343 578.945 216.678 579.12 215.938 579.12C215.158 579.12 214.483 578.945 213.913 578.595C213.353 578.235 212.943 577.77 212.683 577.2V579H211.648V567.9H212.683V572.625ZM218.773 574.89C218.773 574.21 218.638 573.625 218.368 573.135C218.108 572.635 217.748 572.255 217.288 571.995C216.828 571.735 216.308 571.605 215.728 571.605C215.168 571.605 214.653 571.74 214.183 572.01C213.723 572.28 213.358 572.665 213.088 573.165C212.818 573.665 212.683 574.245 212.683 574.905C212.683 575.565 212.818 576.145 213.088 576.645C213.358 577.145 213.723 577.53 214.183 577.8C214.653 578.07 215.168 578.205 215.728 578.205C216.308 578.205 216.828 578.075 217.288 577.815C217.748 577.545 218.108 577.16 218.368 576.66C218.638 576.15 218.773 575.56 218.773 574.89ZM222.295 569.265C222.085 569.265 221.905 569.19 221.755 569.04C221.605 568.89 221.53 568.705 221.53 568.485C221.53 568.265 221.605 568.085 221.755 567.945C221.905 567.795 222.085 567.72 222.295 567.72C222.505 567.72 222.685 567.795 222.835 567.945C222.985 568.085 223.06 568.265 223.06 568.485C223.06 568.705 222.985 568.89 222.835 569.04C222.685 569.19 222.505 569.265 222.295 569.265ZM222.82 570.81V579H221.77V570.81H222.82ZM225.798 569.265C225.588 569.265 225.408 569.19 225.258 569.04C225.108 568.89 225.033 568.705 225.033 568.485C225.033 568.265 225.108 568.085 225.258 567.945C225.408 567.795 225.588 567.72 225.798 567.72C226.008 567.72 226.183 567.795 226.323 567.945C226.473 568.085 226.548 568.265 226.548 568.485C226.548 568.705 226.473 568.89 226.323 569.04C226.183 569.19 226.008 569.265 225.798 569.265ZM226.308 580.935C226.308 581.595 226.143 582.08 225.813 582.39C225.483 582.71 224.988 582.87 224.328 582.87H223.593V581.97H224.163C224.553 581.97 224.833 581.885 225.003 581.715C225.173 581.555 225.258 581.28 225.258 580.89V570.81H226.308V580.935ZM228.234 574.89C228.234 574.05 228.399 573.315 228.729 572.685C229.069 572.045 229.534 571.555 230.124 571.215C230.724 570.865 231.399 570.69 232.149 570.69C232.929 570.69 233.599 570.87 234.159 571.23C234.729 571.59 235.139 572.05 235.389 572.61V570.81H236.439V579H235.389V577.185C235.129 577.745 234.714 578.21 234.144 578.58C233.584 578.94 232.914 579.12 232.134 579.12C231.394 579.12 230.724 578.945 230.124 578.595C229.534 578.245 229.069 577.75 228.729 577.11C228.399 576.47 228.234 575.73 228.234 574.89ZM235.389 574.905C235.389 574.245 235.254 573.665 234.984 573.165C234.714 572.665 234.344 572.28 233.874 572.01C233.414 571.74 232.904 571.605 232.344 571.605C231.764 571.605 231.244 571.735 230.784 571.995C230.324 572.255 229.959 572.635 229.689 573.135C229.429 573.625 229.299 574.21 229.299 574.89C229.299 575.56 229.429 576.15 229.689 576.66C229.959 577.16 230.324 577.545 230.784 577.815C231.244 578.075 231.764 578.205 232.344 578.205C232.904 578.205 233.414 578.07 233.874 577.8C234.344 577.53 234.714 577.145 234.984 576.645C235.254 576.145 235.389 575.565 235.389 574.905ZM243.261 579L239.886 575.325V579H238.836V567.9H239.886V574.47L243.186 570.81H244.656L240.771 574.89L244.686 579H243.261ZM249.679 574.89C249.679 574.05 249.849 573.315 250.189 572.685C250.529 572.045 250.994 571.555 251.584 571.215C252.184 570.865 252.859 570.69 253.609 570.69C254.329 570.69 254.979 570.865 255.559 571.215C256.139 571.565 256.564 572.02 256.834 572.58V567.9H257.884V579H256.834V577.17C256.584 577.74 256.174 578.21 255.604 578.58C255.034 578.94 254.364 579.12 253.594 579.12C252.844 579.12 252.169 578.945 251.569 578.595C250.979 578.245 250.514 577.75 250.174 577.11C249.844 576.47 249.679 575.73 249.679 574.89ZM256.834 574.905C256.834 574.245 256.699 573.665 256.429 573.165C256.159 572.665 255.789 572.28 255.319 572.01C254.859 571.74 254.349 571.605 253.789 571.605C253.209 571.605 252.689 571.735 252.229 571.995C251.769 572.255 251.404 572.635 251.134 573.135C250.874 573.625 250.744 574.21 250.744 574.89C250.744 575.56 250.874 576.15 251.134 576.66C251.404 577.16 251.769 577.545 252.229 577.815C252.689 578.075 253.209 578.205 253.789 578.205C254.349 578.205 254.859 578.07 255.319 577.8C255.789 577.53 256.159 577.145 256.429 576.645C256.699 576.145 256.834 575.565 256.834 574.905ZM267.691 574.485C267.691 574.845 267.681 575.12 267.661 575.31H260.866C260.896 575.93 261.046 576.46 261.316 576.9C261.586 577.34 261.941 577.675 262.381 577.905C262.821 578.125 263.301 578.235 263.821 578.235C264.501 578.235 265.071 578.07 265.531 577.74C266.001 577.41 266.311 576.965 266.461 576.405H267.571C267.371 577.205 266.941 577.86 266.281 578.37C265.631 578.87 264.811 579.12 263.821 579.12C263.051 579.12 262.361 578.95 261.751 578.61C261.141 578.26 260.661 577.77 260.311 577.14C259.971 576.5 259.801 575.755 259.801 574.905C259.801 574.055 259.971 573.31 260.311 572.67C260.651 572.03 261.126 571.54 261.736 571.2C262.346 570.86 263.041 570.69 263.821 570.69C264.601 570.69 265.281 570.86 265.861 571.2C266.451 571.54 266.901 572 267.211 572.58C267.531 573.15 267.691 573.785 267.691 574.485ZM266.626 574.455C266.636 573.845 266.511 573.325 266.251 572.895C266.001 572.465 265.656 572.14 265.216 571.92C264.776 571.7 264.296 571.59 263.776 571.59C262.996 571.59 262.331 571.84 261.781 572.34C261.231 572.84 260.926 573.545 260.866 574.455H266.626ZM273.452 570.66C274.432 570.66 275.232 570.965 275.852 571.575C276.472 572.175 276.782 573.05 276.782 574.2V579H275.747V574.32C275.747 573.43 275.522 572.75 275.072 572.28C274.632 571.81 274.027 571.575 273.257 571.575C272.467 571.575 271.837 571.825 271.367 572.325C270.897 572.825 270.662 573.56 270.662 574.53V579H269.612V570.81H270.662V572.205C270.922 571.705 271.297 571.325 271.787 571.065C272.277 570.795 272.832 570.66 273.452 570.66ZM282.539 570.69C283.309 570.69 283.979 570.87 284.549 571.23C285.119 571.59 285.529 572.045 285.779 572.595V570.81H286.829V579.21C286.829 579.96 286.664 580.625 286.334 581.205C286.014 581.785 285.564 582.23 284.984 582.54C284.404 582.86 283.744 583.02 283.004 583.02C281.954 583.02 281.079 582.77 280.379 582.27C279.689 581.77 279.259 581.09 279.089 580.23H280.124C280.304 580.8 280.644 581.255 281.144 581.595C281.654 581.935 282.274 582.105 283.004 582.105C283.534 582.105 284.009 581.99 284.429 581.76C284.849 581.54 285.179 581.21 285.419 580.77C285.659 580.33 285.779 579.81 285.779 579.21V577.185C285.519 577.745 285.104 578.21 284.534 578.58C283.974 578.94 283.309 579.12 282.539 579.12C281.789 579.12 281.114 578.945 280.514 578.595C279.924 578.245 279.459 577.75 279.119 577.11C278.789 576.47 278.624 575.73 278.624 574.89C278.624 574.05 278.789 573.315 279.119 572.685C279.459 572.045 279.924 571.555 280.514 571.215C281.114 570.865 281.789 570.69 282.539 570.69ZM285.779 574.905C285.779 574.245 285.644 573.665 285.374 573.165C285.104 572.665 284.734 572.28 284.264 572.01C283.804 571.74 283.294 571.605 282.734 571.605C282.154 571.605 281.634 571.735 281.174 571.995C280.714 572.255 280.349 572.635 280.079 573.135C279.819 573.625 279.689 574.21 279.689 574.89C279.689 575.56 279.819 576.15 280.079 576.66C280.349 577.16 280.714 577.545 281.174 577.815C281.634 578.075 282.154 578.205 282.734 578.205C283.294 578.205 283.804 578.07 284.264 577.8C284.734 577.53 285.104 577.145 285.374 576.645C285.644 576.145 285.779 575.565 285.779 574.905ZM288.746 574.89C288.746 574.05 288.911 573.315 289.241 572.685C289.581 572.045 290.046 571.555 290.636 571.215C291.236 570.865 291.911 570.69 292.661 570.69C293.441 570.69 294.111 570.87 294.671 571.23C295.241 571.59 295.651 572.05 295.901 572.61V570.81H296.951V579H295.901V577.185C295.641 577.745 295.226 578.21 294.656 578.58C294.096 578.94 293.426 579.12 292.646 579.12C291.906 579.12 291.236 578.945 290.636 578.595C290.046 578.245 289.581 577.75 289.241 577.11C288.911 576.47 288.746 575.73 288.746 574.89ZM295.901 574.905C295.901 574.245 295.766 573.665 295.496 573.165C295.226 572.665 294.856 572.28 294.386 572.01C293.926 571.74 293.416 571.605 292.856 571.605C292.276 571.605 291.756 571.735 291.296 571.995C290.836 572.255 290.471 572.635 290.201 573.135C289.941 573.625 289.811 574.21 289.811 574.89C289.811 575.56 289.941 576.15 290.201 576.66C290.471 577.16 290.836 577.545 291.296 577.815C291.756 578.075 292.276 578.205 292.856 578.205C293.416 578.205 293.926 578.07 294.386 577.8C294.856 577.53 295.226 577.145 295.496 576.645C295.766 576.145 295.901 575.565 295.901 574.905ZM303.188 570.66C304.168 570.66 304.968 570.965 305.588 571.575C306.208 572.175 306.518 573.05 306.518 574.2V579H305.483V574.32C305.483 573.43 305.258 572.75 304.808 572.28C304.368 571.81 303.763 571.575 302.993 571.575C302.203 571.575 301.573 571.825 301.103 572.325C300.633 572.825 300.398 573.56 300.398 574.53V579H299.348V570.81H300.398V572.205C300.658 571.705 301.033 571.325 301.523 571.065C302.013 570.795 302.568 570.66 303.188 570.66ZM71.2992 592.265C71.0892 592.265 70.9092 592.19 70.7592 592.04C70.6092 591.89 70.5342 591.705 70.5342 591.485C70.5342 591.265 70.6092 591.085 70.7592 590.945C70.9092 590.795 71.0892 590.72 71.2992 590.72C71.5092 590.72 71.6892 590.795 71.8392 590.945C71.9892 591.085 72.0642 591.265 72.0642 591.485C72.0642 591.705 71.9892 591.89 71.8392 592.04C71.6892 592.19 71.5092 592.265 71.2992 592.265ZM71.8242 593.81V602H70.7742V593.81H71.8242ZM78.042 593.66C79.022 593.66 79.822 593.965 80.442 594.575C81.062 595.175 81.372 596.05 81.372 597.2V602H80.337V597.32C80.337 596.43 80.112 595.75 79.662 595.28C79.222 594.81 78.617 594.575 77.847 594.575C77.057 594.575 76.427 594.825 75.957 595.325C75.487 595.825 75.252 596.56 75.252 597.53V602H74.202V593.81H75.252V595.205C75.512 594.705 75.887 594.325 76.377 594.065C76.867 593.795 77.422 593.66 78.042 593.66ZM86.9191 594.695H85.0141V602H83.9641V594.695H82.8241V593.81H83.9641V593.24C83.9641 592.35 84.1891 591.695 84.6391 591.275C85.0991 590.855 85.8391 590.645 86.8591 590.645V591.545C86.1791 591.545 85.6991 591.675 85.4191 591.935C85.1491 592.195 85.0141 592.63 85.0141 593.24V593.81H86.9191V594.695ZM92.1571 602.12C91.3871 602.12 90.6921 601.95 90.0721 601.61C89.4621 601.26 88.9771 600.77 88.6171 600.14C88.2671 599.5 88.0921 598.755 88.0921 597.905C88.0921 597.055 88.2721 596.315 88.6321 595.685C88.9921 595.045 89.4821 594.555 90.1021 594.215C90.7221 593.865 91.4171 593.69 92.1871 593.69C92.9571 593.69 93.6521 593.865 94.2721 594.215C94.9021 594.555 95.3921 595.045 95.7421 595.685C96.1021 596.315 96.2821 597.055 96.2821 597.905C96.2821 598.745 96.1021 599.485 95.7421 600.125C95.3821 600.765 94.8871 601.26 94.2571 601.61C93.6271 601.95 92.9271 602.12 92.1571 602.12ZM92.1571 601.205C92.6971 601.205 93.1971 601.085 93.6571 600.845C94.1171 600.595 94.4871 600.225 94.7671 599.735C95.0571 599.235 95.2021 598.625 95.2021 597.905C95.2021 597.185 95.0621 596.58 94.7821 596.09C94.5021 595.59 94.1321 595.22 93.6721 594.98C93.2121 594.73 92.7121 594.605 92.1721 594.605C91.6321 594.605 91.1321 594.73 90.6721 594.98C90.2121 595.22 89.8421 595.59 89.5621 596.09C89.2921 596.58 89.1571 597.185 89.1571 597.905C89.1571 598.625 89.2921 599.235 89.5621 599.735C89.8421 600.225 90.2071 600.595 90.6571 600.845C91.1171 601.085 91.6171 601.205 92.1571 601.205ZM101.832 597.89C101.832 597.05 101.997 596.315 102.327 595.685C102.667 595.045 103.132 594.555 103.722 594.215C104.322 593.865 104.997 593.69 105.747 593.69C106.527 593.69 107.197 593.87 107.757 594.23C108.327 594.59 108.737 595.05 108.987 595.61V593.81H110.037V602H108.987V600.185C108.727 600.745 108.312 601.21 107.742 601.58C107.182 601.94 106.512 602.12 105.732 602.12C104.992 602.12 104.322 601.945 103.722 601.595C103.132 601.245 102.667 600.75 102.327 600.11C101.997 599.47 101.832 598.73 101.832 597.89ZM108.987 597.905C108.987 597.245 108.852 596.665 108.582 596.165C108.312 595.665 107.942 595.28 107.472 595.01C107.012 594.74 106.502 594.605 105.942 594.605C105.362 594.605 104.842 594.735 104.382 594.995C103.922 595.255 103.557 595.635 103.287 596.135C103.027 596.625 102.897 597.21 102.897 597.89C102.897 598.56 103.027 599.15 103.287 599.66C103.557 600.16 103.922 600.545 104.382 600.815C104.842 601.075 105.362 601.205 105.942 601.205C106.502 601.205 107.012 601.07 107.472 600.8C107.942 600.53 108.312 600.145 108.582 599.645C108.852 599.145 108.987 598.565 108.987 597.905ZM116.859 602L113.484 598.325V602H112.434V590.9H113.484V597.47L116.784 593.81H118.254L114.369 597.89L118.284 602H116.859ZM126.736 593.81V602H125.686V600.56C125.446 601.07 125.076 601.46 124.576 601.73C124.076 602 123.516 602.135 122.896 602.135C121.916 602.135 121.116 601.835 120.496 601.235C119.876 600.625 119.566 599.745 119.566 598.595V593.81H120.601V598.475C120.601 599.365 120.821 600.045 121.261 600.515C121.711 600.985 122.321 601.22 123.091 601.22C123.881 601.22 124.511 600.97 124.981 600.47C125.451 599.97 125.686 599.235 125.686 598.265V593.81H126.736ZM130.184 595.265C130.414 594.755 130.764 594.36 131.234 594.08C131.714 593.8 132.299 593.66 132.989 593.66V594.755H132.704C131.944 594.755 131.334 594.96 130.874 595.37C130.414 595.78 130.184 596.465 130.184 597.425V602H129.134V593.81H130.184V595.265ZM134.088 597.89C134.088 597.05 134.253 596.315 134.583 595.685C134.923 595.045 135.388 594.555 135.978 594.215C136.578 593.865 137.253 593.69 138.003 593.69C138.783 593.69 139.453 593.87 140.013 594.23C140.583 594.59 140.993 595.05 141.243 595.61V593.81H142.293V602H141.243V600.185C140.983 600.745 140.568 601.21 139.998 601.58C139.438 601.94 138.768 602.12 137.988 602.12C137.248 602.12 136.578 601.945 135.978 601.595C135.388 601.245 134.923 600.75 134.583 600.11C134.253 599.47 134.088 598.73 134.088 597.89ZM141.243 597.905C141.243 597.245 141.108 596.665 140.838 596.165C140.568 595.665 140.198 595.28 139.728 595.01C139.268 594.74 138.758 594.605 138.198 594.605C137.618 594.605 137.098 594.735 136.638 594.995C136.178 595.255 135.813 595.635 135.543 596.135C135.283 596.625 135.153 597.21 135.153 597.89C135.153 598.56 135.283 599.15 135.543 599.66C135.813 600.16 136.178 600.545 136.638 600.815C137.098 601.075 137.618 601.205 138.198 601.205C138.758 601.205 139.268 601.07 139.728 600.8C140.198 600.53 140.568 600.145 140.838 599.645C141.108 599.145 141.243 598.565 141.243 597.905ZM146.055 594.695V599.78C146.055 600.28 146.15 600.625 146.34 600.815C146.53 601.005 146.865 601.1 147.345 601.1H148.305V602H147.18C146.44 602 145.89 601.83 145.53 601.49C145.17 601.14 144.99 600.57 144.99 599.78V594.695H143.85V593.81H144.99V591.755H146.055V593.81H148.305V594.695H146.055ZM150.997 600.26L149.437 604.19H148.717L149.827 600.26H150.997ZM159.566 602.12C158.626 602.12 157.856 601.905 157.256 601.475C156.666 601.035 156.336 600.44 156.266 599.69H157.346C157.396 600.15 157.611 600.525 157.991 600.815C158.381 601.095 158.901 601.235 159.551 601.235C160.121 601.235 160.566 601.1 160.886 600.83C161.216 600.56 161.381 600.225 161.381 599.825C161.381 599.545 161.291 599.315 161.111 599.135C160.931 598.955 160.701 598.815 160.421 598.715C160.151 598.605 159.781 598.49 159.311 598.37C158.701 598.21 158.206 598.05 157.826 597.89C157.446 597.73 157.121 597.495 156.851 597.185C156.591 596.865 156.461 596.44 156.461 595.91C156.461 595.51 156.581 595.14 156.821 594.8C157.061 594.46 157.401 594.19 157.841 593.99C158.281 593.79 158.781 593.69 159.341 593.69C160.221 593.69 160.931 593.915 161.471 594.365C162.011 594.805 162.301 595.415 162.341 596.195H161.291C161.261 595.715 161.071 595.33 160.721 595.04C160.381 594.74 159.911 594.59 159.311 594.59C158.781 594.59 158.351 594.715 158.021 594.965C157.691 595.215 157.526 595.525 157.526 595.895C157.526 596.215 157.621 596.48 157.811 596.69C158.011 596.89 158.256 597.05 158.546 597.17C158.836 597.28 159.226 597.405 159.716 597.545C160.306 597.705 160.776 597.86 161.126 598.01C161.476 598.16 161.776 598.38 162.026 598.67C162.276 598.96 162.406 599.345 162.416 599.825C162.416 600.265 162.296 600.66 162.056 601.01C161.816 601.35 161.481 601.62 161.051 601.82C160.621 602.02 160.126 602.12 159.566 602.12ZM171.802 597.485C171.802 597.845 171.792 598.12 171.772 598.31H164.977C165.007 598.93 165.157 599.46 165.427 599.9C165.697 600.34 166.052 600.675 166.492 600.905C166.932 601.125 167.412 601.235 167.932 601.235C168.612 601.235 169.182 601.07 169.642 600.74C170.112 600.41 170.422 599.965 170.572 599.405H171.682C171.482 600.205 171.052 600.86 170.392 601.37C169.742 601.87 168.922 602.12 167.932 602.12C167.162 602.12 166.472 601.95 165.862 601.61C165.252 601.26 164.772 600.77 164.422 600.14C164.082 599.5 163.912 598.755 163.912 597.905C163.912 597.055 164.082 596.31 164.422 595.67C164.762 595.03 165.237 594.54 165.847 594.2C166.457 593.86 167.152 593.69 167.932 593.69C168.712 593.69 169.392 593.86 169.972 594.2C170.562 594.54 171.012 595 171.322 595.58C171.642 596.15 171.802 596.785 171.802 597.485ZM170.737 597.455C170.747 596.845 170.622 596.325 170.362 595.895C170.112 595.465 169.767 595.14 169.327 594.92C168.887 594.7 168.407 594.59 167.887 594.59C167.107 594.59 166.442 594.84 165.892 595.34C165.342 595.84 165.037 596.545 164.977 597.455H170.737ZM176.543 602.12C175.603 602.12 174.833 601.905 174.233 601.475C173.643 601.035 173.313 600.44 173.243 599.69H174.323C174.373 600.15 174.588 600.525 174.968 600.815C175.358 601.095 175.878 601.235 176.528 601.235C177.098 601.235 177.543 601.1 177.863 600.83C178.193 600.56 178.358 600.225 178.358 599.825C178.358 599.545 178.268 599.315 178.088 599.135C177.908 598.955 177.678 598.815 177.398 598.715C177.128 598.605 176.758 598.49 176.288 598.37C175.678 598.21 175.183 598.05 174.803 597.89C174.423 597.73 174.098 597.495 173.828 597.185C173.568 596.865 173.438 596.44 173.438 595.91C173.438 595.51 173.558 595.14 173.798 594.8C174.038 594.46 174.378 594.19 174.818 593.99C175.258 593.79 175.758 593.69 176.318 593.69C177.198 593.69 177.908 593.915 178.448 594.365C178.988 594.805 179.278 595.415 179.318 596.195H178.268C178.238 595.715 178.048 595.33 177.698 595.04C177.358 594.74 176.888 594.59 176.288 594.59C175.758 594.59 175.328 594.715 174.998 594.965C174.668 595.215 174.503 595.525 174.503 595.895C174.503 596.215 174.598 596.48 174.788 596.69C174.988 596.89 175.233 597.05 175.523 597.17C175.813 597.28 176.203 597.405 176.693 597.545C177.283 597.705 177.753 597.86 178.103 598.01C178.453 598.16 178.753 598.38 179.003 598.67C179.253 598.96 179.383 599.345 179.393 599.825C179.393 600.265 179.273 600.66 179.033 601.01C178.793 601.35 178.458 601.62 178.028 601.82C177.598 602.02 177.103 602.12 176.543 602.12ZM188.465 593.81V602H187.415V600.56C187.175 601.07 186.805 601.46 186.305 601.73C185.805 602 185.245 602.135 184.625 602.135C183.645 602.135 182.845 601.835 182.225 601.235C181.605 600.625 181.295 599.745 181.295 598.595V593.81H182.33V598.475C182.33 599.365 182.55 600.045 182.99 600.515C183.44 600.985 184.05 601.22 184.82 601.22C185.61 601.22 186.24 600.97 186.71 600.47C187.18 599.97 187.415 599.235 187.415 598.265V593.81H188.465ZM190.382 597.89C190.382 597.05 190.547 596.315 190.877 595.685C191.217 595.045 191.682 594.555 192.272 594.215C192.872 593.865 193.547 593.69 194.297 593.69C195.077 593.69 195.747 593.87 196.307 594.23C196.877 594.59 197.287 595.05 197.537 595.61V593.81H198.587V602H197.537V600.185C197.277 600.745 196.862 601.21 196.292 601.58C195.732 601.94 195.062 602.12 194.282 602.12C193.542 602.12 192.872 601.945 192.272 601.595C191.682 601.245 191.217 600.75 190.877 600.11C190.547 599.47 190.382 598.73 190.382 597.89ZM197.537 597.905C197.537 597.245 197.402 596.665 197.132 596.165C196.862 595.665 196.492 595.28 196.022 595.01C195.562 594.74 195.052 594.605 194.492 594.605C193.912 594.605 193.392 594.735 192.932 594.995C192.472 595.255 192.107 595.635 191.837 596.135C191.577 596.625 191.447 597.21 191.447 597.89C191.447 598.56 191.577 599.15 191.837 599.66C192.107 600.16 192.472 600.545 192.932 600.815C193.392 601.075 193.912 601.205 194.492 601.205C195.052 601.205 195.562 601.07 196.022 600.8C196.492 600.53 196.862 600.145 197.132 599.645C197.402 599.145 197.537 598.565 197.537 597.905ZM201.509 592.265C201.299 592.265 201.119 592.19 200.969 592.04C200.819 591.89 200.744 591.705 200.744 591.485C200.744 591.265 200.819 591.085 200.969 590.945C201.119 590.795 201.299 590.72 201.509 590.72C201.719 590.72 201.899 590.795 202.049 590.945C202.199 591.085 202.274 591.265 202.274 591.485C202.274 591.705 202.199 591.89 202.049 592.04C201.899 592.19 201.719 592.265 201.509 592.265ZM202.034 593.81V602H200.984V593.81H202.034ZM212.953 602L209.578 598.325V602H208.528V590.9H209.578V597.47L212.878 593.81H214.348L210.463 597.89L214.378 602H212.953ZM223.145 597.485C223.145 597.845 223.135 598.12 223.115 598.31H216.32C216.35 598.93 216.5 599.46 216.77 599.9C217.04 600.34 217.395 600.675 217.835 600.905C218.275 601.125 218.755 601.235 219.275 601.235C219.955 601.235 220.525 601.07 220.985 600.74C221.455 600.41 221.765 599.965 221.915 599.405H223.025C222.825 600.205 222.395 600.86 221.735 601.37C221.085 601.87 220.265 602.12 219.275 602.12C218.505 602.12 217.815 601.95 217.205 601.61C216.595 601.26 216.115 600.77 215.765 600.14C215.425 599.5 215.255 598.755 215.255 597.905C215.255 597.055 215.425 596.31 215.765 595.67C216.105 595.03 216.58 594.54 217.19 594.2C217.8 593.86 218.495 593.69 219.275 593.69C220.055 593.69 220.735 593.86 221.315 594.2C221.905 594.54 222.355 595 222.665 595.58C222.985 596.15 223.145 596.785 223.145 597.485ZM222.08 597.455C222.09 596.845 221.965 596.325 221.705 595.895C221.455 595.465 221.11 595.14 220.67 594.92C220.23 594.7 219.75 594.59 219.23 594.59C218.45 594.59 217.785 594.84 217.235 595.34C216.685 595.84 216.38 596.545 216.32 597.455H222.08ZM226.101 595.625C226.371 595.055 226.786 594.59 227.346 594.23C227.916 593.87 228.586 593.69 229.356 593.69C230.106 593.69 230.776 593.865 231.366 594.215C231.956 594.555 232.416 595.045 232.746 595.685C233.086 596.315 233.256 597.05 233.256 597.89C233.256 598.73 233.086 599.47 232.746 600.11C232.416 600.75 231.951 601.245 231.351 601.595C230.761 601.945 230.096 602.12 229.356 602.12C228.576 602.12 227.901 601.945 227.331 601.595C226.771 601.235 226.361 600.77 226.101 600.2V602H225.066V590.9H226.101V595.625ZM232.191 597.89C232.191 597.21 232.056 596.625 231.786 596.135C231.526 595.635 231.166 595.255 230.706 594.995C230.246 594.735 229.726 594.605 229.146 594.605C228.586 594.605 228.071 594.74 227.601 595.01C227.141 595.28 226.776 595.665 226.506 596.165C226.236 596.665 226.101 597.245 226.101 597.905C226.101 598.565 226.236 599.145 226.506 599.645C226.776 600.145 227.141 600.53 227.601 600.8C228.071 601.07 228.586 601.205 229.146 601.205C229.726 601.205 230.246 601.075 230.706 600.815C231.166 600.545 231.526 600.16 231.786 599.66C232.056 599.15 232.191 598.56 232.191 597.89ZM242.283 593.81V602H241.233V600.56C240.993 601.07 240.623 601.46 240.123 601.73C239.623 602 239.063 602.135 238.443 602.135C237.463 602.135 236.663 601.835 236.043 601.235C235.423 600.625 235.113 599.745 235.113 598.595V593.81H236.148V598.475C236.148 599.365 236.368 600.045 236.808 600.515C237.258 600.985 237.868 601.22 238.638 601.22C239.428 601.22 240.058 600.97 240.528 600.47C240.998 599.97 241.233 599.235 241.233 598.265V593.81H242.283ZM246.045 594.695V599.78C246.045 600.28 246.14 600.625 246.33 600.815C246.52 601.005 246.855 601.1 247.335 601.1H248.295V602H247.17C246.43 602 245.88 601.83 245.52 601.49C245.16 601.14 244.98 600.57 244.98 599.78V594.695H243.84V593.81H244.98V591.755H246.045V593.81H248.295V594.695H246.045ZM257.122 593.81V602H256.072V600.56C255.832 601.07 255.462 601.46 254.962 601.73C254.462 602 253.902 602.135 253.282 602.135C252.302 602.135 251.502 601.835 250.882 601.235C250.262 600.625 249.952 599.745 249.952 598.595V593.81H250.987V598.475C250.987 599.365 251.207 600.045 251.647 600.515C252.097 600.985 252.707 601.22 253.477 601.22C254.267 601.22 254.897 600.97 255.367 600.47C255.837 599.97 256.072 599.235 256.072 598.265V593.81H257.122ZM263.419 593.66C264.039 593.66 264.594 593.79 265.084 594.05C265.584 594.31 265.974 594.71 266.254 595.25C266.544 595.78 266.689 596.43 266.689 597.2V602H265.654V597.32C265.654 596.43 265.429 595.75 264.979 595.28C264.539 594.81 263.934 594.575 263.164 594.575C262.374 594.575 261.744 594.825 261.274 595.325C260.804 595.825 260.569 596.56 260.569 597.53V602H259.519V590.9H260.569V595.205C260.829 594.715 261.209 594.335 261.709 594.065C262.219 593.795 262.789 593.66 263.419 593.66ZM268.532 597.89C268.532 597.05 268.697 596.315 269.027 595.685C269.367 595.045 269.832 594.555 270.422 594.215C271.022 593.865 271.697 593.69 272.447 593.69C273.227 593.69 273.897 593.87 274.457 594.23C275.027 594.59 275.437 595.05 275.687 595.61V593.81H276.737V602H275.687V600.185C275.427 600.745 275.012 601.21 274.442 601.58C273.882 601.94 273.212 602.12 272.432 602.12C271.692 602.12 271.022 601.945 270.422 601.595C269.832 601.245 269.367 600.75 269.027 600.11C268.697 599.47 268.532 598.73 268.532 597.89ZM275.687 597.905C275.687 597.245 275.552 596.665 275.282 596.165C275.012 595.665 274.642 595.28 274.172 595.01C273.712 594.74 273.202 594.605 272.642 594.605C272.062 594.605 271.542 594.735 271.082 594.995C270.622 595.255 270.257 595.635 269.987 596.135C269.727 596.625 269.597 597.21 269.597 597.89C269.597 598.56 269.727 599.15 269.987 599.66C270.257 600.16 270.622 600.545 271.082 600.815C271.542 601.075 272.062 601.205 272.642 601.205C273.202 601.205 273.712 601.07 274.172 600.8C274.642 600.53 275.012 600.145 275.282 599.645C275.552 599.145 275.687 598.565 275.687 597.905ZM282.974 593.66C283.954 593.66 284.754 593.965 285.374 594.575C285.994 595.175 286.304 596.05 286.304 597.2V602H285.269V597.32C285.269 596.43 285.044 595.75 284.594 595.28C284.154 594.81 283.549 594.575 282.779 594.575C281.989 594.575 281.359 594.825 280.889 595.325C280.419 595.825 280.184 596.56 280.184 597.53V602H279.134V593.81H280.184V595.205C280.444 594.705 280.819 594.325 281.309 594.065C281.799 593.795 282.354 593.66 282.974 593.66ZM164.652 622.51H159.882L158.967 625H157.857L161.682 614.65H162.867L166.677 625H165.567L164.652 622.51ZM164.337 621.64L162.267 615.97L160.197 621.64H164.337ZM172.202 616.66C173.182 616.66 173.982 616.965 174.602 617.575C175.222 618.175 175.532 619.05 175.532 620.2V625H174.497V620.32C174.497 619.43 174.272 618.75 173.822 618.28C173.382 617.81 172.777 617.575 172.007 617.575C171.217 617.575 170.587 617.825 170.117 618.325C169.647 618.825 169.412 619.56 169.412 620.53V625H168.362V616.81H169.412V618.205C169.672 617.705 170.047 617.325 170.537 617.065C171.027 616.795 171.582 616.66 172.202 616.66ZM177.374 620.89C177.374 620.05 177.544 619.315 177.884 618.685C178.224 618.045 178.689 617.555 179.279 617.215C179.879 616.865 180.554 616.69 181.304 616.69C182.024 616.69 182.674 616.865 183.254 617.215C183.834 617.565 184.259 618.02 184.529 618.58V613.9H185.579V625H184.529V623.17C184.279 623.74 183.869 624.21 183.299 624.58C182.729 624.94 182.059 625.12 181.289 625.12C180.539 625.12 179.864 624.945 179.264 624.595C178.674 624.245 178.209 623.75 177.869 623.11C177.539 622.47 177.374 621.73 177.374 620.89ZM184.529 620.905C184.529 620.245 184.394 619.665 184.124 619.165C183.854 618.665 183.484 618.28 183.014 618.01C182.554 617.74 182.044 617.605 181.484 617.605C180.904 617.605 180.384 617.735 179.924 617.995C179.464 618.255 179.099 618.635 178.829 619.135C178.569 619.625 178.439 620.21 178.439 620.89C178.439 621.56 178.569 622.15 178.829 622.66C179.099 623.16 179.464 623.545 179.924 623.815C180.384 624.075 180.904 624.205 181.484 624.205C182.044 624.205 182.554 624.07 183.014 623.8C183.484 623.53 183.854 623.145 184.124 622.645C184.394 622.145 184.529 621.565 184.529 620.905ZM187.496 620.89C187.496 620.05 187.661 619.315 187.991 618.685C188.331 618.045 188.796 617.555 189.386 617.215C189.986 616.865 190.661 616.69 191.411 616.69C192.191 616.69 192.861 616.87 193.421 617.23C193.991 617.59 194.401 618.05 194.651 618.61V616.81H195.701V625H194.651V623.185C194.391 623.745 193.976 624.21 193.406 624.58C192.846 624.94 192.176 625.12 191.396 625.12C190.656 625.12 189.986 624.945 189.386 624.595C188.796 624.245 188.331 623.75 187.991 623.11C187.661 622.47 187.496 621.73 187.496 620.89ZM194.651 620.905C194.651 620.245 194.516 619.665 194.246 619.165C193.976 618.665 193.606 618.28 193.136 618.01C192.676 617.74 192.166 617.605 191.606 617.605C191.026 617.605 190.506 617.735 190.046 617.995C189.586 618.255 189.221 618.635 188.951 619.135C188.691 619.625 188.561 620.21 188.561 620.89C188.561 621.56 188.691 622.15 188.951 622.66C189.221 623.16 189.586 623.545 190.046 623.815C190.506 624.075 191.026 624.205 191.606 624.205C192.166 624.205 192.676 624.07 193.136 623.8C193.606 623.53 193.976 623.145 194.246 622.645C194.516 622.145 194.651 621.565 194.651 620.905ZM198.278 625.075C198.058 625.075 197.873 625 197.723 624.85C197.583 624.7 197.513 624.515 197.513 624.295C197.513 624.075 197.583 623.895 197.723 623.755C197.873 623.605 198.058 623.53 198.278 623.53C198.488 623.53 198.663 623.605 198.803 623.755C198.953 623.895 199.028 624.075 199.028 624.295C199.028 624.515 198.953 624.7 198.803 624.85C198.663 625 198.488 625.075 198.278 625.075Z" fill="#373737"/>
<g clip-path="url(#clip0_384_172)">
<path d="M194.697 187.564L165.61 187.564C162.911 187.57 160.713 189.764 160.715 192.463L160.715 197.31C160.717 198.617 161.226 199.847 162.151 200.773C163.076 201.698 164.307 202.207 165.614 202.205L182.577 202.208C183.942 202.208 185.049 201.101 185.051 199.735C185.051 198.37 183.942 197.261 182.577 197.261L165.661 197.308L165.61 192.512L194.647 192.461L194.699 197.263L192.277 197.258C191.618 197.258 190.989 197.518 190.526 197.982L190.524 197.983C190.059 198.449 189.798 199.077 189.8 199.731L189.798 216.7C189.796 219.18 189.798 224.991 195.37 230.563L202.642 237.834C206.617 241.81 209.186 247.785 209.184 253.053L209.186 340.297C209.186 344.15 205.822 347.518 201.965 347.518H158.342C154.36 347.518 151.121 344.279 151.121 340.297V253.051C151.121 247.784 153.692 241.811 157.668 237.834L164.94 230.562C170.509 224.993 170.51 219.18 170.507 216.697L170.512 209.419C170.512 208.051 169.405 206.944 168.039 206.945C166.672 206.944 165.567 208.053 165.563 209.417L165.561 216.699C165.561 219.036 165.563 222.943 161.442 227.064L154.17 234.336C149.24 239.266 146.175 246.438 146.173 253.05L146.177 340.297C146.175 347.006 151.633 352.464 158.344 352.464L201.963 352.464C205.213 352.464 208.27 351.198 210.568 348.9C212.866 346.602 214.132 343.545 214.13 340.297L214.132 253.053C214.134 246.441 211.072 239.268 206.14 234.336L198.868 227.065C194.744 222.94 194.744 219.034 194.744 216.698L194.745 202.208C197.417 202.182 199.589 199.997 199.59 197.311L199.594 192.458C199.59 189.764 197.393 187.566 194.697 187.564Z" fill="white"/>
<path d="M106.989 351.868H91.3971C89.7825 351.868 88.4736 353.177 88.4736 354.792C88.4736 356.406 89.7825 357.715 91.3971 357.715H106.989C108.604 357.715 109.913 356.406 109.913 354.792C109.913 353.177 108.604 351.868 106.989 351.868Z" fill="white"/>
<path d="M163.41 305.473V289.881C163.41 288.266 162.101 286.958 160.487 286.958C158.872 286.958 157.563 288.266 157.563 289.881V305.473C157.563 307.088 158.872 308.397 160.487 308.397C162.101 308.397 163.41 307.088 163.41 305.473Z" fill="white"/>
<path d="M163.41 295.17V279.578C163.41 277.963 162.101 276.655 160.487 276.655C158.872 276.655 157.563 277.963 157.563 279.578V295.17C157.563 296.785 158.872 298.094 160.487 298.094C162.101 298.094 163.41 296.785 163.41 295.17Z" fill="white"/>
<path d="M203.943 305.473V289.881C203.943 288.266 202.635 286.958 201.02 286.958C199.405 286.958 198.096 288.266 198.096 289.881V305.473C198.096 307.088 199.405 308.397 201.02 308.397C202.635 308.397 203.943 307.088 203.943 305.473Z" fill="#ECFEAA"/>
<path d="M203.943 295.17V279.578C203.943 277.963 202.635 276.655 201.02 276.655C199.405 276.655 198.096 277.963 198.096 279.578V295.17C198.096 296.785 199.405 298.094 201.02 298.094C202.635 298.094 203.943 296.785 203.943 295.17Z" fill="#ECFEAA"/>
<path d="M173.273 313.977V298.385C173.273 296.771 171.964 295.462 170.349 295.462C168.735 295.462 167.426 296.771 167.426 298.385V313.977C167.426 315.592 168.735 316.901 170.349 316.901C171.964 316.901 173.273 315.592 173.273 313.977Z" fill="#ECFEAA"/>
<path d="M173.273 303.674V288.082C173.273 286.468 171.964 285.159 170.349 285.159C168.735 285.159 167.426 286.468 167.426 288.082V303.674C167.426 305.289 168.735 306.598 170.349 306.598C171.964 306.598 173.273 305.289 173.273 303.674Z" fill="#ECFEAA"/>
<path d="M183.576 313.977V298.385C183.576 296.771 182.267 295.462 180.652 295.462C179.037 295.462 177.728 296.771 177.728 298.385V313.977C177.728 315.592 179.037 316.901 180.652 316.901C182.267 316.901 183.576 315.592 183.576 313.977Z" fill="#ECFEAA"/>
<path d="M183.576 303.674V288.082C183.576 286.468 182.267 285.159 180.652 285.159C179.037 285.159 177.728 286.468 177.728 288.082V303.674C177.728 305.289 179.037 306.598 180.652 306.598C182.267 306.598 183.576 305.289 183.576 303.674Z" fill="#ECFEAA"/>
<path d="M193.878 313.977V298.385C193.878 296.771 192.569 295.462 190.955 295.462C189.34 295.462 188.031 296.771 188.031 298.385V313.977C188.031 315.592 189.34 316.901 190.955 316.901C192.569 316.901 193.878 315.592 193.878 313.977Z" fill="#ECFEAA"/>
<path d="M193.878 303.674V288.082C193.878 286.468 192.569 285.159 190.955 285.159C189.34 285.159 188.031 286.468 188.031 288.082V303.674C188.031 305.289 189.34 306.598 190.955 306.598C192.569 306.598 193.878 305.289 193.878 303.674Z" fill="#ECFEAA"/>
</g>
<g clip-path="url(#clip1_384_172)">
<path d="M141.683 216.557C134.763 219.445 126.879 216.34 124.076 209.622C121.273 202.904 124.611 195.117 131.531 192.229C138.451 189.341 146.335 192.446 149.138 199.164C150.414 202.222 150.418 205.506 149.388 208.445C150.277 210.147 151.586 211.874 152.746 213.095C153.005 213.367 152.916 213.828 152.581 213.903C148.779 214.734 146.267 214.624 145.139 214.491C144.088 215.347 142.926 216.042 141.683 216.557Z" fill="#253C78"/>
<g clip-path="url(#clip2_384_172)">
<path d="M138.223 194.845L134.983 194.845C134.682 194.846 134.437 195.09 134.438 195.391L134.438 195.931C134.438 196.077 134.494 196.214 134.597 196.317C134.701 196.42 134.838 196.477 134.983 196.476L136.873 196.477C137.025 196.477 137.148 196.353 137.149 196.201C137.149 196.049 137.025 195.926 136.873 195.926L134.988 195.931L134.983 195.397L138.218 195.391L138.223 195.926L137.954 195.925C137.88 195.925 137.81 195.954 137.758 196.006L137.758 196.006C137.706 196.058 137.677 196.128 137.678 196.201L137.677 198.091C137.677 198.367 137.677 199.015 138.298 199.636L139.108 200.446C139.551 200.888 139.837 201.554 139.837 202.141L139.837 211.86C139.837 212.29 139.463 212.665 139.033 212.665L134.173 212.665C133.73 212.665 133.369 212.304 133.369 211.86L133.369 202.141C133.369 201.554 133.655 200.889 134.098 200.446L134.908 199.635C135.529 199.015 135.529 198.367 135.528 198.091L135.529 197.28C135.529 197.128 135.406 197.004 135.253 197.004C135.101 197.004 134.978 197.128 134.978 197.28L134.977 198.091C134.977 198.351 134.978 198.787 134.518 199.246L133.708 200.056C133.159 200.605 132.818 201.404 132.817 202.141L132.818 211.86C132.818 212.608 133.426 213.216 134.173 213.216L139.033 213.216C139.395 213.216 139.735 213.075 139.991 212.819C140.247 212.563 140.388 212.222 140.388 211.86L140.388 202.141C140.389 201.404 140.047 200.605 139.498 200.056L138.688 199.246C138.228 198.786 138.228 198.351 138.228 198.091L138.229 196.477C138.526 196.474 138.768 196.23 138.768 195.931L138.769 195.391C138.768 195.09 138.523 194.846 138.223 194.845Z" fill="white"/>
<path d="M128.452 213.149H126.715C126.535 213.149 126.39 213.295 126.39 213.475C126.39 213.655 126.535 213.801 126.715 213.801H128.452C128.632 213.801 128.778 213.655 128.778 213.475C128.778 213.295 128.632 213.149 128.452 213.149Z" fill="white"/>
<path d="M134.738 207.981V206.244C134.738 206.064 134.592 205.918 134.412 205.918C134.232 205.918 134.086 206.064 134.086 206.244V207.981C134.086 208.161 134.232 208.306 134.412 208.306C134.592 208.306 134.738 208.161 134.738 207.981Z" fill="white"/>
<path d="M134.738 206.833V205.096C134.738 204.916 134.592 204.77 134.412 204.77C134.232 204.77 134.086 204.916 134.086 205.096V206.833C134.086 207.013 134.232 207.159 134.412 207.159C134.592 207.159 134.738 207.013 134.738 206.833Z" fill="white"/>
<path d="M139.253 207.981V206.244C139.253 206.064 139.107 205.918 138.928 205.918C138.748 205.918 138.602 206.064 138.602 206.244V207.981C138.602 208.161 138.748 208.306 138.928 208.306C139.107 208.306 139.253 208.161 139.253 207.981Z" fill="#DDF093"/>
<path d="M139.253 206.833V205.096C139.253 204.916 139.107 204.77 138.928 204.77C138.748 204.77 138.602 204.916 138.602 205.096V206.833C138.602 207.013 138.748 207.159 138.928 207.159C139.107 207.159 139.253 207.013 139.253 206.833Z" fill="#DDF093"/>
<path d="M135.836 208.928V207.191C135.836 207.011 135.691 206.865 135.511 206.865C135.331 206.865 135.185 207.011 135.185 207.191V208.928C135.185 209.108 135.331 209.254 135.511 209.254C135.691 209.254 135.836 209.108 135.836 208.928Z" fill="#DDF093"/>
<path d="M135.836 207.78V206.043C135.836 205.864 135.691 205.718 135.511 205.718C135.331 205.718 135.185 205.864 135.185 206.043V207.78C135.185 207.96 135.331 208.106 135.511 208.106C135.691 208.106 135.836 207.96 135.836 207.78Z" fill="#DDF093"/>
<path d="M136.984 208.928V207.191C136.984 207.011 136.838 206.865 136.659 206.865C136.479 206.865 136.333 207.011 136.333 207.191V208.928C136.333 209.108 136.479 209.254 136.659 209.254C136.838 209.254 136.984 209.108 136.984 208.928Z" fill="#DDF093"/>
<path d="M136.984 207.78V206.043C136.984 205.864 136.838 205.718 136.659 205.718C136.479 205.718 136.333 205.864 136.333 206.043V207.78C136.333 207.96 136.479 208.106 136.659 208.106C136.838 208.106 136.984 207.96 136.984 207.78Z" fill="#DDF093"/>
<path d="M138.132 208.928V207.191C138.132 207.011 137.986 206.865 137.806 206.865C137.626 206.865 137.481 207.011 137.481 207.191V208.928C137.481 209.108 137.626 209.254 137.806 209.254C137.986 209.254 138.132 209.108 138.132 208.928Z" fill="#DDF093"/>
<path d="M138.132 207.78V206.043C138.132 205.864 137.986 205.718 137.806 205.718C137.626 205.718 137.481 205.864 137.481 206.043V207.78C137.481 207.96 137.626 208.106 137.806 208.106C137.986 208.106 138.132 207.96 138.132 207.78Z" fill="#DDF093"/>
</g>
</g>
<g clip-path="url(#clip3_384_172)">
<path d="M110.962 305.167C94.6533 311.972 76.0746 304.656 69.4681 288.823C62.8615 272.991 70.7287 254.639 87.0377 247.833C103.347 241.028 121.925 248.345 128.532 264.177C131.54 271.384 131.548 279.122 129.121 286.05C131.215 290.061 134.3 294.13 137.035 297.008C137.645 297.648 137.436 298.736 136.646 298.911C127.686 300.871 121.765 300.611 119.107 300.297C116.63 302.316 113.892 303.953 110.962 305.167Z" fill="#253C78"/>
<g clip-path="url(#clip4_384_172)">
<path d="M103.05 250.178L94.2311 250.178C93.4127 250.18 92.7464 250.845 92.7469 251.663L92.7469 253.133C92.7475 253.529 92.9017 253.902 93.1822 254.183C93.4627 254.463 93.8359 254.617 94.2322 254.617L99.3751 254.618C99.7888 254.618 100.125 254.282 100.125 253.868C100.125 253.454 99.7888 253.118 99.3751 253.118L94.2464 253.132L94.2311 251.678L103.034 251.663L103.05 253.119L102.316 253.117C102.116 253.117 101.925 253.196 101.785 253.337L101.784 253.337C101.643 253.478 101.564 253.669 101.565 253.867L101.564 259.012C101.564 259.764 101.564 261.525 103.254 263.215L105.458 265.419C106.664 266.624 107.443 268.436 107.442 270.033L107.443 296.484C107.443 297.652 106.423 298.673 105.253 298.673L92.0275 298.673C90.8202 298.673 89.8381 297.691 89.8381 296.484L89.8381 270.032C89.8381 268.436 90.6176 266.625 91.8232 265.419L94.0279 263.214C95.7162 261.526 95.7167 259.763 95.7157 259.011L95.7173 256.804C95.7173 256.389 95.3815 256.054 94.9673 256.054C94.5531 256.054 94.2178 256.39 94.2168 256.804L94.2162 259.011C94.2162 259.72 94.2167 260.904 92.9673 262.154L90.7627 264.358C89.268 265.853 88.3386 268.028 88.338 270.032L88.3392 296.484C88.3387 298.518 89.9933 300.173 92.028 300.173L105.253 300.173C106.238 300.173 107.165 299.789 107.861 299.092C108.558 298.396 108.942 297.469 108.941 296.484L108.942 270.033C108.943 268.028 108.014 265.854 106.519 264.359L104.314 262.154C103.064 260.904 103.064 259.719 103.064 259.011L103.064 254.618C103.874 254.61 104.533 253.947 104.533 253.133L104.534 251.662C104.533 250.845 103.867 250.179 103.05 250.178Z" fill="white"/>
<path d="M76.4582 299.992H71.7309C71.2414 299.992 70.8445 300.389 70.8445 300.879C70.8445 301.368 71.2414 301.765 71.7309 301.765H76.4582C76.9477 301.765 77.3445 301.368 77.3445 300.879C77.3445 300.389 76.9477 299.992 76.4582 299.992Z" fill="white"/>
<path d="M93.564 285.926V281.199C93.564 280.709 93.1672 280.312 92.6777 280.312C92.1882 280.312 91.7913 280.709 91.7913 281.199V285.926C91.7913 286.415 92.1882 286.812 92.6777 286.812C93.1672 286.812 93.564 286.415 93.564 285.926Z" fill="white"/>
<path d="M93.564 282.802V278.075C93.564 277.586 93.1672 277.189 92.6777 277.189C92.1882 277.189 91.7913 277.586 91.7913 278.075V282.802C91.7913 283.292 92.1882 283.689 92.6777 283.689C93.1672 283.689 93.564 283.292 93.564 282.802Z" fill="white"/>
<path d="M105.853 285.926V281.199C105.853 280.709 105.456 280.312 104.967 280.312C104.477 280.312 104.08 280.709 104.08 281.199V285.926C104.08 286.415 104.477 286.812 104.967 286.812C105.456 286.812 105.853 286.415 105.853 285.926Z" fill="#DDF093"/>
<path d="M105.853 282.802V278.075C105.853 277.586 105.456 277.189 104.967 277.189C104.477 277.189 104.08 277.586 104.08 278.075V282.802C104.08 283.292 104.477 283.689 104.967 283.689C105.456 283.689 105.853 283.292 105.853 282.802Z" fill="#DDF093"/>
<path d="M96.5542 288.504V283.777C96.5542 283.287 96.1573 282.891 95.6678 282.891C95.1783 282.891 94.7815 283.287 94.7815 283.777V288.504C94.7815 288.994 95.1783 289.391 95.6678 289.391C96.1573 289.391 96.5542 288.994 96.5542 288.504Z" fill="#DDF093"/>
<path d="M96.5542 285.381V280.653C96.5542 280.164 96.1573 279.767 95.6678 279.767C95.1783 279.767 94.7815 280.164 94.7815 280.653V285.381C94.7815 285.87 95.1783 286.267 95.6678 286.267C96.1573 286.267 96.5542 285.87 96.5542 285.381Z" fill="#DDF093"/>
<path d="M99.6779 288.504V283.777C99.6779 283.287 99.281 282.891 98.7915 282.891C98.302 282.891 97.9051 283.287 97.9051 283.777V288.504C97.9051 288.994 98.302 289.391 98.7915 289.391C99.281 289.391 99.6779 288.994 99.6779 288.504Z" fill="#DDF093"/>
<path d="M99.6779 285.381V280.653C99.6779 280.164 99.281 279.767 98.7915 279.767C98.302 279.767 97.9051 280.164 97.9051 280.653V285.381C97.9051 285.87 98.302 286.267 98.7915 286.267C99.281 286.267 99.6779 285.87 99.6779 285.381Z" fill="#DDF093"/>
<path d="M102.802 288.504V283.777C102.802 283.287 102.405 282.891 101.915 282.891C101.426 282.891 101.029 283.287 101.029 283.777V288.504C101.029 288.994 101.426 289.391 101.915 289.391C102.405 289.391 102.802 288.994 102.802 288.504Z" fill="#DDF093"/>
<path d="M102.802 285.381V280.653C102.802 280.164 102.405 279.767 101.915 279.767C101.426 279.767 101.029 280.164 101.029 280.653V285.381C101.029 285.87 101.426 286.267 101.915 286.267C102.405 286.267 102.802 285.87 102.802 285.381Z" fill="#DDF093"/>
</g>
</g>
<path d="M231.5 214.944C244.478 214.944 255 204.659 255 191.972C255 179.285 244.478 169 231.5 169C218.522 169 208 179.285 208 191.972C208 197.748 210.183 203.031 213.787 207.068C213.502 210.402 212.562 214.058 211.522 216.801C211.29 217.412 211.739 218.094 212.324 217.989C218.951 216.775 222.89 214.911 224.603 213.94C226.852 214.612 229.171 214.95 231.5 214.944Z" fill="#253C78"/>
<g clip-path="url(#clip5_384_172)">
<path d="M235.311 175.532L229.109 175.532C228.533 175.533 228.064 176.001 228.065 176.577L228.065 177.61C228.065 177.889 228.174 178.151 228.371 178.349C228.568 178.546 228.831 178.654 229.109 178.654L232.727 178.655C233.018 178.655 233.254 178.419 233.254 178.127C233.254 177.836 233.018 177.6 232.727 177.6L229.119 177.61L229.109 176.587L235.3 176.576L235.311 177.6L234.795 177.599C234.654 177.599 234.52 177.655 234.422 177.754L234.421 177.754C234.322 177.853 234.266 177.987 234.267 178.127L234.266 181.745C234.266 182.274 234.266 183.513 235.455 184.701L237.005 186.252C237.853 187.099 238.401 188.374 238.4 189.497L238.401 208.101C238.401 208.923 237.683 209.641 236.861 209.641L227.559 209.641C226.71 209.641 226.019 208.95 226.019 208.101L226.019 189.497C226.019 188.373 226.567 187.1 227.415 186.252L228.966 184.701C230.153 183.514 230.153 182.274 230.153 181.745L230.154 180.192C230.154 179.901 229.918 179.665 229.626 179.665C229.335 179.665 229.099 179.901 229.099 180.192L229.098 181.745C229.098 182.243 229.098 183.076 228.22 183.955L226.669 185.506C225.618 186.557 224.964 188.086 224.964 189.496L224.965 208.101C224.964 209.532 226.128 210.695 227.559 210.695L236.861 210.695C237.553 210.695 238.205 210.426 238.695 209.936C239.185 209.445 239.455 208.794 239.455 208.101L239.455 189.497C239.456 188.087 238.803 186.557 237.751 185.506L236.201 183.955C235.321 183.076 235.321 182.243 235.321 181.745L235.321 178.655C235.891 178.649 236.354 178.183 236.355 177.611L236.355 176.576C236.354 176.001 235.886 175.533 235.311 175.532Z" fill="white"/>
<path d="M216.608 210.569H213.283C212.939 210.569 212.66 210.848 212.66 211.192C212.66 211.536 212.939 211.815 213.283 211.815H216.608C216.952 211.815 217.232 211.536 217.232 211.192C217.232 210.848 216.952 210.569 216.608 210.569Z" fill="white"/>
<path d="M228.639 200.675V197.35C228.639 197.006 228.36 196.727 228.016 196.727C227.672 196.727 227.393 197.006 227.393 197.35V200.675C227.393 201.02 227.672 201.299 228.016 201.299C228.36 201.299 228.639 201.02 228.639 200.675Z" fill="white"/>
<path d="M228.639 198.478V195.153C228.639 194.809 228.36 194.53 228.016 194.53C227.672 194.53 227.393 194.809 227.393 195.153V198.478C227.393 198.823 227.672 199.102 228.016 199.102C228.36 199.102 228.639 198.823 228.639 198.478Z" fill="white"/>
<path d="M237.283 200.675V197.35C237.283 197.006 237.004 196.727 236.659 196.727C236.315 196.727 236.036 197.006 236.036 197.35V200.675C236.036 201.02 236.315 201.299 236.659 201.299C237.004 201.299 237.283 201.02 237.283 200.675Z" fill="#DDF093"/>
<path d="M237.283 198.478V195.153C237.283 194.809 237.004 194.53 236.659 194.53C236.315 194.53 236.036 194.809 236.036 195.153V198.478C236.036 198.823 236.315 199.102 236.659 199.102C237.004 199.102 237.283 198.823 237.283 198.478Z" fill="#DDF093"/>
<path d="M230.742 202.489V199.164C230.742 198.82 230.463 198.541 230.119 198.541C229.775 198.541 229.496 198.82 229.496 199.164V202.489C229.496 202.833 229.775 203.112 230.119 203.112C230.463 203.112 230.742 202.833 230.742 202.489Z" fill="#DDF093"/>
<path d="M230.742 200.292V196.967C230.742 196.623 230.463 196.344 230.119 196.344C229.775 196.344 229.496 196.623 229.496 196.967V200.292C229.496 200.636 229.775 200.915 230.119 200.915C230.463 200.915 230.742 200.636 230.742 200.292Z" fill="#DDF093"/>
<path d="M232.939 202.489V199.164C232.939 198.82 232.66 198.541 232.316 198.541C231.972 198.541 231.693 198.82 231.693 199.164V202.489C231.693 202.833 231.972 203.112 232.316 203.112C232.66 203.112 232.939 202.833 232.939 202.489Z" fill="#DDF093"/>
<path d="M232.939 200.292V196.967C232.939 196.623 232.66 196.344 232.316 196.344C231.972 196.344 231.693 196.623 231.693 196.967V200.292C231.693 200.636 231.972 200.915 232.316 200.915C232.66 200.915 232.939 200.636 232.939 200.292Z" fill="#DDF093"/>
<path d="M235.136 202.489V199.164C235.136 198.82 234.857 198.541 234.513 198.541C234.169 198.541 233.89 198.82 233.89 199.164V202.489C233.89 202.833 234.169 203.112 234.513 203.112C234.857 203.112 235.136 202.833 235.136 202.489Z" fill="#DDF093"/>
<path d="M235.136 200.292V196.967C235.136 196.623 234.857 196.344 234.513 196.344C234.169 196.344 233.89 196.623 233.89 196.967V200.292C233.89 200.636 234.169 200.915 234.513 200.915C234.857 200.915 235.136 200.636 235.136 200.292Z" fill="#DDF093"/>
</g>
<g clip-path="url(#clip6_384_172)">
<path d="M242.726 324.122C255.257 336.188 274.928 336.093 286.659 323.909C298.39 311.725 297.74 292.066 285.209 280C272.677 267.934 253.007 268.029 241.276 280.213C235.935 285.76 233.157 292.863 232.905 300.09C229.547 303.027 225.259 305.664 221.718 307.332C220.929 307.703 220.732 308.776 221.394 309.219C228.915 314.214 234.443 316.086 236.995 316.745C238.545 319.483 240.472 321.963 242.726 324.122Z" fill="#253C78"/>
<g clip-path="url(#clip7_384_172)">
<path d="M268.031 275.976L259.212 275.976C258.394 275.977 257.728 276.643 257.728 277.461L257.728 278.93C257.729 279.327 257.883 279.7 258.163 279.98C258.444 280.261 258.817 280.415 259.213 280.415L264.356 280.416C264.77 280.416 265.106 280.08 265.106 279.666C265.106 279.252 264.77 278.916 264.356 278.916L259.228 278.93L259.212 277.476L268.016 277.461L268.031 278.916L267.297 278.915C267.097 278.915 266.907 278.994 266.766 279.134L266.766 279.135C266.625 279.276 266.546 279.466 266.546 279.665L266.545 284.809C266.545 285.561 266.546 287.323 268.235 289.012L270.44 291.217C271.645 292.422 272.424 294.234 272.423 295.831L272.424 322.282C272.424 323.45 271.404 324.471 270.234 324.471L257.009 324.471C255.801 324.471 254.819 323.489 254.819 322.282L254.819 295.83C254.819 294.233 255.599 292.422 256.804 291.217L259.009 289.012C260.697 287.324 260.698 285.561 260.697 284.808L260.698 282.602C260.698 282.187 260.363 281.851 259.948 281.852C259.534 281.851 259.199 282.188 259.198 282.601L259.197 284.809C259.197 285.517 259.198 286.702 257.948 287.951L255.744 290.156C254.249 291.651 253.32 293.825 253.319 295.83L253.32 322.282C253.32 324.316 254.974 325.97 257.009 325.97L270.234 325.97C271.219 325.97 272.146 325.587 272.843 324.89C273.539 324.193 273.923 323.266 273.923 322.282L273.923 295.831C273.924 293.826 272.995 291.651 271.5 290.156L269.295 287.952C268.045 286.701 268.045 285.517 268.045 284.809L268.045 280.416C268.855 280.408 269.514 279.745 269.514 278.931L269.515 277.459C269.514 276.643 268.848 275.976 268.031 275.976Z" fill="white"/>
<path d="M241.439 325.79H236.712C236.223 325.79 235.826 326.187 235.826 326.676C235.826 327.166 236.223 327.563 236.712 327.563H241.439C241.929 327.563 242.326 327.166 242.326 326.676C242.326 326.187 241.929 325.79 241.439 325.79Z" fill="white"/>
<path d="M258.545 311.723V306.996C258.545 306.507 258.148 306.11 257.659 306.11C257.169 306.11 256.772 306.507 256.772 306.996V311.723C256.772 312.213 257.169 312.61 257.659 312.61C258.148 312.61 258.545 312.213 258.545 311.723Z" fill="white"/>
<path d="M258.545 308.6V303.873C258.545 303.383 258.148 302.986 257.659 302.986C257.169 302.986 256.772 303.383 256.772 303.873V308.6C256.772 309.089 257.169 309.486 257.659 309.486C258.148 309.486 258.545 309.089 258.545 308.6Z" fill="white"/>
<path d="M270.834 311.723V306.996C270.834 306.507 270.437 306.11 269.948 306.11C269.458 306.11 269.061 306.507 269.061 306.996V311.723C269.061 312.213 269.458 312.61 269.948 312.61C270.437 312.61 270.834 312.213 270.834 311.723Z" fill="#DDF093"/>
<path d="M270.834 308.6V303.873C270.834 303.383 270.437 302.986 269.948 302.986C269.458 302.986 269.061 303.383 269.061 303.873V308.6C269.061 309.089 269.458 309.486 269.948 309.486C270.437 309.486 270.834 309.089 270.834 308.6Z" fill="#DDF093"/>
<path d="M261.535 314.302V309.575C261.535 309.085 261.138 308.688 260.649 308.688C260.159 308.688 259.763 309.085 259.763 309.575V314.302C259.763 314.791 260.159 315.188 260.649 315.188C261.138 315.188 261.535 314.791 261.535 314.302Z" fill="#DDF093"/>
<path d="M261.535 311.178V306.451C261.535 305.962 261.138 305.565 260.649 305.565C260.159 305.565 259.763 305.962 259.763 306.451V311.178C259.763 311.668 260.159 312.065 260.649 312.065C261.138 312.065 261.535 311.668 261.535 311.178Z" fill="#DDF093"/>
<path d="M264.659 314.302V309.575C264.659 309.085 264.262 308.688 263.773 308.688C263.283 308.688 262.886 309.085 262.886 309.575V314.302C262.886 314.791 263.283 315.188 263.773 315.188C264.262 315.188 264.659 314.791 264.659 314.302Z" fill="#DDF093"/>
<path d="M264.659 311.178V306.451C264.659 305.962 264.262 305.565 263.773 305.565C263.283 305.565 262.886 305.962 262.886 306.451V311.178C262.886 311.668 263.283 312.065 263.773 312.065C264.262 312.065 264.659 311.668 264.659 311.178Z" fill="#DDF093"/>
<path d="M267.783 314.302V309.575C267.783 309.085 267.386 308.688 266.896 308.688C266.407 308.688 266.01 309.085 266.01 309.575V314.302C266.01 314.791 266.407 315.188 266.896 315.188C267.386 315.188 267.783 314.791 267.783 314.302Z" fill="#DDF093"/>
<path d="M267.783 311.178V306.451C267.783 305.962 267.386 305.565 266.896 305.565C266.407 305.565 266.01 305.962 266.01 306.451V311.178C266.01 311.668 266.407 312.065 266.896 312.065C267.386 312.065 267.783 311.668 267.783 311.178Z" fill="#DDF093"/>
</g>
</g>
<defs>
<clipPath id="clip0_384_172">
<rect width="147.301" height="147.301" fill="white" transform="translate(76 275.157) rotate(-45)"/>
</clipPath>
<clipPath id="clip1_384_172">
<rect width="64" height="71" fill="white" transform="matrix(-0.922873 0.385103 0.385103 0.922873 134.064 164)"/>
</clipPath>
<clipPath id="clip2_384_172">
<rect width="16.4098" height="16.4098" fill="white" transform="translate(125 204.604) rotate(-45)"/>
</clipPath>
<clipPath id="clip3_384_172">
<rect width="64" height="71" fill="white" transform="matrix(-0.922873 0.385103 0.385103 0.922873 114.861 231.415)"/>
</clipPath>
<clipPath id="clip4_384_172">
<rect width="44.6591" height="44.6591" fill="white" transform="translate(67.0628 276.735) rotate(-45)"/>
</clipPath>
<clipPath id="clip5_384_172">
<rect width="31.4106" height="31.4106" fill="white" transform="translate(210 194.211) rotate(-45)"/>
</clipPath>
<clipPath id="clip6_384_172">
<rect width="63" height="70" fill="white" transform="translate(265.552 255) rotate(43.9154)"/>
</clipPath>
<clipPath id="clip7_384_172">
<rect width="44.6591" height="44.6591" fill="white" transform="translate(232.044 302.532) rotate(-45)"/>
</clipPath>
</defs>
</svg>
