<svg width="360" height="800" viewBox="0 0 360 800" fill="none" xmlns="http://www.w3.org/2000/svg">
<rect width="360" height="800" fill="#F8F8F8"/>
<path d="M70.7183 566.515V577H69.6683V566.515H70.7183ZM76.936 568.66C77.916 568.66 78.716 568.965 79.336 569.575C79.956 570.175 80.266 571.05 80.266 572.2V577H79.231V572.32C79.231 571.43 79.006 570.75 78.556 570.28C78.116 569.81 77.511 569.575 76.741 569.575C75.951 569.575 75.321 569.825 74.851 570.325C74.381 570.825 74.146 571.56 74.146 572.53V577H73.096V568.81H74.146V570.205C74.406 569.705 74.781 569.325 75.271 569.065C75.761 568.795 76.316 568.66 76.936 568.66ZM85.8132 569.695H83.9082V577H82.8582V569.695H81.7182V568.81H82.8582V568.24C82.8582 567.35 83.0832 566.695 83.5332 566.275C83.9932 565.855 84.7332 565.645 85.7532 565.645V566.545C85.0732 566.545 84.5932 566.675 84.3132 566.935C84.0432 567.195 83.9082 567.63 83.9082 568.24V568.81H85.8132V569.695ZM91.0511 577.12C90.2811 577.12 89.5861 576.95 88.9661 576.61C88.3561 576.26 87.8711 575.77 87.5111 575.14C87.1611 574.5 86.9861 573.755 86.9861 572.905C86.9861 572.055 87.1661 571.315 87.5261 570.685C87.8861 570.045 88.3761 569.555 88.9961 569.215C89.6161 568.865 90.3111 568.69 91.0811 568.69C91.8511 568.69 92.5461 568.865 93.1661 569.215C93.7961 569.555 94.2861 570.045 94.6361 570.685C94.9961 571.315 95.1761 572.055 95.1761 572.905C95.1761 573.745 94.9961 574.485 94.6361 575.125C94.2761 575.765 93.7811 576.26 93.1511 576.61C92.5211 576.95 91.8211 577.12 91.0511 577.12ZM91.0511 576.205C91.5911 576.205 92.0911 576.085 92.5511 575.845C93.0111 575.595 93.3811 575.225 93.6611 574.735C93.9511 574.235 94.0961 573.625 94.0961 572.905C94.0961 572.185 93.9561 571.58 93.6761 571.09C93.3961 570.59 93.0261 570.22 92.5661 569.98C92.1061 569.73 91.6061 569.605 91.0661 569.605C90.5261 569.605 90.0261 569.73 89.5661 569.98C89.1061 570.22 88.7361 570.59 88.4561 571.09C88.1861 571.58 88.0511 572.185 88.0511 572.905C88.0511 573.625 88.1861 574.235 88.4561 574.735C88.7361 575.225 89.1011 575.595 89.5511 575.845C90.0111 576.085 90.5111 576.205 91.0511 576.205ZM102.241 570.61C102.501 570.06 102.911 569.605 103.471 569.245C104.041 568.875 104.716 568.69 105.496 568.69C106.236 568.69 106.901 568.865 107.491 569.215C108.091 569.555 108.556 570.045 108.886 570.685C109.226 571.315 109.396 572.05 109.396 572.89C109.396 573.73 109.226 574.47 108.886 575.11C108.556 575.75 108.091 576.245 107.491 576.595C106.901 576.945 106.236 577.12 105.496 577.12C104.726 577.12 104.056 576.94 103.486 576.58C102.916 576.21 102.501 575.75 102.241 575.2V580.87H101.206V568.81H102.241V570.61ZM108.331 572.89C108.331 572.21 108.196 571.625 107.926 571.135C107.666 570.635 107.306 570.255 106.846 569.995C106.386 569.735 105.866 569.605 105.286 569.605C104.726 569.605 104.211 569.74 103.741 570.01C103.281 570.28 102.916 570.665 102.646 571.165C102.376 571.665 102.241 572.245 102.241 572.905C102.241 573.565 102.376 574.145 102.646 574.645C102.916 575.145 103.281 575.53 103.741 575.8C104.211 576.07 104.726 576.205 105.286 576.205C105.866 576.205 106.386 576.075 106.846 575.815C107.306 575.545 107.666 575.16 107.926 574.66C108.196 574.15 108.331 573.56 108.331 572.89ZM112.378 570.265C112.608 569.755 112.958 569.36 113.428 569.08C113.908 568.8 114.493 568.66 115.183 568.66V569.755H114.898C114.138 569.755 113.528 569.96 113.068 570.37C112.608 570.78 112.378 571.465 112.378 572.425V577H111.328V568.81H112.378V570.265ZM120.348 577.12C119.578 577.12 118.883 576.95 118.263 576.61C117.653 576.26 117.168 575.77 116.808 575.14C116.458 574.5 116.283 573.755 116.283 572.905C116.283 572.055 116.463 571.315 116.823 570.685C117.183 570.045 117.673 569.555 118.293 569.215C118.913 568.865 119.608 568.69 120.378 568.69C121.148 568.69 121.843 568.865 122.463 569.215C123.093 569.555 123.583 570.045 123.933 570.685C124.293 571.315 124.473 572.055 124.473 572.905C124.473 573.745 124.293 574.485 123.933 575.125C123.573 575.765 123.078 576.26 122.448 576.61C121.818 576.95 121.118 577.12 120.348 577.12ZM120.348 576.205C120.888 576.205 121.388 576.085 121.848 575.845C122.308 575.595 122.678 575.225 122.958 574.735C123.248 574.235 123.393 573.625 123.393 572.905C123.393 572.185 123.253 571.58 122.973 571.09C122.693 570.59 122.323 570.22 121.863 569.98C121.403 569.73 120.903 569.605 120.363 569.605C119.823 569.605 119.323 569.73 118.863 569.98C118.403 570.22 118.033 570.59 117.753 571.09C117.483 571.58 117.348 572.185 117.348 572.905C117.348 573.625 117.483 574.235 117.753 574.735C118.033 575.225 118.398 575.595 118.848 575.845C119.308 576.085 119.808 576.205 120.348 576.205ZM125.907 572.89C125.907 572.05 126.077 571.315 126.417 570.685C126.757 570.045 127.222 569.555 127.812 569.215C128.412 568.865 129.087 568.69 129.837 568.69C130.557 568.69 131.207 568.865 131.787 569.215C132.367 569.565 132.792 570.02 133.062 570.58V565.9H134.112V577H133.062V575.17C132.812 575.74 132.402 576.21 131.832 576.58C131.262 576.94 130.592 577.12 129.822 577.12C129.072 577.12 128.397 576.945 127.797 576.595C127.207 576.245 126.742 575.75 126.402 575.11C126.072 574.47 125.907 573.73 125.907 572.89ZM133.062 572.905C133.062 572.245 132.927 571.665 132.657 571.165C132.387 570.665 132.017 570.28 131.547 570.01C131.087 569.74 130.577 569.605 130.017 569.605C129.437 569.605 128.917 569.735 128.457 569.995C127.997 570.255 127.632 570.635 127.362 571.135C127.102 571.625 126.972 572.21 126.972 572.89C126.972 573.56 127.102 574.15 127.362 574.66C127.632 575.16 127.997 575.545 128.457 575.815C128.917 576.075 129.437 576.205 130.017 576.205C130.577 576.205 131.087 576.07 131.547 575.8C132.017 575.53 132.387 575.145 132.657 574.645C132.927 574.145 133.062 573.565 133.062 572.905ZM143.604 568.81V577H142.554V575.56C142.314 576.07 141.944 576.46 141.444 576.73C140.944 577 140.384 577.135 139.764 577.135C138.784 577.135 137.984 576.835 137.364 576.235C136.744 575.625 136.434 574.745 136.434 573.595V568.81H137.469V573.475C137.469 574.365 137.689 575.045 138.129 575.515C138.579 575.985 139.189 576.22 139.959 576.22C140.749 576.22 141.379 575.97 141.849 575.47C142.319 574.97 142.554 574.235 142.554 573.265V568.81H143.604ZM150.426 577L147.051 573.325V577H146.001V565.9H147.051V572.47L150.351 568.81H151.821L147.936 572.89L151.851 577H150.426ZM156.845 572.905C156.845 572.055 157.015 571.315 157.355 570.685C157.695 570.045 158.165 569.555 158.765 569.215C159.365 568.865 160.05 568.69 160.82 568.69C161.83 568.69 162.66 568.94 163.31 569.44C163.97 569.94 164.395 570.62 164.585 571.48H163.46C163.32 570.89 163.015 570.43 162.545 570.1C162.085 569.76 161.51 569.59 160.82 569.59C160.27 569.59 159.775 569.715 159.335 569.965C158.895 570.215 158.545 570.59 158.285 571.09C158.035 571.58 157.91 572.185 157.91 572.905C157.91 573.625 158.035 574.235 158.285 574.735C158.545 575.235 158.895 575.61 159.335 575.86C159.775 576.11 160.27 576.235 160.82 576.235C161.51 576.235 162.085 576.07 162.545 575.74C163.015 575.4 163.32 574.93 163.46 574.33H164.585C164.395 575.17 163.97 575.845 163.31 576.355C162.65 576.865 161.82 577.12 160.82 577.12C160.05 577.12 159.365 576.95 158.765 576.61C158.165 576.26 157.695 575.77 157.355 575.14C157.015 574.5 156.845 573.755 156.845 572.905ZM173.934 572.485C173.934 572.845 173.924 573.12 173.904 573.31H167.109C167.139 573.93 167.289 574.46 167.559 574.9C167.829 575.34 168.184 575.675 168.624 575.905C169.064 576.125 169.544 576.235 170.064 576.235C170.744 576.235 171.314 576.07 171.774 575.74C172.244 575.41 172.554 574.965 172.704 574.405H173.814C173.614 575.205 173.184 575.86 172.524 576.37C171.874 576.87 171.054 577.12 170.064 577.12C169.294 577.12 168.604 576.95 167.994 576.61C167.384 576.26 166.904 575.77 166.554 575.14C166.214 574.5 166.044 573.755 166.044 572.905C166.044 572.055 166.214 571.31 166.554 570.67C166.894 570.03 167.369 569.54 167.979 569.2C168.589 568.86 169.284 568.69 170.064 568.69C170.844 568.69 171.524 568.86 172.104 569.2C172.694 569.54 173.144 570 173.454 570.58C173.774 571.15 173.934 571.785 173.934 572.485ZM172.869 572.455C172.879 571.845 172.754 571.325 172.494 570.895C172.244 570.465 171.899 570.14 171.459 569.92C171.019 569.7 170.539 569.59 170.019 569.59C169.239 569.59 168.574 569.84 168.024 570.34C167.474 570.84 167.169 571.545 167.109 572.455H172.869ZM176.89 570.61C177.15 570.06 177.56 569.605 178.12 569.245C178.69 568.875 179.365 568.69 180.145 568.69C180.885 568.69 181.55 568.865 182.14 569.215C182.74 569.555 183.205 570.045 183.535 570.685C183.875 571.315 184.045 572.05 184.045 572.89C184.045 573.73 183.875 574.47 183.535 575.11C183.205 575.75 182.74 576.245 182.14 576.595C181.55 576.945 180.885 577.12 180.145 577.12C179.375 577.12 178.705 576.94 178.135 576.58C177.565 576.21 177.15 575.75 176.89 575.2V580.87H175.855V568.81H176.89V570.61ZM182.98 572.89C182.98 572.21 182.845 571.625 182.575 571.135C182.315 570.635 181.955 570.255 181.495 569.995C181.035 569.735 180.515 569.605 179.935 569.605C179.375 569.605 178.86 569.74 178.39 570.01C177.93 570.28 177.565 570.665 177.295 571.165C177.025 571.665 176.89 572.245 176.89 572.905C176.89 573.565 177.025 574.145 177.295 574.645C177.565 575.145 177.93 575.53 178.39 575.8C178.86 576.07 179.375 576.205 179.935 576.205C180.515 576.205 181.035 576.075 181.495 575.815C181.955 575.545 182.315 575.16 182.575 574.66C182.845 574.15 182.98 573.56 182.98 572.89ZM185.497 572.89C185.497 572.05 185.662 571.315 185.992 570.685C186.332 570.045 186.797 569.555 187.387 569.215C187.987 568.865 188.662 568.69 189.412 568.69C190.192 568.69 190.862 568.87 191.422 569.23C191.992 569.59 192.402 570.05 192.652 570.61V568.81H193.702V577H192.652V575.185C192.392 575.745 191.977 576.21 191.407 576.58C190.847 576.94 190.177 577.12 189.397 577.12C188.657 577.12 187.987 576.945 187.387 576.595C186.797 576.245 186.332 575.75 185.992 575.11C185.662 574.47 185.497 573.73 185.497 572.89ZM192.652 572.905C192.652 572.245 192.517 571.665 192.247 571.165C191.977 570.665 191.607 570.28 191.137 570.01C190.677 569.74 190.167 569.605 189.607 569.605C189.027 569.605 188.507 569.735 188.047 569.995C187.587 570.255 187.222 570.635 186.952 571.135C186.692 571.625 186.562 572.21 186.562 572.89C186.562 573.56 186.692 574.15 186.952 574.66C187.222 575.16 187.587 575.545 188.047 575.815C188.507 576.075 189.027 576.205 189.607 576.205C190.167 576.205 190.677 576.07 191.137 575.8C191.607 575.53 191.977 575.145 192.247 574.645C192.517 574.145 192.652 573.565 192.652 572.905ZM197.464 569.695V574.78C197.464 575.28 197.559 575.625 197.749 575.815C197.939 576.005 198.274 576.1 198.754 576.1H199.714V577H198.589C197.849 577 197.299 576.83 196.939 576.49C196.579 576.14 196.399 575.57 196.399 574.78V569.695H195.259V568.81H196.399V566.755H197.464V568.81H199.714V569.695H197.464ZM205.082 572.89C205.082 572.05 205.252 571.315 205.592 570.685C205.932 570.045 206.397 569.555 206.987 569.215C207.587 568.865 208.262 568.69 209.012 568.69C209.732 568.69 210.382 568.865 210.962 569.215C211.542 569.565 211.967 570.02 212.237 570.58V565.9H213.287V577H212.237V575.17C211.987 575.74 211.577 576.21 211.007 576.58C210.437 576.94 209.767 577.12 208.997 577.12C208.247 577.12 207.572 576.945 206.972 576.595C206.382 576.245 205.917 575.75 205.577 575.11C205.247 574.47 205.082 573.73 205.082 572.89ZM212.237 572.905C212.237 572.245 212.102 571.665 211.832 571.165C211.562 570.665 211.192 570.28 210.722 570.01C210.262 569.74 209.752 569.605 209.192 569.605C208.612 569.605 208.092 569.735 207.632 569.995C207.172 570.255 206.807 570.635 206.537 571.135C206.277 571.625 206.147 572.21 206.147 572.89C206.147 573.56 206.277 574.15 206.537 574.66C206.807 575.16 207.172 575.545 207.632 575.815C208.092 576.075 208.612 576.205 209.192 576.205C209.752 576.205 210.262 576.07 210.722 575.8C211.192 575.53 211.562 575.145 211.832 574.645C212.102 574.145 212.237 573.565 212.237 572.905ZM215.204 572.89C215.204 572.05 215.369 571.315 215.699 570.685C216.039 570.045 216.504 569.555 217.094 569.215C217.694 568.865 218.369 568.69 219.119 568.69C219.899 568.69 220.569 568.87 221.129 569.23C221.699 569.59 222.109 570.05 222.359 570.61V568.81H223.409V577H222.359V575.185C222.099 575.745 221.684 576.21 221.114 576.58C220.554 576.94 219.884 577.12 219.104 577.12C218.364 577.12 217.694 576.945 217.094 576.595C216.504 576.245 216.039 575.75 215.699 575.11C215.369 574.47 215.204 573.73 215.204 572.89ZM222.359 572.905C222.359 572.245 222.224 571.665 221.954 571.165C221.684 570.665 221.314 570.28 220.844 570.01C220.384 569.74 219.874 569.605 219.314 569.605C218.734 569.605 218.214 569.735 217.754 569.995C217.294 570.255 216.929 570.635 216.659 571.135C216.399 571.625 216.269 572.21 216.269 572.89C216.269 573.56 216.399 574.15 216.659 574.66C216.929 575.16 217.294 575.545 217.754 575.815C218.214 576.075 218.734 576.205 219.314 576.205C219.874 576.205 220.384 576.07 220.844 575.8C221.314 575.53 221.684 575.145 221.954 574.645C222.224 574.145 222.359 573.565 222.359 572.905ZM229.646 568.66C230.626 568.66 231.426 568.965 232.046 569.575C232.666 570.175 232.976 571.05 232.976 572.2V577H231.941V572.32C231.941 571.43 231.716 570.75 231.266 570.28C230.826 569.81 230.221 569.575 229.451 569.575C228.661 569.575 228.031 569.825 227.561 570.325C227.091 570.825 226.856 571.56 226.856 572.53V577H225.806V568.81H226.856V570.205C227.116 569.705 227.491 569.325 227.981 569.065C228.471 568.795 229.026 568.66 229.646 568.66ZM238.934 572.89C238.934 572.05 239.099 571.315 239.429 570.685C239.769 570.045 240.234 569.555 240.824 569.215C241.424 568.865 242.099 568.69 242.849 568.69C243.629 568.69 244.299 568.87 244.859 569.23C245.429 569.59 245.839 570.05 246.089 570.61V568.81H247.139V577H246.089V575.185C245.829 575.745 245.414 576.21 244.844 576.58C244.284 576.94 243.614 577.12 242.834 577.12C242.094 577.12 241.424 576.945 240.824 576.595C240.234 576.245 239.769 575.75 239.429 575.11C239.099 574.47 238.934 573.73 238.934 572.89ZM246.089 572.905C246.089 572.245 245.954 571.665 245.684 571.165C245.414 570.665 245.044 570.28 244.574 570.01C244.114 569.74 243.604 569.605 243.044 569.605C242.464 569.605 241.944 569.735 241.484 569.995C241.024 570.255 240.659 570.635 240.389 571.135C240.129 571.625 239.999 572.21 239.999 572.89C239.999 573.56 240.129 574.15 240.389 574.66C240.659 575.16 241.024 575.545 241.484 575.815C241.944 576.075 242.464 576.205 243.044 576.205C243.604 576.205 244.114 576.07 244.574 575.8C245.044 575.53 245.414 575.145 245.684 574.645C245.954 574.145 246.089 573.565 246.089 572.905ZM253.961 577L250.586 573.325V577H249.536V565.9H250.586V572.47L253.886 568.81H255.356L251.471 572.89L255.386 577H253.961ZM263.838 568.81V577H262.788V575.56C262.548 576.07 262.178 576.46 261.678 576.73C261.178 577 260.618 577.135 259.998 577.135C259.018 577.135 258.218 576.835 257.598 576.235C256.978 575.625 256.668 574.745 256.668 573.595V568.81H257.703V573.475C257.703 574.365 257.923 575.045 258.363 575.515C258.813 575.985 259.423 576.22 260.193 576.22C260.983 576.22 261.613 575.97 262.083 575.47C262.553 574.97 262.788 574.235 262.788 573.265V568.81H263.838ZM267.286 570.265C267.516 569.755 267.866 569.36 268.336 569.08C268.816 568.8 269.401 568.66 270.091 568.66V569.755H269.806C269.046 569.755 268.436 569.96 267.976 570.37C267.516 570.78 267.286 571.465 267.286 572.425V577H266.236V568.81H267.286V570.265ZM271.19 572.89C271.19 572.05 271.355 571.315 271.685 570.685C272.025 570.045 272.49 569.555 273.08 569.215C273.68 568.865 274.355 568.69 275.105 568.69C275.885 568.69 276.555 568.87 277.115 569.23C277.685 569.59 278.095 570.05 278.345 570.61V568.81H279.395V577H278.345V575.185C278.085 575.745 277.67 576.21 277.1 576.58C276.54 576.94 275.87 577.12 275.09 577.12C274.35 577.12 273.68 576.945 273.08 576.595C272.49 576.245 272.025 575.75 271.685 575.11C271.355 574.47 271.19 573.73 271.19 572.89ZM278.345 572.905C278.345 572.245 278.21 571.665 277.94 571.165C277.67 570.665 277.3 570.28 276.83 570.01C276.37 569.74 275.86 569.605 275.3 569.605C274.72 569.605 274.2 569.735 273.74 569.995C273.28 570.255 272.915 570.635 272.645 571.135C272.385 571.625 272.255 572.21 272.255 572.89C272.255 573.56 272.385 574.15 272.645 574.66C272.915 575.16 273.28 575.545 273.74 575.815C274.2 576.075 274.72 576.205 275.3 576.205C275.86 576.205 276.37 576.07 276.83 575.8C277.3 575.53 277.67 575.145 277.94 574.645C278.21 574.145 278.345 573.565 278.345 572.905ZM283.157 569.695V574.78C283.157 575.28 283.252 575.625 283.442 575.815C283.632 576.005 283.967 576.1 284.447 576.1H285.407V577H284.282C283.542 577 282.992 576.83 282.632 576.49C282.272 576.14 282.092 575.57 282.092 574.78V569.695H280.952V568.81H282.092V566.755H283.157V568.81H285.407V569.695H283.157ZM288.099 575.26L286.539 579.19H285.819L286.929 575.26H288.099ZM85.3802 591.66C86.3402 591.66 87.1202 591.965 87.7202 592.575C88.3302 593.175 88.6352 594.05 88.6352 595.2V600H87.6002V595.32C87.6002 594.43 87.3852 593.75 86.9552 593.28C86.5252 592.81 85.9402 592.575 85.2002 592.575C84.4302 592.575 83.8152 592.83 83.3552 593.34C82.8952 593.85 82.6652 594.59 82.6652 595.56V600H81.6302V595.32C81.6302 594.43 81.4152 593.75 80.9852 593.28C80.5552 592.81 79.9652 592.575 79.2152 592.575C78.4452 592.575 77.8302 592.83 77.3702 593.34C76.9102 593.85 76.6802 594.59 76.6802 595.56V600H75.6302V591.81H76.6802V593.22C76.9402 592.71 77.3102 592.325 77.7902 592.065C78.2702 591.795 78.8052 591.66 79.3952 591.66C80.1052 591.66 80.7252 591.83 81.2552 592.17C81.7952 592.51 82.1852 593.01 82.4252 593.67C82.6452 593.02 83.0202 592.525 83.5502 592.185C84.0902 591.835 84.7002 591.66 85.3802 591.66ZM98.0621 591.81V600H97.0121V598.56C96.7721 599.07 96.4021 599.46 95.9021 599.73C95.4021 600 94.8421 600.135 94.2221 600.135C93.2421 600.135 92.4421 599.835 91.8221 599.235C91.2021 598.625 90.8921 597.745 90.8921 596.595V591.81H91.9271V596.475C91.9271 597.365 92.1471 598.045 92.5871 598.515C93.0371 598.985 93.6471 599.22 94.4171 599.22C95.2071 599.22 95.8371 598.97 96.3071 598.47C96.7771 597.97 97.0121 597.235 97.0121 596.265V591.81H98.0621ZM99.9793 595.89C99.9793 595.05 100.149 594.315 100.489 593.685C100.829 593.045 101.294 592.555 101.884 592.215C102.484 591.865 103.159 591.69 103.909 591.69C104.629 591.69 105.279 591.865 105.859 592.215C106.439 592.565 106.864 593.02 107.134 593.58V588.9H108.184V600H107.134V598.17C106.884 598.74 106.474 599.21 105.904 599.58C105.334 599.94 104.664 600.12 103.894 600.12C103.144 600.12 102.469 599.945 101.869 599.595C101.279 599.245 100.814 598.75 100.474 598.11C100.144 597.47 99.9793 596.73 99.9793 595.89ZM107.134 595.905C107.134 595.245 106.999 594.665 106.729 594.165C106.459 593.665 106.089 593.28 105.619 593.01C105.159 592.74 104.649 592.605 104.089 592.605C103.509 592.605 102.989 592.735 102.529 592.995C102.069 593.255 101.704 593.635 101.434 594.135C101.174 594.625 101.044 595.21 101.044 595.89C101.044 596.56 101.174 597.15 101.434 597.66C101.704 598.16 102.069 598.545 102.529 598.815C102.989 599.075 103.509 599.205 104.089 599.205C104.649 599.205 105.159 599.07 105.619 598.8C106.089 598.53 106.459 598.145 106.729 597.645C106.999 597.145 107.134 596.565 107.134 595.905ZM110.101 595.89C110.101 595.05 110.266 594.315 110.596 593.685C110.936 593.045 111.401 592.555 111.991 592.215C112.591 591.865 113.266 591.69 114.016 591.69C114.796 591.69 115.466 591.87 116.026 592.23C116.596 592.59 117.006 593.05 117.256 593.61V591.81H118.306V600H117.256V598.185C116.996 598.745 116.581 599.21 116.011 599.58C115.451 599.94 114.781 600.12 114.001 600.12C113.261 600.12 112.591 599.945 111.991 599.595C111.401 599.245 110.936 598.75 110.596 598.11C110.266 597.47 110.101 596.73 110.101 595.89ZM117.256 595.905C117.256 595.245 117.121 594.665 116.851 594.165C116.581 593.665 116.211 593.28 115.741 593.01C115.281 592.74 114.771 592.605 114.211 592.605C113.631 592.605 113.111 592.735 112.651 592.995C112.191 593.255 111.826 593.635 111.556 594.135C111.296 594.625 111.166 595.21 111.166 595.89C111.166 596.56 111.296 597.15 111.556 597.66C111.826 598.16 112.191 598.545 112.651 598.815C113.111 599.075 113.631 599.205 114.211 599.205C114.771 599.205 115.281 599.07 115.741 598.8C116.211 598.53 116.581 598.145 116.851 597.645C117.121 597.145 117.256 596.565 117.256 595.905ZM124.603 591.66C125.223 591.66 125.778 591.79 126.268 592.05C126.768 592.31 127.158 592.71 127.438 593.25C127.728 593.78 127.873 594.43 127.873 595.2V600H126.838V595.32C126.838 594.43 126.613 593.75 126.163 593.28C125.723 592.81 125.118 592.575 124.348 592.575C123.558 592.575 122.928 592.825 122.458 593.325C121.988 593.825 121.753 594.56 121.753 595.53V600H120.703V588.9H121.753V593.205C122.013 592.715 122.393 592.335 122.893 592.065C123.403 591.795 123.973 591.66 124.603 591.66ZM134.621 600L131.246 596.325V600H130.196V588.9H131.246V595.47L134.546 591.81H136.016L132.131 595.89L136.046 600H134.621ZM136.923 595.89C136.923 595.05 137.088 594.315 137.418 593.685C137.758 593.045 138.223 592.555 138.813 592.215C139.413 591.865 140.088 591.69 140.838 591.69C141.618 591.69 142.288 591.87 142.848 592.23C143.418 592.59 143.828 593.05 144.078 593.61V591.81H145.128V600H144.078V598.185C143.818 598.745 143.403 599.21 142.833 599.58C142.273 599.94 141.603 600.12 140.823 600.12C140.083 600.12 139.413 599.945 138.813 599.595C138.223 599.245 137.758 598.75 137.418 598.11C137.088 597.47 136.923 596.73 136.923 595.89ZM144.078 595.905C144.078 595.245 143.943 594.665 143.673 594.165C143.403 593.665 143.033 593.28 142.563 593.01C142.103 592.74 141.593 592.605 141.033 592.605C140.453 592.605 139.933 592.735 139.473 592.995C139.013 593.255 138.648 593.635 138.378 594.135C138.118 594.625 137.988 595.21 137.988 595.89C137.988 596.56 138.118 597.15 138.378 597.66C138.648 598.16 139.013 598.545 139.473 598.815C139.933 599.075 140.453 599.205 141.033 599.205C141.593 599.205 142.103 599.07 142.563 598.8C143.033 598.53 143.403 598.145 143.673 597.645C143.943 597.145 144.078 596.565 144.078 595.905ZM151.365 591.66C152.345 591.66 153.145 591.965 153.765 592.575C154.385 593.175 154.695 594.05 154.695 595.2V600H153.66V595.32C153.66 594.43 153.435 593.75 152.985 593.28C152.545 592.81 151.94 592.575 151.17 592.575C150.38 592.575 149.75 592.825 149.28 593.325C148.81 593.825 148.575 594.56 148.575 595.53V600H147.525V591.81H148.575V593.205C148.835 592.705 149.21 592.325 149.7 592.065C150.19 591.795 150.745 591.66 151.365 591.66ZM165.558 600L162.183 596.325V600H161.133V588.9H162.183V595.47L165.483 591.81H166.953L163.068 595.89L166.983 600H165.558ZM175.75 595.485C175.75 595.845 175.74 596.12 175.72 596.31H168.925C168.955 596.93 169.105 597.46 169.375 597.9C169.645 598.34 170 598.675 170.44 598.905C170.88 599.125 171.36 599.235 171.88 599.235C172.56 599.235 173.13 599.07 173.59 598.74C174.06 598.41 174.37 597.965 174.52 597.405H175.63C175.43 598.205 175 598.86 174.34 599.37C173.69 599.87 172.87 600.12 171.88 600.12C171.11 600.12 170.42 599.95 169.81 599.61C169.2 599.26 168.72 598.77 168.37 598.14C168.03 597.5 167.86 596.755 167.86 595.905C167.86 595.055 168.03 594.31 168.37 593.67C168.71 593.03 169.185 592.54 169.795 592.2C170.405 591.86 171.1 591.69 171.88 591.69C172.66 591.69 173.34 591.86 173.92 592.2C174.51 592.54 174.96 593 175.27 593.58C175.59 594.15 175.75 594.785 175.75 595.485ZM174.685 595.455C174.695 594.845 174.57 594.325 174.31 593.895C174.06 593.465 173.715 593.14 173.275 592.92C172.835 592.7 172.355 592.59 171.835 592.59C171.055 592.59 170.39 592.84 169.84 593.34C169.29 593.84 168.985 594.545 168.925 595.455H174.685ZM178.706 593.61C178.966 593.06 179.376 592.605 179.936 592.245C180.506 591.875 181.181 591.69 181.961 591.69C182.701 591.69 183.366 591.865 183.956 592.215C184.556 592.555 185.021 593.045 185.351 593.685C185.691 594.315 185.861 595.05 185.861 595.89C185.861 596.73 185.691 597.47 185.351 598.11C185.021 598.75 184.556 599.245 183.956 599.595C183.366 599.945 182.701 600.12 181.961 600.12C181.191 600.12 180.521 599.94 179.951 599.58C179.381 599.21 178.966 598.75 178.706 598.2V603.87H177.671V591.81H178.706V593.61ZM184.796 595.89C184.796 595.21 184.661 594.625 184.391 594.135C184.131 593.635 183.771 593.255 183.311 592.995C182.851 592.735 182.331 592.605 181.751 592.605C181.191 592.605 180.676 592.74 180.206 593.01C179.746 593.28 179.381 593.665 179.111 594.165C178.841 594.665 178.706 595.245 178.706 595.905C178.706 596.565 178.841 597.145 179.111 597.645C179.381 598.145 179.746 598.53 180.206 598.8C180.676 599.07 181.191 599.205 181.751 599.205C182.331 599.205 182.851 599.075 183.311 598.815C183.771 598.545 184.131 598.16 184.391 597.66C184.661 597.15 184.796 596.56 184.796 595.89ZM194.888 591.81V600H193.838V598.56C193.598 599.07 193.228 599.46 192.728 599.73C192.228 600 191.668 600.135 191.048 600.135C190.068 600.135 189.268 599.835 188.648 599.235C188.028 598.625 187.718 597.745 187.718 596.595V591.81H188.753V596.475C188.753 597.365 188.973 598.045 189.413 598.515C189.863 598.985 190.473 599.22 191.243 599.22C192.033 599.22 192.663 598.97 193.133 598.47C193.603 597.97 193.838 597.235 193.838 596.265V591.81H194.888ZM198.65 592.695V597.78C198.65 598.28 198.745 598.625 198.935 598.815C199.125 599.005 199.46 599.1 199.94 599.1H200.9V600H199.775C199.035 600 198.485 599.83 198.125 599.49C197.765 599.14 197.585 598.57 197.585 597.78V592.695H196.445V591.81H197.585V589.755H198.65V591.81H200.9V592.695H198.65ZM209.727 591.81V600H208.677V598.56C208.437 599.07 208.067 599.46 207.567 599.73C207.067 600 206.507 600.135 205.887 600.135C204.907 600.135 204.107 599.835 203.487 599.235C202.867 598.625 202.557 597.745 202.557 596.595V591.81H203.592V596.475C203.592 597.365 203.812 598.045 204.252 598.515C204.702 598.985 205.312 599.22 206.082 599.22C206.872 599.22 207.502 598.97 207.972 598.47C208.442 597.97 208.677 597.235 208.677 596.265V591.81H209.727ZM214.944 600.12C214.004 600.12 213.234 599.905 212.634 599.475C212.044 599.035 211.714 598.44 211.644 597.69H212.724C212.774 598.15 212.989 598.525 213.369 598.815C213.759 599.095 214.279 599.235 214.929 599.235C215.499 599.235 215.944 599.1 216.264 598.83C216.594 598.56 216.759 598.225 216.759 597.825C216.759 597.545 216.669 597.315 216.489 597.135C216.309 596.955 216.079 596.815 215.799 596.715C215.529 596.605 215.159 596.49 214.689 596.37C214.079 596.21 213.584 596.05 213.204 595.89C212.824 595.73 212.499 595.495 212.229 595.185C211.969 594.865 211.839 594.44 211.839 593.91C211.839 593.51 211.959 593.14 212.199 592.8C212.439 592.46 212.779 592.19 213.219 591.99C213.659 591.79 214.159 591.69 214.719 591.69C215.599 591.69 216.309 591.915 216.849 592.365C217.389 592.805 217.679 593.415 217.719 594.195H216.669C216.639 593.715 216.449 593.33 216.099 593.04C215.759 592.74 215.289 592.59 214.689 592.59C214.159 592.59 213.729 592.715 213.399 592.965C213.069 593.215 212.904 593.525 212.904 593.895C212.904 594.215 212.999 594.48 213.189 594.69C213.389 594.89 213.634 595.05 213.924 595.17C214.214 595.28 214.604 595.405 215.094 595.545C215.684 595.705 216.154 595.86 216.504 596.01C216.854 596.16 217.154 596.38 217.404 596.67C217.654 596.96 217.784 597.345 217.794 597.825C217.794 598.265 217.674 598.66 217.434 599.01C217.194 599.35 216.859 599.62 216.429 599.82C215.999 600.02 215.504 600.12 214.944 600.12ZM219.291 595.89C219.291 595.05 219.456 594.315 219.786 593.685C220.126 593.045 220.591 592.555 221.181 592.215C221.781 591.865 222.456 591.69 223.206 591.69C223.986 591.69 224.656 591.87 225.216 592.23C225.786 592.59 226.196 593.05 226.446 593.61V591.81H227.496V600H226.446V598.185C226.186 598.745 225.771 599.21 225.201 599.58C224.641 599.94 223.971 600.12 223.191 600.12C222.451 600.12 221.781 599.945 221.181 599.595C220.591 599.245 220.126 598.75 219.786 598.11C219.456 597.47 219.291 596.73 219.291 595.89ZM226.446 595.905C226.446 595.245 226.311 594.665 226.041 594.165C225.771 593.665 225.401 593.28 224.931 593.01C224.471 592.74 223.961 592.605 223.401 592.605C222.821 592.605 222.301 592.735 221.841 592.995C221.381 593.255 221.016 593.635 220.746 594.135C220.486 594.625 220.356 595.21 220.356 595.89C220.356 596.56 220.486 597.15 220.746 597.66C221.016 598.16 221.381 598.545 221.841 598.815C222.301 599.075 222.821 599.205 223.401 599.205C223.961 599.205 224.471 599.07 224.931 598.8C225.401 598.53 225.771 598.145 226.041 597.645C226.311 597.145 226.446 596.565 226.446 595.905ZM233.733 591.66C234.713 591.66 235.513 591.965 236.133 592.575C236.753 593.175 237.063 594.05 237.063 595.2V600H236.028V595.32C236.028 594.43 235.803 593.75 235.353 593.28C234.913 592.81 234.308 592.575 233.538 592.575C232.748 592.575 232.118 592.825 231.648 593.325C231.178 593.825 230.943 594.56 230.943 595.53V600H229.893V591.81H230.943V593.205C231.203 592.705 231.578 592.325 232.068 592.065C232.558 591.795 233.113 591.66 233.733 591.66ZM244.866 592.695V597.78C244.866 598.28 244.961 598.625 245.151 598.815C245.341 599.005 245.676 599.1 246.156 599.1H247.116V600H245.991C245.251 600 244.701 599.83 244.341 599.49C243.981 599.14 243.801 598.57 243.801 597.78V592.695H242.661V591.81H243.801V589.755H244.866V591.81H247.116V592.695H244.866ZM256.258 595.485C256.258 595.845 256.248 596.12 256.228 596.31H249.433C249.463 596.93 249.613 597.46 249.883 597.9C250.153 598.34 250.508 598.675 250.948 598.905C251.388 599.125 251.868 599.235 252.388 599.235C253.068 599.235 253.638 599.07 254.098 598.74C254.568 598.41 254.878 597.965 255.028 597.405H256.138C255.938 598.205 255.508 598.86 254.848 599.37C254.198 599.87 253.378 600.12 252.388 600.12C251.618 600.12 250.928 599.95 250.318 599.61C249.708 599.26 249.228 598.77 248.878 598.14C248.538 597.5 248.368 596.755 248.368 595.905C248.368 595.055 248.538 594.31 248.878 593.67C249.218 593.03 249.693 592.54 250.303 592.2C250.913 591.86 251.608 591.69 252.388 591.69C253.168 591.69 253.848 591.86 254.428 592.2C255.018 592.54 255.468 593 255.778 593.58C256.098 594.15 256.258 594.785 256.258 595.485ZM255.193 595.455C255.203 594.845 255.078 594.325 254.818 593.895C254.568 593.465 254.223 593.14 253.783 592.92C253.343 592.7 252.863 592.59 252.343 592.59C251.563 592.59 250.898 592.84 250.348 593.34C249.798 593.84 249.493 594.545 249.433 595.455H255.193ZM259.214 593.61C259.474 593.06 259.884 592.605 260.444 592.245C261.014 591.875 261.689 591.69 262.469 591.69C263.209 591.69 263.874 591.865 264.464 592.215C265.064 592.555 265.529 593.045 265.859 593.685C266.199 594.315 266.369 595.05 266.369 595.89C266.369 596.73 266.199 597.47 265.859 598.11C265.529 598.75 265.064 599.245 264.464 599.595C263.874 599.945 263.209 600.12 262.469 600.12C261.699 600.12 261.029 599.94 260.459 599.58C259.889 599.21 259.474 598.75 259.214 598.2V603.87H258.179V591.81H259.214V593.61ZM265.304 595.89C265.304 595.21 265.169 594.625 264.899 594.135C264.639 593.635 264.279 593.255 263.819 592.995C263.359 592.735 262.839 592.605 262.259 592.605C261.699 592.605 261.184 592.74 260.714 593.01C260.254 593.28 259.889 593.665 259.619 594.165C259.349 594.665 259.214 595.245 259.214 595.905C259.214 596.565 259.349 597.145 259.619 597.645C259.889 598.145 260.254 598.53 260.714 598.8C261.184 599.07 261.699 599.205 262.259 599.205C262.839 599.205 263.359 599.075 263.819 598.815C264.279 598.545 264.639 598.16 264.899 597.66C265.169 597.15 265.304 596.56 265.304 595.89ZM267.821 595.89C267.821 595.05 267.986 594.315 268.316 593.685C268.656 593.045 269.121 592.555 269.711 592.215C270.311 591.865 270.986 591.69 271.736 591.69C272.516 591.69 273.186 591.87 273.746 592.23C274.316 592.59 274.726 593.05 274.976 593.61V591.81H276.026V600H274.976V598.185C274.716 598.745 274.301 599.21 273.731 599.58C273.171 599.94 272.501 600.12 271.721 600.12C270.981 600.12 270.311 599.945 269.711 599.595C269.121 599.245 268.656 598.75 268.316 598.11C267.986 597.47 267.821 596.73 267.821 595.89ZM274.976 595.905C274.976 595.245 274.841 594.665 274.571 594.165C274.301 593.665 273.931 593.28 273.461 593.01C273.001 592.74 272.491 592.605 271.931 592.605C271.351 592.605 270.831 592.735 270.371 592.995C269.911 593.255 269.546 593.635 269.276 594.135C269.016 594.625 268.886 595.21 268.886 595.89C268.886 596.56 269.016 597.15 269.276 597.66C269.546 598.16 269.911 598.545 270.371 598.815C270.831 599.075 271.351 599.205 271.931 599.205C272.491 599.205 273.001 599.07 273.461 598.8C273.931 598.53 274.301 598.145 274.571 597.645C274.841 597.145 274.976 596.565 274.976 595.905ZM279.788 592.695V597.78C279.788 598.28 279.883 598.625 280.073 598.815C280.263 599.005 280.598 599.1 281.078 599.1H282.038V600H280.913C280.173 600 279.623 599.83 279.263 599.49C278.903 599.14 278.723 598.57 278.723 597.78V592.695H277.583V591.81H278.723V589.755H279.788V591.81H282.038V592.695H279.788ZM151.348 623.12C150.408 623.12 149.638 622.905 149.038 622.475C148.448 622.035 148.118 621.44 148.048 620.69H149.128C149.178 621.15 149.393 621.525 149.773 621.815C150.163 622.095 150.683 622.235 151.333 622.235C151.903 622.235 152.348 622.1 152.668 621.83C152.998 621.56 153.163 621.225 153.163 620.825C153.163 620.545 153.073 620.315 152.893 620.135C152.713 619.955 152.483 619.815 152.203 619.715C151.933 619.605 151.563 619.49 151.093 619.37C150.483 619.21 149.988 619.05 149.608 618.89C149.228 618.73 148.903 618.495 148.633 618.185C148.373 617.865 148.243 617.44 148.243 616.91C148.243 616.51 148.363 616.14 148.603 615.8C148.843 615.46 149.183 615.19 149.623 614.99C150.063 614.79 150.563 614.69 151.123 614.69C152.003 614.69 152.713 614.915 153.253 615.365C153.793 615.805 154.083 616.415 154.123 617.195H153.073C153.043 616.715 152.853 616.33 152.503 616.04C152.163 615.74 151.693 615.59 151.093 615.59C150.563 615.59 150.133 615.715 149.803 615.965C149.473 616.215 149.308 616.525 149.308 616.895C149.308 617.215 149.403 617.48 149.593 617.69C149.793 617.89 150.038 618.05 150.328 618.17C150.618 618.28 151.008 618.405 151.498 618.545C152.088 618.705 152.558 618.86 152.908 619.01C153.258 619.16 153.558 619.38 153.808 619.67C154.058 619.96 154.188 620.345 154.198 620.825C154.198 621.265 154.078 621.66 153.838 622.01C153.598 622.35 153.263 622.62 152.833 622.82C152.403 623.02 151.908 623.12 151.348 623.12ZM163.585 618.485C163.585 618.845 163.575 619.12 163.555 619.31H156.76C156.79 619.93 156.94 620.46 157.21 620.9C157.48 621.34 157.835 621.675 158.275 621.905C158.715 622.125 159.195 622.235 159.715 622.235C160.395 622.235 160.965 622.07 161.425 621.74C161.895 621.41 162.205 620.965 162.355 620.405H163.465C163.265 621.205 162.835 621.86 162.175 622.37C161.525 622.87 160.705 623.12 159.715 623.12C158.945 623.12 158.255 622.95 157.645 622.61C157.035 622.26 156.555 621.77 156.205 621.14C155.865 620.5 155.695 619.755 155.695 618.905C155.695 618.055 155.865 617.31 156.205 616.67C156.545 616.03 157.02 615.54 157.63 615.2C158.24 614.86 158.935 614.69 159.715 614.69C160.495 614.69 161.175 614.86 161.755 615.2C162.345 615.54 162.795 616 163.105 616.58C163.425 617.15 163.585 617.785 163.585 618.485ZM162.52 618.455C162.53 617.845 162.405 617.325 162.145 616.895C161.895 616.465 161.55 616.14 161.11 615.92C160.67 615.7 160.19 615.59 159.67 615.59C158.89 615.59 158.225 615.84 157.675 616.34C157.125 616.84 156.82 617.545 156.76 618.455H162.52ZM169.931 623L166.556 619.325V623H165.506V611.9H166.556V618.47L169.856 614.81H171.326L167.441 618.89L171.356 623H169.931ZM180.123 618.485C180.123 618.845 180.113 619.12 180.093 619.31H173.298C173.328 619.93 173.478 620.46 173.748 620.9C174.018 621.34 174.373 621.675 174.813 621.905C175.253 622.125 175.733 622.235 176.253 622.235C176.933 622.235 177.503 622.07 177.963 621.74C178.433 621.41 178.743 620.965 178.893 620.405H180.003C179.803 621.205 179.373 621.86 178.713 622.37C178.063 622.87 177.243 623.12 176.253 623.12C175.483 623.12 174.793 622.95 174.183 622.61C173.573 622.26 173.093 621.77 172.743 621.14C172.403 620.5 172.233 619.755 172.233 618.905C172.233 618.055 172.403 617.31 172.743 616.67C173.083 616.03 173.558 615.54 174.168 615.2C174.778 614.86 175.473 614.69 176.253 614.69C177.033 614.69 177.713 614.86 178.293 615.2C178.883 615.54 179.333 616 179.643 616.58C179.963 617.15 180.123 617.785 180.123 618.485ZM179.058 618.455C179.068 617.845 178.943 617.325 178.683 616.895C178.433 616.465 178.088 616.14 177.648 615.92C177.208 615.7 176.728 615.59 176.208 615.59C175.428 615.59 174.763 615.84 174.213 616.34C173.663 616.84 173.358 617.545 173.298 618.455H179.058ZM183.409 615.695V620.78C183.409 621.28 183.504 621.625 183.694 621.815C183.884 622.005 184.219 622.1 184.699 622.1H185.659V623H184.534C183.794 623 183.244 622.83 182.884 622.49C182.524 622.14 182.344 621.57 182.344 620.78V615.695H181.204V614.81H182.344V612.755H183.409V614.81H185.659V615.695H183.409ZM187.915 613.265C187.705 613.265 187.525 613.19 187.375 613.04C187.225 612.89 187.15 612.705 187.15 612.485C187.15 612.265 187.225 612.085 187.375 611.945C187.525 611.795 187.705 611.72 187.915 611.72C188.125 611.72 188.305 611.795 188.455 611.945C188.605 612.085 188.68 612.265 188.68 612.485C188.68 612.705 188.605 612.89 188.455 613.04C188.305 613.19 188.125 613.265 187.915 613.265ZM188.44 614.81V623H187.39V614.81H188.44ZM195.243 623L191.868 619.325V623H190.818V611.9H191.868V618.47L195.168 614.81H196.638L192.753 618.89L196.668 623H195.243ZM197.545 618.89C197.545 618.05 197.71 617.315 198.04 616.685C198.38 616.045 198.845 615.555 199.435 615.215C200.035 614.865 200.71 614.69 201.46 614.69C202.24 614.69 202.91 614.87 203.47 615.23C204.04 615.59 204.45 616.05 204.7 616.61V614.81H205.75V623H204.7V621.185C204.44 621.745 204.025 622.21 203.455 622.58C202.895 622.94 202.225 623.12 201.445 623.12C200.705 623.12 200.035 622.945 199.435 622.595C198.845 622.245 198.38 621.75 198.04 621.11C197.71 620.47 197.545 619.73 197.545 618.89ZM204.7 618.905C204.7 618.245 204.565 617.665 204.295 617.165C204.025 616.665 203.655 616.28 203.185 616.01C202.725 615.74 202.215 615.605 201.655 615.605C201.075 615.605 200.555 615.735 200.095 615.995C199.635 616.255 199.27 616.635 199 617.135C198.74 617.625 198.61 618.21 198.61 618.89C198.61 619.56 198.74 620.15 199 620.66C199.27 621.16 199.635 621.545 200.095 621.815C200.555 622.075 201.075 622.205 201.655 622.205C202.215 622.205 202.725 622.07 203.185 621.8C203.655 621.53 204.025 621.145 204.295 620.645C204.565 620.145 204.7 619.565 204.7 618.905ZM208.327 623.075C208.107 623.075 207.922 623 207.772 622.85C207.632 622.7 207.562 622.515 207.562 622.295C207.562 622.075 207.632 621.895 207.772 621.755C207.922 621.605 208.107 621.53 208.327 621.53C208.537 621.53 208.712 621.605 208.852 621.755C209.002 621.895 209.077 622.075 209.077 622.295C209.077 622.515 209.002 622.7 208.852 622.85C208.712 623 208.537 623.075 208.327 623.075Z" fill="#373737"/>
<path d="M115.298 533.432C115.298 534.328 115.082 535.168 114.65 535.952C114.234 536.736 113.57 537.368 112.658 537.848C111.762 538.328 110.626 538.568 109.25 538.568H106.442V545H103.082V528.248H109.25C110.546 528.248 111.65 528.472 112.562 528.92C113.474 529.368 114.154 529.984 114.602 530.768C115.066 531.552 115.298 532.44 115.298 533.432ZM109.106 535.856C110.034 535.856 110.722 535.648 111.17 535.232C111.618 534.8 111.842 534.2 111.842 533.432C111.842 531.8 110.93 530.984 109.106 530.984H106.442V535.856H109.106ZM119.387 530.12C118.795 530.12 118.299 529.936 117.899 529.568C117.515 529.184 117.323 528.712 117.323 528.152C117.323 527.592 117.515 527.128 117.899 526.76C118.299 526.376 118.795 526.184 119.387 526.184C119.979 526.184 120.467 526.376 120.851 526.76C121.251 527.128 121.451 527.592 121.451 528.152C121.451 528.712 121.251 529.184 120.851 529.568C120.467 529.936 119.979 530.12 119.387 530.12ZM121.043 531.704V545H117.683V531.704H121.043ZM131.731 531.512C133.315 531.512 134.595 532.016 135.571 533.024C136.547 534.016 137.035 535.408 137.035 537.2V545H133.675V537.656C133.675 536.6 133.411 535.792 132.883 535.232C132.355 534.656 131.635 534.368 130.723 534.368C129.795 534.368 129.059 534.656 128.515 535.232C127.987 535.792 127.723 536.6 127.723 537.656V545H124.363V531.704H127.723V533.36C128.171 532.784 128.739 532.336 129.427 532.016C130.131 531.68 130.899 531.512 131.731 531.512ZM139.366 538.304C139.366 536.96 139.63 535.768 140.158 534.728C140.702 533.688 141.438 532.888 142.366 532.328C143.294 531.768 144.326 531.488 145.462 531.488C146.326 531.488 147.15 531.68 147.934 532.064C148.718 532.432 149.342 532.928 149.806 533.552V527.24H153.214V545H149.806V543.032C149.39 543.688 148.806 544.216 148.054 544.616C147.302 545.016 146.43 545.216 145.438 545.216C144.318 545.216 143.294 544.928 142.366 544.352C141.438 543.776 140.702 542.968 140.158 541.928C139.63 540.872 139.366 539.664 139.366 538.304ZM149.83 538.352C149.83 537.536 149.67 536.84 149.35 536.264C149.03 535.672 148.598 535.224 148.054 534.92C147.51 534.6 146.926 534.44 146.302 534.44C145.678 534.44 145.102 534.592 144.574 534.896C144.046 535.2 143.614 535.648 143.278 536.24C142.958 536.816 142.798 537.504 142.798 538.304C142.798 539.104 142.958 539.808 143.278 540.416C143.614 541.008 144.046 541.464 144.574 541.784C145.118 542.104 145.694 542.264 146.302 542.264C146.926 542.264 147.51 542.112 148.054 541.808C148.598 541.488 149.03 541.04 149.35 540.464C149.67 539.872 149.83 539.168 149.83 538.352ZM155.632 538.304C155.632 536.96 155.896 535.768 156.424 534.728C156.968 533.688 157.696 532.888 158.608 532.328C159.536 531.768 160.568 531.488 161.704 531.488C162.696 531.488 163.56 531.688 164.296 532.088C165.048 532.488 165.648 532.992 166.096 533.6V531.704H169.48V545H166.096V543.056C165.664 543.68 165.064 544.2 164.296 544.616C163.544 545.016 162.672 545.216 161.68 545.216C160.56 545.216 159.536 544.928 158.608 544.352C157.696 543.776 156.968 542.968 156.424 541.928C155.896 540.872 155.632 539.664 155.632 538.304ZM166.096 538.352C166.096 537.536 165.936 536.84 165.616 536.264C165.296 535.672 164.864 535.224 164.32 534.92C163.776 534.6 163.192 534.44 162.568 534.44C161.944 534.44 161.368 534.592 160.84 534.896C160.312 535.2 159.88 535.648 159.544 536.24C159.224 536.816 159.064 537.504 159.064 538.304C159.064 539.104 159.224 539.808 159.544 540.416C159.88 541.008 160.312 541.464 160.84 541.784C161.384 542.104 161.96 542.264 162.568 542.264C163.192 542.264 163.776 542.112 164.32 541.808C164.864 541.488 165.296 541.04 165.616 540.464C165.936 539.872 166.096 539.168 166.096 538.352ZM174.465 530.12C173.873 530.12 173.377 529.936 172.977 529.568C172.593 529.184 172.401 528.712 172.401 528.152C172.401 527.592 172.593 527.128 172.977 526.76C173.377 526.376 173.873 526.184 174.465 526.184C175.057 526.184 175.545 526.376 175.929 526.76C176.329 527.128 176.529 527.592 176.529 528.152C176.529 528.712 176.329 529.184 175.929 529.568C175.545 529.936 175.057 530.12 174.465 530.12ZM176.121 531.704V545H172.761V531.704H176.121Z" fill="#293C56"/>
<path d="M184.344 536.6C184.344 534.952 184.712 533.48 185.448 532.184C186.2 530.872 187.216 529.856 188.496 529.136C189.792 528.4 191.24 528.032 192.84 528.032C194.712 528.032 196.352 528.512 197.76 529.472C199.168 530.432 200.152 531.76 200.712 533.456H196.848C196.464 532.656 195.92 532.056 195.216 531.656C194.528 531.256 193.728 531.056 192.816 531.056C191.84 531.056 190.968 531.288 190.2 531.752C189.448 532.2 188.856 532.84 188.424 533.672C188.008 534.504 187.8 535.48 187.8 536.6C187.8 537.704 188.008 538.68 188.424 539.528C188.856 540.36 189.448 541.008 190.2 541.472C190.968 541.92 191.84 542.144 192.816 542.144C193.728 542.144 194.528 541.944 195.216 541.544C195.92 541.128 196.464 540.52 196.848 539.72H200.712C200.152 541.432 199.168 542.768 197.76 543.728C196.368 544.672 194.728 545.144 192.84 545.144C191.24 545.144 189.792 544.784 188.496 544.064C187.216 543.328 186.2 542.312 185.448 541.016C184.712 539.72 184.344 538.248 184.344 536.6ZM215.942 538.064C215.942 538.544 215.91 538.976 215.846 539.36H206.126C206.206 540.32 206.542 541.072 207.134 541.616C207.726 542.16 208.454 542.432 209.318 542.432C210.566 542.432 211.454 541.896 211.982 540.824H215.606C215.222 542.104 214.486 543.16 213.398 543.992C212.31 544.808 210.974 545.216 209.39 545.216C208.11 545.216 206.958 544.936 205.934 544.376C204.926 543.8 204.134 542.992 203.558 541.952C202.998 540.912 202.718 539.712 202.718 538.352C202.718 536.976 202.998 535.768 203.558 534.728C204.118 533.688 204.902 532.888 205.91 532.328C206.918 531.768 208.078 531.488 209.39 531.488C210.654 531.488 211.782 531.76 212.774 532.304C213.782 532.848 214.558 533.624 215.102 534.632C215.662 535.624 215.942 536.768 215.942 538.064ZM212.462 537.104C212.446 536.24 212.134 535.552 211.526 535.04C210.918 534.512 210.174 534.248 209.294 534.248C208.462 534.248 207.758 534.504 207.182 535.016C206.622 535.512 206.278 536.208 206.15 537.104H212.462ZM221.754 533.624C222.186 533.016 222.778 532.512 223.53 532.112C224.298 531.696 225.17 531.488 226.146 531.488C227.282 531.488 228.306 531.768 229.218 532.328C230.146 532.888 230.874 533.688 231.402 534.728C231.946 535.752 232.218 536.944 232.218 538.304C232.218 539.664 231.946 540.872 231.402 541.928C230.874 542.968 230.146 543.776 229.218 544.352C228.306 544.928 227.282 545.216 226.146 545.216C225.17 545.216 224.306 545.016 223.554 544.616C222.818 544.216 222.218 543.712 221.754 543.104V551.336H218.394V531.704H221.754V533.624ZM228.786 538.304C228.786 537.504 228.618 536.816 228.282 536.24C227.962 535.648 227.53 535.2 226.986 534.896C226.458 534.592 225.882 534.44 225.258 534.44C224.65 534.44 224.074 534.6 223.53 534.92C223.002 535.224 222.57 535.672 222.234 536.264C221.914 536.856 221.754 537.552 221.754 538.352C221.754 539.152 221.914 539.848 222.234 540.44C222.57 541.032 223.002 541.488 223.53 541.808C224.074 542.112 224.65 542.264 225.258 542.264C225.882 542.264 226.458 542.104 226.986 541.784C227.53 541.464 227.962 541.008 228.282 540.416C228.618 539.824 228.786 539.12 228.786 538.304ZM233.796 538.304C233.796 536.96 234.06 535.768 234.588 534.728C235.132 533.688 235.86 532.888 236.772 532.328C237.7 531.768 238.732 531.488 239.868 531.488C240.86 531.488 241.724 531.688 242.46 532.088C243.212 532.488 243.812 532.992 244.26 533.6V531.704H247.644V545H244.26V543.056C243.828 543.68 243.228 544.2 242.46 544.616C241.708 545.016 240.836 545.216 239.844 545.216C238.724 545.216 237.7 544.928 236.772 544.352C235.86 543.776 235.132 542.968 234.588 541.928C234.06 540.872 233.796 539.664 233.796 538.304ZM244.26 538.352C244.26 537.536 244.1 536.84 243.78 536.264C243.46 535.672 243.028 535.224 242.484 534.92C241.94 534.6 241.356 534.44 240.732 534.44C240.108 534.44 239.532 534.592 239.004 534.896C238.476 535.2 238.044 535.648 237.708 536.24C237.388 536.816 237.228 537.504 237.228 538.304C237.228 539.104 237.388 539.808 237.708 540.416C238.044 541.008 238.476 541.464 239.004 541.784C239.548 542.104 240.124 542.264 240.732 542.264C241.356 542.264 241.94 542.112 242.484 541.808C243.028 541.488 243.46 541.04 243.78 540.464C244.1 539.872 244.26 539.168 244.26 538.352ZM254.838 534.464V540.896C254.838 541.344 254.942 541.672 255.15 541.88C255.374 542.072 255.742 542.168 256.254 542.168H257.814V545H255.702C252.87 545 251.454 543.624 251.454 540.872V534.464H249.87V531.704H251.454V528.416H254.838V531.704H257.814V534.464H254.838Z" fill="#2B59C3"/>
<circle cx="178" cy="275" r="125" fill="#2B59C3"/>
<g clip-path="url(#clip0_384_82)">
<path d="M192.697 187.564L163.61 187.564C160.911 187.57 158.713 189.764 158.715 192.463L158.715 197.31C158.717 198.617 159.226 199.847 160.151 200.773C161.076 201.698 162.307 202.207 163.614 202.205L180.577 202.208C181.942 202.208 183.049 201.101 183.051 199.735C183.051 198.37 181.942 197.261 180.577 197.261L163.661 197.308L163.61 192.512L192.647 192.461L192.699 197.263L190.277 197.258C189.618 197.258 188.989 197.518 188.526 197.982L188.524 197.983C188.059 198.449 187.798 199.077 187.8 199.731L187.798 216.7C187.796 219.18 187.798 224.991 193.37 230.563L200.642 237.834C204.617 241.81 207.186 247.785 207.184 253.053L207.186 340.297C207.186 344.15 203.822 347.518 199.965 347.518H156.342C152.36 347.518 149.121 344.279 149.121 340.297V253.051C149.121 247.784 151.692 241.811 155.668 237.834L162.94 230.562C168.509 224.993 168.51 219.18 168.507 216.697L168.512 209.419C168.512 208.051 167.405 206.944 166.039 206.945C164.672 206.944 163.567 208.053 163.563 209.417L163.561 216.699C163.561 219.036 163.563 222.943 159.442 227.064L152.17 234.336C147.24 239.266 144.175 246.438 144.173 253.05L144.177 340.297C144.175 347.006 149.633 352.464 156.344 352.464L199.963 352.464C203.213 352.464 206.27 351.198 208.568 348.9C210.866 346.602 212.132 343.545 212.13 340.297L212.132 253.053C212.134 246.441 209.072 239.268 204.14 234.336L196.868 227.065C192.744 222.94 192.744 219.034 192.744 216.698L192.745 202.208C195.417 202.182 197.589 199.997 197.59 197.311L197.594 192.458C197.59 189.764 195.393 187.566 192.697 187.564Z" fill="white"/>
<path d="M104.989 351.868H89.3972C87.7826 351.868 86.4736 353.177 86.4736 354.792C86.4736 356.406 87.7826 357.715 89.3972 357.715H104.989C106.604 357.715 107.913 356.406 107.913 354.792C107.913 353.177 106.604 351.868 104.989 351.868Z" fill="white"/>
<path d="M161.41 305.473V289.881C161.41 288.266 160.101 286.958 158.487 286.958C156.872 286.958 155.563 288.266 155.563 289.881V305.473C155.563 307.088 156.872 308.397 158.487 308.397C160.101 308.397 161.41 307.088 161.41 305.473Z" fill="white"/>
<path d="M161.41 295.17V279.578C161.41 277.963 160.101 276.655 158.487 276.655C156.872 276.655 155.563 277.963 155.563 279.578V295.17C155.563 296.785 156.872 298.094 158.487 298.094C160.101 298.094 161.41 296.785 161.41 295.17Z" fill="white"/>
<path d="M201.943 305.473V289.881C201.943 288.266 200.634 286.958 199.02 286.958C197.405 286.958 196.096 288.266 196.096 289.881V305.473C196.096 307.088 197.405 308.397 199.02 308.397C200.634 308.397 201.943 307.088 201.943 305.473Z" fill="#ECFEAA"/>
<path d="M201.943 295.17V279.578C201.943 277.963 200.634 276.655 199.02 276.655C197.405 276.655 196.096 277.963 196.096 279.578V295.17C196.096 296.785 197.405 298.094 199.02 298.094C200.634 298.094 201.943 296.785 201.943 295.17Z" fill="#ECFEAA"/>
<path d="M171.273 313.977V298.385C171.273 296.771 169.964 295.462 168.349 295.462C166.735 295.462 165.426 296.771 165.426 298.385V313.977C165.426 315.592 166.735 316.901 168.349 316.901C169.964 316.901 171.273 315.592 171.273 313.977Z" fill="#ECFEAA"/>
<path d="M171.273 303.674V288.082C171.273 286.468 169.964 285.159 168.349 285.159C166.735 285.159 165.426 286.468 165.426 288.082V303.674C165.426 305.289 166.735 306.598 168.349 306.598C169.964 306.598 171.273 305.289 171.273 303.674Z" fill="#ECFEAA"/>
<path d="M181.575 313.977V298.385C181.575 296.771 180.266 295.462 178.652 295.462C177.037 295.462 175.728 296.771 175.728 298.385V313.977C175.728 315.592 177.037 316.901 178.652 316.901C180.266 316.901 181.575 315.592 181.575 313.977Z" fill="#ECFEAA"/>
<path d="M181.575 303.674V288.082C181.575 286.468 180.266 285.159 178.652 285.159C177.037 285.159 175.728 286.468 175.728 288.082V303.674C175.728 305.289 177.037 306.598 178.652 306.598C180.266 306.598 181.575 305.289 181.575 303.674Z" fill="#ECFEAA"/>
<path d="M191.878 313.977V298.385C191.878 296.771 190.569 295.462 188.955 295.462C187.34 295.462 186.031 296.771 186.031 298.385V313.977C186.031 315.592 187.34 316.901 188.955 316.901C190.569 316.901 191.878 315.592 191.878 313.977Z" fill="#ECFEAA"/>
<path d="M191.878 303.674V288.082C191.878 286.468 190.569 285.159 188.955 285.159C187.34 285.159 186.031 286.468 186.031 288.082V303.674C186.031 305.289 187.34 306.598 188.955 306.598C190.569 306.598 191.878 305.289 191.878 303.674Z" fill="#ECFEAA"/>
</g>
<defs>
<clipPath id="clip0_384_82">
<rect width="147.301" height="147.301" fill="white" transform="translate(74 275.157) rotate(-45)"/>
</clipPath>
</defs>
</svg>
