<svg id="Capa_1" enable-background="new 0 0 512.238 512.238" height="512" viewBox="0 0 512.238 512.238" width="512" xmlns="http://www.w3.org/2000/svg"><g><path d="m309.945 69.714-117.7 203.862c-52.239 90.48 13.06 203.58 117.537 203.58h14.183c104.477 0 169.775-113.1 117.537-203.58l-117.7-203.862c-3.08-5.333-10.778-5.333-13.857 0z" fill="#ffe177"/><path d="m447.943 396.708c-10.91 16.04-21.51 29.48-30.26 38.61-19.99 20.86-46.58 35.81-77.47 40.91-7.63 1.27-15.53 1.93-23.65 1.93-4.38 0-8.69-.2-12.94-.57 1.41-.13 2.82-.27 4.21-.44 33.67-3.98 62.59-19.53 83.97-41.83 40.8-42.57 54.13-109.76 20.56-167.9l-108.28-187.54 5.86-10.16c3.08-5.34 10.78-5.34 13.86 0l117.7 203.86c23.431 40.58 23.22 85.7 6.44 123.13z" fill="#ffd15b"/><path d="m187.307 3.999-147.649 255.735c-64.791 112.222 16.198 252.499 145.78 252.499h17.591c129.583 0 210.572-140.277 145.78-252.499l-147.648-255.735c-3.079-5.332-10.776-5.332-13.854 0z" fill="#ffe177"/><path d="m203.033 512.238h-15.92c42.66-4.5 79.29-23.97 106.23-52.09 50.57-52.75 67.08-135.99 25.48-208.05l-137.38-237.96 5.86-10.14c3.08-5.33 10.78-5.33 13.86 0l147.65 255.74c64.79 112.22-16.2 252.5-145.78 252.5z" fill="#ffd15b"/><path d="m495.383 277.318v134.05c0 7.61-6.08 13.8-13.64 13.99-.12.01-.24.01-.36.01h-279.98c-7.73 0-14-6.27-14-14v-134.05c0-7.74 6.27-14 14-14h279.98c7.73 0 14 6.26 14 14z" fill="#fe646f"/><path d="m495.383 277.318v134.05c0 7.61-6.08 13.8-13.64 13.99h-25.54c7.96 0 14.42-6.46 14.42-14.42v-133.2c0-7.96-6.46-14.42-14.42-14.42h25.18c7.73 0 14 6.26 14 14z" fill="#fd4755"/><g fill="#dff6fd"><path d="m377.025 386.426-33.292-88.217c-.026-.068-.053-.138-.081-.205-1.476-3.587-4.934-5.902-8.811-5.902-.003 0-.006 0-.009 0-3.882.004-7.34 2.327-8.81 5.919-.023.058-.046.114-.067.172l-33.597 88.212c-1.475 3.871.468 8.204 4.339 9.679.878.335 1.781.493 2.668.493 3.022 0 5.871-1.84 7.01-4.833l6.528-17.139h43.628l6.46 17.118c1.463 3.874 5.788 5.828 9.665 4.368 3.876-1.462 5.832-5.789 4.369-9.665zm-58.408-26.821 16.201-42.537 16.053 42.537z"/><path d="m268.462 307.757c4.142 0 7.5-3.357 7.5-7.5s-3.358-7.5-7.5-7.5h-35.998c-4.142 0-7.5 3.357-7.5 7.5v88.817c0 4.143 3.358 7.5 7.5 7.5s7.5-3.357 7.5-7.5v-37.75h25.638c4.142 0 7.5-3.357 7.5-7.5s-3.358-7.5-7.5-7.5h-25.638v-28.567z"/><path d="m450.325 292.102h-49.412c-4.142 0-7.5 3.357-7.5 7.5s3.358 7.5 7.5 7.5h17.106v81.973c0 4.143 3.358 7.5 7.5 7.5s7.5-3.357 7.5-7.5v-81.973h17.306c4.142 0 7.5-3.357 7.5-7.5s-3.358-7.5-7.5-7.5z"/></g></g></svg>