<svg height="512" viewBox="0 0 64 64" width="512" xmlns="http://www.w3.org/2000/svg"><g id="Artboard_09" data-name="Artboard 09"><path d="m49 5-13-3-5 7v2l6 6h3l1-1 3 4v15.661a13.459 13.459 0 0 0 -4.111-.661 16.013 16.013 0 0 0 -11.606 4.7l.045-.045c-2.228-2.662-6.667-6.655-13.328-6.655-10 0-13 7-13 7v22c20 0 25-5 25-5a33.661 33.661 0 0 0 12 3c16.031 0 20.672-8.543 21.731-11.213.272-.687.56-1.369.891-2.03l.378-.757v-3z" fill="#f2b9a1"/><path d="m41 16-2.745-4.647 1.373-2.788 3.91.881-.897 4.304z" fill="#b58b79"/><path d="m49 5-13-3-5 7v2l3.163-.576 4.467-3.815 11.841 2.691z" fill="#f5c7b4"/><path d="m37 17h3l-2.773-4.516a2.27 2.27 0 0 0 -2.581-.988l-2.428.722z" fill="#e2a48f"/><path d="m59.436 51.237a26.764 26.764 0 0 1 -11.088 5.263 27.086 27.086 0 0 1 -21.065-3.457l-10.044 2.283c-12.51 1.86-11.922-14.967-11.531-19.579a11.555 11.555 0 0 0 -3.708 4.253v22c20 0 25-5 25-5a33.661 33.661 0 0 0 12 3c12.518 0 18.091-5.209 20.436-8.763z" fill="#e2a48f"/><g fill="#f5c7b4"><path d="m28.283 39.705.045-.045c-2.228-2.667-6.667-6.66-13.328-6.66a17.235 17.235 0 0 0 -5.8.943 4.5 4.5 0 0 0 .641 2.549l5.78 9.522a4.114 4.114 0 0 0 3.484 1.926h2.237a4.114 4.114 0 0 0 3.606-2.133l3.372-6.135z"/><path d="m28.287 39.612v.093l.045-.045z"/><path d="m42.427 50.413c2.384-1.046 6.7-3.378 6.508-6.5-.167-2.757-2.951-6.313-4.935-8.513v.26a13.459 13.459 0 0 0 -4.111-.66 16.013 16.013 0 0 0 -11.606 4.7l3.132 7.308a5.484 5.484 0 0 0 4.269 3.268l3.774.536a5.447 5.447 0 0 0 2.969-.399z"/></g><path d="m48.5 16.088a1.835 1.835 0 0 0 -3.535.089l-.965 3.823v15.661c3.543 1.514 9.125 6.214 9.272 6.214a18.02 18.02 0 0 0 1.211-2.36 4.289 4.289 0 0 0 .219-3.071z" fill="#e2a48f"/><path d="m44 30.332v5.329c3.543 1.514 9.125 6.214 9.272 6.214-.049-3.082-9.272-11.543-9.272-11.543z" fill="#aa7b6b" opacity=".3"/></g></svg>