<svg width="61" height="61" viewBox="0 0 61 61" fill="none" xmlns="http://www.w3.org/2000/svg">
<g clip-path="url(#clip0_699_3248)">
<path d="M67.0999 -6.09985H-6.1001V67.1001H67.0999V-6.09985Z" fill="white"/>
<path d="M67.0999 -6.09985H-6.1001V67.1001H67.0999V-6.09985Z" fill="#86BC31"/>
<path d="M21.6938 41.8841V17.3987H30.272C33.2419 17.3987 35.4951 17.968 37.0303 19.1066C38.5667 20.244 39.3356 21.9112 39.3356 24.1084C39.3356 25.308 39.0267 26.3653 38.4104 27.2803C37.7934 28.194 36.9362 28.863 35.8382 29.2881C37.0938 29.602 38.0825 30.2355 38.8043 31.1892C39.5275 32.1416 39.8896 33.3076 39.8896 34.6864C39.8896 37.0418 39.1379 38.8253 37.6352 40.0364C36.1337 41.2461 33.993 41.8625 31.2124 41.8841H21.6938ZM26.7391 31.2222V37.8303H31.0624C32.25 37.8303 33.1771 37.5475 33.843 36.9814C34.5102 36.4159 34.8444 35.6337 34.8444 34.6355C34.8444 32.3939 33.6842 31.2565 31.3649 31.2222H26.7391ZM26.7391 27.6564H30.4728C33.0176 27.6126 34.2903 26.5985 34.2903 24.6142C34.2903 23.5048 33.9676 22.7055 33.322 22.2175C32.6777 21.7295 31.661 21.4855 30.272 21.4855H26.7391V27.6564Z" fill="white"/>
</g>
<defs>
<clipPath id="clip0_699_3248">
<rect width="61" height="61" rx="30.5" fill="white"/>
</clipPath>
</defs>
</svg>
