<svg width="61" height="61" viewBox="0 0 61 61" fill="none" xmlns="http://www.w3.org/2000/svg">
<g clip-path="url(#clip0_699_3239)">
<path d="M67.0999 -6.1001H-6.1001V67.0999H67.0999V-6.1001Z" fill="white"/>
<path d="M67.0999 -6.1001H-6.1001V67.0999H67.0999V-6.1001Z" fill="#FFCD01"/>
<path d="M40.6373 33.7289C40.4473 36.364 39.4745 38.438 37.7195 39.9509C35.9657 41.4645 33.6534 42.2206 30.7833 42.2206C27.643 42.2206 25.1738 41.1646 23.3743 39.0512C21.5748 36.9384 20.675 34.0378 20.675 30.3485V28.8515C20.675 26.4979 21.0893 24.4239 21.9179 22.6295C22.7478 20.8351 23.9341 19.4594 25.4763 18.5018C27.0178 17.543 28.809 17.0632 30.8493 17.0632C33.6757 17.0632 35.9511 17.82 37.6763 19.3329C39.4027 20.8465 40.4009 22.9713 40.6703 25.7074H35.6251C35.5012 24.1265 35.0609 22.9802 34.3035 22.2686C33.5473 21.5556 32.3959 21.1985 30.8493 21.1985C29.168 21.1985 27.9099 21.8022 27.075 23.0082C26.2394 24.2129 25.8105 26.0823 25.7889 28.6151V30.4654C25.7889 33.1126 26.1892 35.0468 26.9911 36.2681C27.7924 37.49 29.0562 38.1006 30.7833 38.1006C32.34 38.1006 33.5028 37.7448 34.2704 37.0331C35.0393 36.3214 35.4803 35.2203 35.5921 33.7289H40.6373Z" fill="white"/>
</g>
<defs>
<clipPath id="clip0_699_3239">
<rect width="61" height="61" rx="30.5" fill="white"/>
</clipPath>
</defs>
</svg>
