<svg width="61" height="61" viewBox="0 0 61 61" fill="none" xmlns="http://www.w3.org/2000/svg">
<g clip-path="url(#clip0_699_3229)">
<path d="M67.0999 -6.1001H-6.1001V67.0999H67.0999V-6.1001Z" fill="white"/>
<path d="M67.0999 -6.1001H-6.1001V67.0999H67.0999V-6.1001Z" fill="#EF8304"/>
<path d="M21.4915 41.8851V17.3987H29.025C31.1784 17.3987 33.1043 17.8841 34.8022 18.8551C36.5013 19.8247 37.8274 21.2036 38.7799 22.9929C39.7336 24.781 40.2108 26.8124 40.2108 29.0878V30.2138C40.2108 32.4898 39.7419 34.5136 38.8053 36.2858C37.87 38.0567 36.5496 39.4298 34.8454 40.4058C33.1405 41.3806 31.2171 41.8737 29.0758 41.8851H21.4915ZM26.5367 21.4857V37.8311H28.9767C30.949 37.8311 32.4562 37.1875 33.4983 35.8995C34.5416 34.6102 35.0748 32.7656 35.097 30.3663V29.07C35.097 26.5811 34.581 24.6952 33.5491 23.4123C32.5185 22.1281 31.0106 21.4857 29.025 21.4857H26.5367Z" fill="white"/>
</g>
<defs>
<clipPath id="clip0_699_3229">
<rect width="61" height="61" rx="30.5" fill="white"/>
</clipPath>
</defs>
</svg>
