<svg id="Capa_1" enable-background="new 0 0 512 512" height="512" viewBox="0 0 512 512" width="512" xmlns="http://www.w3.org/2000/svg"><g><path d="m208 160-80 32-80-32v-81.095c0-17.068 13.837-30.905 30.905-30.905h98.189c17.069 0 30.906 13.837 30.906 30.905z" fill="#017297"/><path d="m230.245 160h-204.49c-14.224 0-25.755 11.531-25.755 25.755v230.245l128 16 128-16v-230.245c0-14.224-11.531-25.755-25.755-25.755z" fill="#d4f2f6"/><path d="m464 0h-160.547c-8.535 0-15.453 6.918-15.453 15.453v144.547c0 8.534 6.918 15.453 15.453 15.453h43.396c2.845 0 5.151 2.306 5.151 5.151v17.68c0 4.132 4.621 6.582 8.042 4.263l38.649-26.207c.853-.578 1.86-.888 2.891-.888h62.418c8.534 0 15.453-6.918 15.453-15.453v-144.546c0-8.535-6.919-15.453-15.453-15.453z" fill="#dcf5f8"/><path d="m464 0h-30.905c8.534 0 15.453 6.918 15.453 15.453v144.547c0 8.534-6.918 15.453-15.453 15.453h30.905c8.534 0 15.453-6.919 15.453-15.453v-144.547c0-8.535-6.919-15.453-15.453-15.453z" fill="#a6e7f0"/><path d="m426.436 84.345h-16.134c-1.422 0-2.575-1.153-2.575-2.575v-47.194c0-1.422-1.153-2.575-2.575-2.575h-42.849c-1.422 0-2.575 1.153-2.575 2.575v47.194c0 1.422-1.153 2.575-2.575 2.575h-16.134c-2.147 0-3.352 2.474-2.027 4.164l42.71 54.504c1.031 1.316 3.023 1.316 4.054 0l42.71-54.504c1.322-1.69.118-4.164-2.03-4.164z" fill="#e94444"/><path d="m0 486.245c0 14.224 11.531 25.755 25.755 25.755h123.815l106.43-96h-256z" fill="#fff0ad"/><path d="m230.245 160h-15.968c.338 1.664.515 3.387.515 5.151v256l41.208-5.151v-230.245c0-14.224-11.531-25.755-25.755-25.755z" fill="#a6e7f0"/><path d="m.515 491.396c2.387 11.756 12.78 20.604 25.24 20.604h123.815l22.842-20.604z" fill="#ffe177"/><path d="m511.983 506.427c-2.177-27.237-20.17-50.014-44.79-59.144-1.663-.617-2.85-2.074-3.196-3.813-10.473-52.725-56.99-92.47-112.792-92.47-38.138 0-71.938 18.566-92.859 47.153-1.358 1.856-3.78 2.595-5.933 1.785-5.041-1.898-10.503-2.937-16.208-2.937-25.405 0-46 20.595-46 46 0 .105 0 .211.001.316.015 2.126-1.254 4.033-3.221 4.841-23.473 9.65-40.451 31.869-42.559 58.278-.239 2.997 2.136 5.565 5.143 5.565h357.271c3.011-.001 5.383-2.573 5.143-5.574z" fill="#fff6ce"/><path d="m214 135.5h-172c-4.143 0-7.5-3.357-7.5-7.5s3.357-7.5 7.5-7.5h172c4.143 0 7.5 3.357 7.5 7.5s-3.357 7.5-7.5 7.5z" fill="#0681af"/><g fill="#02c7dd"><path d="m112 248.5c-4.143 0-7.5 3.357-7.5 7.5v64.229l-33.792-67.584c-1.556-3.11-5.041-4.746-8.432-3.945-3.385.8-5.776 3.821-5.776 7.3v96c0 4.143 3.357 7.5 7.5 7.5s7.5-3.357 7.5-7.5v-64.229l33.792 67.584c1.291 2.582 3.915 4.146 6.706 4.146.571 0 1.149-.065 1.726-.201 3.385-.8 5.776-3.821 5.776-7.3v-96c0-4.143-3.357-7.5-7.5-7.5z"/><path d="m192 296.5c-3.249 0-6.015 2.065-7.057 4.955-4.895-3.135-10.711-4.955-16.943-4.955-17.369 0-31.5 14.131-31.5 31.5s14.131 31.5 31.5 31.5c6.232 0 12.048-1.82 16.943-4.955 1.042 2.89 3.808 4.955 7.057 4.955 4.143 0 7.5-3.357 7.5-7.5v-48c0-4.143-3.357-7.5-7.5-7.5zm-24 48c-9.098 0-16.5-7.402-16.5-16.5s7.402-16.5 16.5-16.5 16.5 7.402 16.5 16.5-7.402 16.5-16.5 16.5z"/></g><g><g><circle cx="80" cy="80" fill="#025f80" r="7.5"/></g></g><g><g><circle cx="112" cy="80" fill="#025f80" r="7.5"/></g></g><g><g><circle cx="144" cy="80" fill="#025f80" r="7.5"/></g></g><g><g><circle cx="176" cy="80" fill="#025f80" r="7.5"/></g></g><g><g><circle cx="48" cy="464" fill="#ffe177" r="7.5"/></g></g><g><g><circle cx="112" cy="480" fill="#ffe177" r="7.5"/></g></g><g><g><circle cx="80" cy="448" fill="#ffe177" r="7.5"/></g></g><g><g><circle cx="352" cy="400" fill="#fff0ad" r="7.5"/></g></g><g><g><circle cx="384" cy="432" fill="#fff0ad" r="7.5"/></g></g><g><g><circle cx="432" cy="480" fill="#fff0ad" r="7.5"/></g></g><g><g><circle cx="416" cy="416" fill="#fff0ad" r="7.5"/></g></g><g><g><circle cx="304" cy="448" fill="#fff0ad" r="7.5"/></g></g><g><g><circle cx="256" cy="480" fill="#fff0ad" r="7.5"/></g></g><g><g><circle cx="224" cy="464" fill="#fff0ad" r="7.5"/></g></g></g></svg>