<svg width="360" height="800" viewBox="0 0 360 800" fill="none" xmlns="http://www.w3.org/2000/svg">
<rect width="360" height="800" fill="#2B59C3"/>
<path d="M89.1633 379.2C93.2593 379.2 96.3099 380.16 98.3153 382.08C100.321 384 101.323 386.837 101.323 390.592C101.323 392.597 100.833 394.368 99.8513 395.904C98.8699 397.397 97.4193 398.571 95.4993 399.424C93.5793 400.235 91.2113 400.64 88.3953 400.64L88.6513 397.76C89.9739 397.76 91.4886 397.952 93.1953 398.336C94.9019 398.677 96.5446 399.317 98.1233 400.256C99.7446 401.152 101.067 402.432 102.091 404.096C103.158 405.717 103.691 407.808 103.691 410.368C103.691 413.184 103.222 415.488 102.283 417.28C101.387 419.072 100.193 420.459 98.6993 421.44C97.2059 422.421 95.6059 423.104 93.8993 423.488C92.1926 423.829 90.5499 424 88.9713 424H73.0353C71.9259 424 70.9873 423.637 70.2193 422.912C69.4939 422.144 69.1313 421.205 69.1313 420.096V383.104C69.1313 381.995 69.4939 381.077 70.2193 380.352C70.9873 379.584 71.9259 379.2 73.0353 379.2H89.1633ZM88.0113 386.752H76.6193L77.4513 385.728V397.312L76.6833 396.736H88.2033C89.4406 396.736 90.5499 396.331 91.5313 395.52C92.5126 394.709 93.0033 393.536 93.0033 392C93.0033 390.165 92.5339 388.843 91.5953 388.032C90.6993 387.179 89.5046 386.752 88.0113 386.752ZM88.5233 404.288H76.8753L77.4513 403.776V417.28L76.8113 416.64H88.9713C90.9339 416.64 92.4913 416.128 93.6433 415.104C94.7953 414.037 95.3713 412.459 95.3713 410.368C95.3713 408.448 94.9873 407.061 94.2193 406.208C93.4513 405.355 92.5339 404.821 91.4673 404.608C90.4006 404.395 89.4193 404.288 88.5233 404.288ZM126.494 424.64C122.868 424.64 119.71 423.893 117.022 422.4C114.377 420.864 112.329 418.795 110.878 416.192C109.47 413.589 108.766 410.645 108.766 407.36C108.766 403.52 109.534 400.256 111.07 397.568C112.649 394.837 114.697 392.747 117.214 391.296C119.732 389.845 122.398 389.12 125.214 389.12C127.39 389.12 129.438 389.568 131.358 390.464C133.321 391.36 135.049 392.597 136.542 394.176C138.036 395.712 139.209 397.504 140.062 399.552C140.958 401.6 141.406 403.776 141.406 406.08C141.364 407.104 140.958 407.936 140.19 408.576C139.422 409.216 138.526 409.536 137.502 409.536H113.054L111.134 403.136H134.622L133.214 404.416V402.688C133.129 401.451 132.681 400.341 131.87 399.36C131.102 398.379 130.121 397.611 128.926 397.056C127.774 396.459 126.537 396.16 125.214 396.16C123.934 396.16 122.74 396.331 121.63 396.672C120.521 397.013 119.561 397.589 118.75 398.4C117.94 399.211 117.3 400.299 116.83 401.664C116.361 403.029 116.126 404.757 116.126 406.848C116.126 409.152 116.596 411.115 117.534 412.736C118.516 414.315 119.753 415.531 121.246 416.384C122.782 417.195 124.404 417.6 126.11 417.6C127.689 417.6 128.948 417.472 129.886 417.216C130.825 416.96 131.572 416.661 132.126 416.32C132.724 415.936 133.257 415.616 133.726 415.36C134.494 414.976 135.22 414.784 135.902 414.784C136.841 414.784 137.609 415.104 138.206 415.744C138.846 416.384 139.166 417.131 139.166 417.984C139.166 419.136 138.569 420.181 137.374 421.12C136.265 422.059 134.708 422.891 132.702 423.616C130.697 424.299 128.628 424.64 126.494 424.64Z" fill="white"/>
<path d="M198.499 379.008C199.481 379.008 200.419 379.392 201.315 380.16C202.211 380.885 202.659 381.888 202.659 383.168C202.659 383.552 202.595 383.979 202.467 384.448L189.859 421.568C189.603 422.336 189.134 422.933 188.451 423.36C187.811 423.744 187.129 423.957 186.403 424C185.678 424 184.953 423.787 184.227 423.36C183.545 422.933 183.011 422.315 182.627 421.504L173.155 400L173.731 400.384L164.387 421.504C164.003 422.315 163.449 422.933 162.723 423.36C162.041 423.787 161.337 424 160.611 424C159.929 423.957 159.246 423.744 158.563 423.36C157.881 422.933 157.411 422.336 157.155 421.568L144.547 384.448C144.419 383.979 144.355 383.552 144.355 383.168C144.355 381.888 144.803 380.885 145.699 380.16C146.638 379.392 147.598 379.008 148.579 379.008C149.39 379.008 150.137 379.221 150.819 379.648C151.545 380.075 152.035 380.693 152.291 381.504L162.467 412.352L161.059 412.288L170.147 390.464C170.489 389.696 170.979 389.099 171.619 388.672C172.259 388.203 172.985 387.989 173.795 388.032C174.606 387.989 175.331 388.203 175.971 388.672C176.611 389.099 177.081 389.696 177.379 390.464L185.699 411.328L184.675 411.968L194.723 381.504C194.979 380.693 195.47 380.075 196.195 379.648C196.921 379.221 197.689 379.008 198.499 379.008ZM230.22 418.688C229.793 418.091 229.601 417.323 229.644 416.384C229.686 415.445 230.241 414.635 231.308 413.952C231.99 413.525 232.716 413.355 233.484 413.44C234.252 413.483 234.998 413.867 235.724 414.592C236.961 415.829 238.262 416.789 239.628 417.472C240.993 418.155 242.7 418.496 244.748 418.496C245.388 418.453 246.092 418.368 246.86 418.24C247.628 418.069 248.289 417.728 248.844 417.216C249.441 416.661 249.74 415.829 249.74 414.72C249.74 413.781 249.42 413.035 248.78 412.48C248.14 411.925 247.286 411.456 246.22 411.072C245.196 410.688 244.044 410.325 242.764 409.984C241.441 409.6 240.076 409.173 238.668 408.704C237.302 408.235 236.044 407.637 234.892 406.912C233.74 406.144 232.801 405.141 232.076 403.904C231.35 402.667 230.988 401.109 230.988 399.232C230.988 397.099 231.585 395.285 232.78 393.792C233.974 392.299 235.51 391.147 237.388 390.336C239.308 389.525 241.313 389.12 243.404 389.12C244.726 389.12 246.113 389.291 247.564 389.632C249.014 389.931 250.401 390.443 251.724 391.168C253.046 391.851 254.156 392.768 255.052 393.92C255.521 394.56 255.798 395.328 255.884 396.224C255.969 397.12 255.564 397.931 254.668 398.656C254.028 399.168 253.281 399.403 252.428 399.36C251.574 399.275 250.87 398.976 250.316 398.464C249.59 397.525 248.609 396.779 247.372 396.224C246.177 395.669 244.79 395.392 243.212 395.392C242.572 395.392 241.868 395.477 241.1 395.648C240.374 395.776 239.734 396.096 239.18 396.608C238.625 397.077 238.348 397.845 238.348 398.912C238.348 399.893 238.668 400.683 239.308 401.28C239.948 401.835 240.801 402.304 241.868 402.688C242.977 403.029 244.15 403.371 245.388 403.712C246.668 404.053 247.969 404.459 249.292 404.928C250.614 405.397 251.83 406.016 252.94 406.784C254.049 407.552 254.945 408.555 255.628 409.792C256.31 410.987 256.652 412.523 256.652 414.4C256.652 416.576 256.012 418.432 254.732 419.968C253.452 421.504 251.852 422.677 249.932 423.488C248.012 424.256 246.049 424.64 244.044 424.64C241.526 424.64 239.009 424.213 236.492 423.36C233.974 422.464 231.884 420.907 230.22 418.688ZM279.207 424.64C275.58 424.64 272.423 423.893 269.735 422.4C267.089 420.864 265.041 418.795 263.591 416.192C262.183 413.589 261.479 410.645 261.479 407.36C261.479 403.52 262.247 400.256 263.783 397.568C265.361 394.837 267.409 392.747 269.927 391.296C272.444 389.845 275.111 389.12 277.927 389.12C280.103 389.12 282.151 389.568 284.071 390.464C286.033 391.36 287.761 392.597 289.255 394.176C290.748 395.712 291.921 397.504 292.775 399.552C293.671 401.6 294.119 403.776 294.119 406.08C294.076 407.104 293.671 407.936 292.903 408.576C292.135 409.216 291.239 409.536 290.215 409.536H265.767L263.847 403.136H287.335L285.927 404.416V402.688C285.841 401.451 285.393 400.341 284.583 399.36C283.815 398.379 282.833 397.611 281.639 397.056C280.487 396.459 279.249 396.16 277.927 396.16C276.647 396.16 275.452 396.331 274.343 396.672C273.233 397.013 272.273 397.589 271.463 398.4C270.652 399.211 270.012 400.299 269.543 401.664C269.073 403.029 268.839 404.757 268.839 406.848C268.839 409.152 269.308 411.115 270.247 412.736C271.228 414.315 272.465 415.531 273.959 416.384C275.495 417.195 277.116 417.6 278.823 417.6C280.401 417.6 281.66 417.472 282.599 417.216C283.537 416.96 284.284 416.661 284.839 416.32C285.436 415.936 285.969 415.616 286.439 415.36C287.207 414.976 287.932 414.784 288.615 414.784C289.553 414.784 290.321 415.104 290.919 415.744C291.559 416.384 291.879 417.131 291.879 417.984C291.879 419.136 291.281 420.181 290.087 421.12C288.977 422.059 287.42 422.891 285.415 423.616C283.409 424.299 281.34 424.64 279.207 424.64Z" fill="#ECFEAA"/>
<path d="M209.119 411.72V406.883C209.119 406.382 208.713 405.976 208.212 405.976C207.711 405.976 207.305 406.382 207.305 406.883V411.72C207.305 412.221 207.711 412.627 208.212 412.627C208.713 412.627 209.119 412.221 209.119 411.72Z" fill="white"/>
<path d="M209.119 408.524V403.686C209.119 403.185 208.713 402.779 208.212 402.779C207.711 402.779 207.305 403.185 207.305 403.686V408.524C207.305 409.025 207.711 409.431 208.212 409.431C208.713 409.431 209.119 409.025 209.119 408.524Z" fill="white"/>
<path d="M221.695 411.72V406.883C221.695 406.382 221.288 405.976 220.788 405.976C220.287 405.976 219.881 406.382 219.881 406.883V411.72C219.881 412.221 220.287 412.627 220.788 412.627C221.288 412.627 221.695 412.221 221.695 411.72Z" fill="#ECFEAA"/>
<path d="M221.695 408.524V403.686C221.695 403.185 221.288 402.779 220.788 402.779C220.287 402.779 219.881 403.185 219.881 403.686V408.524C219.881 409.025 220.287 409.431 220.788 409.431C221.288 409.431 221.695 409.025 221.695 408.524Z" fill="#ECFEAA"/>
<path d="M212.179 414.359V409.521C212.179 409.02 211.773 408.614 211.272 408.614C210.771 408.614 210.365 409.02 210.365 409.521V414.359C210.365 414.86 210.771 415.266 211.272 415.266C211.773 415.266 212.179 414.86 212.179 414.359Z" fill="#ECFEAA"/>
<path d="M212.179 411.162V406.325C212.179 405.824 211.773 405.418 211.272 405.418C210.771 405.418 210.365 405.824 210.365 406.325V411.162C210.365 411.663 210.771 412.069 211.272 412.069C211.773 412.069 212.179 411.663 212.179 411.162Z" fill="#ECFEAA"/>
<path d="M215.375 414.359V409.521C215.375 409.02 214.969 408.614 214.468 408.614C213.968 408.614 213.561 409.02 213.561 409.521V414.359C213.561 414.86 213.968 415.266 214.468 415.266C214.969 415.266 215.375 414.86 215.375 414.359Z" fill="#ECFEAA"/>
<path d="M215.375 411.162V406.325C215.375 405.824 214.969 405.418 214.468 405.418C213.968 405.418 213.561 405.824 213.561 406.325V411.162C213.561 411.663 213.968 412.069 214.468 412.069C214.969 412.069 215.375 411.663 215.375 411.162Z" fill="#ECFEAA"/>
<path d="M218.572 414.359V409.521C218.572 409.02 218.166 408.614 217.665 408.614C217.164 408.614 216.758 409.02 216.758 409.521V414.359C216.758 414.86 217.164 415.266 217.665 415.266C218.166 415.266 218.572 414.86 218.572 414.359Z" fill="#ECFEAA"/>
<path d="M218.572 411.162V406.325C218.572 405.824 218.166 405.418 217.665 405.418C217.164 405.418 216.758 405.824 216.758 406.325V411.162C216.758 411.663 217.164 412.069 217.665 412.069C218.166 412.069 218.572 411.663 218.572 411.162Z" fill="#ECFEAA"/>
<path d="M218.826 374.839L218.826 374.839C219.828 374.84 220.644 375.656 220.645 376.657L220.645 376.657L220.644 378.163C220.644 379.059 219.993 379.805 219.141 379.955L219.14 384.178C219.14 384.178 219.141 384.178 219.141 384.178C219.141 384.539 219.142 384.986 219.289 385.495C219.435 386 219.728 386.578 220.332 387.182L222.588 389.438C224.171 391.021 225.156 393.321 225.156 395.457C225.156 395.457 225.156 395.457 225.156 395.457L225.155 422.525C225.156 423.612 224.731 424.637 223.962 425.406C223.193 426.175 222.168 426.599 221.08 426.599L207.547 426.599C205.3 426.599 203.472 424.772 203.473 422.525L203.471 395.456L203.471 395.456C203.472 393.32 204.458 391.02 206.04 389.438L208.296 387.182C208.9 386.578 209.193 386 209.339 385.495C209.486 384.986 209.487 384.54 209.487 384.178V384.178L209.487 381.919L209.487 381.918C209.489 381.331 209.965 380.852 210.555 380.852C211.145 380.851 211.623 381.33 211.623 381.92L211.623 381.92L211.621 384.177C211.622 384.97 211.621 386.877 209.806 388.691L207.55 390.947C206.368 392.129 205.606 393.908 205.606 395.456L205.606 422.525C205.606 423.594 206.477 424.465 207.547 424.465L221.081 424.465C222.112 424.465 223.021 423.555 223.021 422.525L223.021 395.457L223.021 395.457C223.021 393.908 222.26 392.129 221.079 390.948L218.823 388.692C217.007 386.876 217.006 384.97 217.006 384.178L217.007 378.915L218.826 374.839ZM218.826 374.839L209.802 374.839L209.801 374.839M218.826 374.839L209.801 374.839M209.801 374.839C208.799 374.841 207.982 375.655 207.983 376.659L207.983 378.163L207.983 378.163C207.984 378.648 208.173 379.106 208.516 379.449C208.86 379.793 209.318 379.982 209.803 379.981L215.066 379.982L215.066 379.982C215.655 379.982 216.132 379.504 216.133 378.915L216.133 378.915C216.133 378.326 215.655 377.847 215.066 377.847L215.065 377.848L210.114 377.861L210.105 376.973L218.514 376.959L218.523 377.847M209.801 374.839L218.523 377.847M218.523 377.847L218.076 377.846L218.075 377.846C217.791 377.846 217.52 377.959 217.32 378.159C217.12 378.359 217.006 378.631 217.007 378.914L218.523 377.847Z" fill="white" stroke="white" stroke-width="0.6"/>
</svg>
