<svg id="Capa_1" enable-background="new 0 0 512 512" height="512" viewBox="0 0 512 512" width="512" xmlns="http://www.w3.org/2000/svg"><g><g><path d="m248.981 135.66v150.003c-1.893 0-3.796-.434-5.534-1.314h-.01s-112.145-56.073-112.176-56.093c-4.148-2.12-6.765-6.382-6.765-11.057v-134.043c0-2.42.703-4.737 1.965-6.692z" fill="#b1e4f9"/><path d="m373.477 83.156v134.043c0 4.675-2.617 8.937-6.765 11.057-.031.021-112.29 56.145-112.342 56.176-1.707.817-3.548 1.231-5.389 1.231v-150.003l122.53-59.196c1.262 1.955 1.966 4.272 1.966 6.692z" fill="#90d8f9"/><path d="m371.511 76.464-116.979 58.49c-3.495 1.747-7.608 1.747-11.102 0l-116.969-58.49c1.179-1.851 2.855-3.393 4.893-4.406l112.083-56.042c3.493-1.747 7.605-1.747 11.099 0l112.083 56.042c2.038 1.013 3.713 2.554 4.892 4.406z" fill="#e4f6ff"/><path d="m371.511 76.464-116.978 58.489c-3.495 1.748-7.609 1.747-11.104-.001l-13.449-6.728 87.672-43.836c7.334-3.662 7.334-14.14 0-17.812l-87.662-43.837 13.447-6.723c3.493-1.747 7.605-1.747 11.099 0l112.083 56.042c2.038 1.013 3.713 2.554 4.892 4.406z" fill="#d3effb"/></g><g><path d="m124.496 347.301v149.993c-1.903 0-3.806-.434-5.555-1.314l-112.083-56.041c-4.2-2.1-6.858-6.393-6.858-11.099v-134.043c0-2.421.703-4.737 1.965-6.692z" fill="#b1e4f9"/><path d="m248.981 294.797v134.043c0 4.706-2.648 8.999-6.858 11.099l-112.083 56.041c-1.738.879-3.641 1.314-5.544 1.314v-149.993l122.52-59.196c1.262 1.955 1.965 4.272 1.965 6.692z" fill="#90d8f9"/><path d="m247.016 288.105-116.969 58.489c-3.494 1.747-7.608 1.747-11.102 0l-116.98-58.489c1.158-1.82 2.803-3.341 4.799-4.365.031-.021.062-.031.093-.052l98.626-49.308 13.457-6.734c.052-.031.114-.052.166-.072 3.455-1.676 7.489-1.645 10.923.072h.01l112.083 56.042c.031.021.072.031.103.062 2.008 1.014 3.632 2.534 4.791 4.355z" fill="#e4f6ff"/><path d="m247.016 288.105-116.969 58.489c-3.494 1.747-7.608 1.747-11.102 0l-13.46-6.73 87.672-43.836c7.334-3.672 7.334-14.14 0-17.812l-87.672-43.836 13.457-6.734c.052-.031.114-.052.166-.072 3.455-1.676 7.489-1.645 10.923.072h.01l112.083 56.042c.031.021.072.031.103.062 2.006 1.014 3.63 2.534 4.789 4.355z" fill="#d3effb"/></g><g><path d="m374.935 346.97-62.62 134.002c-1.655-.765-3.134-1.893-4.324-3.341l-.01-.01c-.052-.062-78.001-98.451-78.022-98.482-2.865-3.672-3.434-8.647-1.448-12.878l56.745-121.444c1.024-2.193 2.638-3.982 4.613-5.223l71.878 90.724 14.945 13.033z" fill="#b1e4f9"/><path d="m510.84 350.208c0 .01-.01.021-.01.031l-56.755 121.434c-1.965 4.22-6.144 6.982-10.788 7.147-.041.01-.083.01-.124.01l-125.602 3.32c-1.831 0-3.62-.403-5.244-1.179l62.62-134.002 1.757-3.62h135.203c.298 2.297-.043 4.676-1.057 6.859z" fill="#90d8f9"/><path d="m511.895 343.35-130.755 3.456c-3.906.103-7.633-1.639-10.059-4.702l-81.212-102.511c1.852-1.179 4.024-1.862 6.31-1.924l125.261-3.32h.021c3.817-.093 7.468 1.572 9.889 4.51l.155.186 77.805 98.223.01.01c1.417 1.79 2.285 3.889 2.575 6.072z" fill="#e4f6ff"/><path d="m511.895 343.35-130.755 3.456c-3.906.103-7.633-1.639-10.059-4.702l-9.335-11.787 97.975-2.596c8.213-.217 12.64-9.713 7.551-16.146l-60.872-76.822 15.04-.403h.021c3.817-.093 7.468 1.572 9.889 4.51l.155.186 77.805 98.223.01.01c1.417 1.789 2.285 3.888 2.575 6.071z" fill="#d3effb"/></g><g fill="#75cef9"><circle cx="338.539" cy="190.171" r="8.359"/><circle cx="338.539" cy="157.78" r="8.359"/><circle cx="306.148" cy="201.665" r="8.359"/></g></g></svg>