<svg width="30" height="30" viewBox="0 0 30 30" fill="none" xmlns="http://www.w3.org/2000/svg">
<g clip-path="url(#clip0_699_3385)">
<path d="M15 0C12.0333 0 9.13319 0.879735 6.66645 2.52796C4.19971 4.17618 2.27713 6.51886 1.14181 9.25975C0.00649927 12.0006 -0.290551 15.0166 0.288227 17.9264C0.867006 20.8361 2.29562 23.5088 4.3934 25.6066C6.49119 27.7044 9.16393 29.133 12.0736 29.7118C14.9834 30.2906 17.9994 29.9935 20.7403 28.8582C23.4811 27.7229 25.8238 25.8003 27.472 23.3335C29.1203 20.8668 30 17.9667 30 15C29.9958 11.023 28.4141 7.21017 25.602 4.39804C22.7898 1.5859 18.977 0.00419974 15 0ZM14.4231 6.92308C14.7654 6.92308 15.1 7.02458 15.3846 7.21476C15.6693 7.40494 15.8911 7.67525 16.0221 7.99151C16.1531 8.30776 16.1874 8.65576 16.1206 8.9915C16.0538 9.32724 15.889 9.63563 15.6469 9.87768C15.4049 10.1197 15.0965 10.2846 14.7607 10.3514C14.425 10.4181 14.077 10.3839 13.7607 10.2529C13.4445 10.1219 13.1742 9.90003 12.984 9.61541C12.7938 9.33078 12.6923 8.99616 12.6923 8.65384C12.6923 8.19482 12.8747 7.75459 13.1992 7.43001C13.5238 7.10542 13.9641 6.92308 14.4231 6.92308ZM16.1538 23.0769C15.5418 23.0769 14.9548 22.8338 14.5221 22.401C14.0893 21.9682 13.8462 21.3813 13.8462 20.7692V15C13.5401 15 13.2467 14.8784 13.0303 14.662C12.8139 14.4457 12.6923 14.1522 12.6923 13.8462C12.6923 13.5401 12.8139 13.2466 13.0303 13.0303C13.2467 12.8139 13.5401 12.6923 13.8462 12.6923C14.4582 12.6923 15.0452 12.9354 15.4779 13.3682C15.9107 13.801 16.1538 14.388 16.1538 15V20.7692C16.4599 20.7692 16.7534 20.8908 16.9697 21.1072C17.1861 21.3236 17.3077 21.6171 17.3077 21.9231C17.3077 22.2291 17.1861 22.5226 16.9697 22.739C16.7534 22.9554 16.4599 23.0769 16.1538 23.0769Z" fill="#293C56"/>
</g>
<defs>
<clipPath id="clip0_699_3385">
<rect width="30" height="30" fill="white"/>
</clipPath>
</defs>
</svg>
