<svg id="Layer_1" enable-background="new 0 0 38 38" height="512" viewBox="0 0 38 38" width="512" xmlns="http://www.w3.org/2000/svg"><g id="_x33_9"><g><g><g><path d="m30.3 23.8v1.1c0 .1 0 .2-.2.2l-9.9 4.9-3.1 1.5c-.3.1-.6.2-.9.1l-7.8-1.3c-.2 0-.2-.1-.2-.3v-1.1h1.8v.1l2.4-1.2 2.1-1 2.2-1.1 4.8-2.3c.2-.1.4-.1.6-.2h.3l1.8.3 1.8.3h.3l2.4.4v-.6h1.6z" fill="#ffb961"/></g><path d="m30.3 23.8v1.1c0 .1 0 .2-.2.2l-9.9 4.9c1.3-.9 2.5-2 3.6-3.2.7-.8 1.4-1.7 1.9-2.7.1-.1.1-.2.1-.3h.3l2.4.4v-.6h1.8z" fill="#f3a250"/><path d="m30.2 24-13 6.4c-.3.1-.6.2-.9.1l-7.8-1.3c-.3 0-.3-.4-.1-.5l13-6.4c.3-.1.6-.2.9-.1l7.8 1.3c.3 0 .3.4.1.5z" fill="#ffd475"/></g><g><g><path d="m30.3 22v1.5c0 .1 0 .2-.2.3h-.1l-6.3 3.1-6.7 3.3c-.3.1-.6.2-.9.1l-7.8-1.3c-.1 0-.2-.1-.2-.3v-1.5h1.9v.5l.3-.1 2.1-1 2.1-1 6.9-3.4c.3-.1.6-.2.9-.1l1.8.3 2.1.4h.3l1.8.3h.3v-1.1z" fill="#aa6256"/></g><path d="m30.3 22v1.5c0 .1 0 .2-.2.3h-.1l-6.3 3.1c.7-.8 1.4-1.7 1.9-2.7.1-.1.1-.2.1-.3.2-.4.4-.9.6-1.3l1.8.3h.3v-.9z" fill="#8a4852"/><path d="m30.2 22.2-13 6.4c-.3.1-.6.2-.9.1l-7.8-1.3c-.3 0-.3-.4-.1-.5l13-6.4c.3-.1.6-.2.9-.1l7.8 1.3c.3.1.3.4.1.5z" fill="#bf7d5a"/></g><g><g><path d="m30.3 20.6v1.1c0 .1 0 .2-.2.3l-1.6.8-.3.1-2.1 1-.4.2-8.6 4.2c-.3.1-.6.2-.9.1l-3.9-.7-2.1-.4h-.3l-1.5-.3s0 0-.1 0-.2-.1-.2-.2v-1.1h1.9v.1l1.8-.9 2.6-1.3 6.9-3.4c.3-.1.6-.2.9-.1l1.8.3 2.6.5h.3l1.5.3v-.6z" fill="#ffb961"/></g><path d="m30.3 20.6v1.1c0 .1 0 .2-.2.3l-1.6.8-.3.1-2.1 1-.4.2c.1-.1.1-.2.1-.3.2-.4.4-.9.6-1.3 0-.1.1-.2.1-.2.2-.5.3-.9.4-1.4l1.5.3v-.6z" fill="#f3a250"/><path d="m30.2 20.8-13 6.4c-.3.1-.6.2-.9.1l-7.9-1.3c-.3 0-.3-.4-.1-.5l13-6.4c.3-.1.6-.2.9-.1l7.8 1.3c.4.1.4.4.2.5z" fill="#ffd475"/></g><g><g><path d="m30.3 19.2v1.1c0 .1 0 .2-.2.2l-3.6 1.8-.4.2-2.1 1-6.8 3.5c-.3.1-.6.2-.9.1l-1.8-.3-2.1-.4-3.9-.7h-.1c-.1-.1-.1-.1-.1-.2v-1.1h1.7v.1l2.4-1.2 9-4.4c.3-.1.6-.2.9-.1l3.9.7 1.1.2 1.3.2v-.6h1.7z" fill="#ffb961"/></g><path d="m30.3 19.2v1.1c0 .1 0 .2-.2.2l-3.6 1.8c.2-.5.3-.9.4-1.4 0-.1 0-.1.1-.2.1-.4.2-.7.2-1.1l1.3.2v-.6z" fill="#f3a250"/><path d="m30.2 19.5-13 6.4c-.3.1-.6.2-.9.1l-7.8-1.3c-.3 0-.3-.4-.1-.5l13-6.4c.3-.1.6-.2.9-.1l7.8 1.3c.3 0 .3.3.1.5z" fill="#ffd475"/></g><g><g><path d="m30.2 17.5v1.5c0 .1 0 .2-.1.2 0 0 0 0-.1 0l-2.9 1.5-.3.2-2.6 1.3-2.2 1.1-4.8 2.3c-.2.1-.4.1-.6.1-.1 0-.2 0-.3 0l-1.8-.3-2.7-.4-3.3-.6c-.1 0-.2-.1-.2-.2v-1.5h1.7v.4l.3-.1 11-5.4c.3-.1.6-.2.9-.1l5.1.9.8.1h.3v-.9h1.8z" fill="#aa6256"/></g><path d="m30.2 17.5v1.5c0 .1 0 .2-.1.2 0 0 0 0-.1 0l-2.9 1.5c.1-.4.2-.7.2-1.1 0-.3.1-.5.1-.8 0-.2 0-.4 0-.5l.8.1h.3v-.9z" fill="#8a4852"/><path d="m30.1 17.8-12.9 6.3c-.3.1-.6.2-.9.1l-7.7-1.3c-.3 0-.3-.4-.1-.5l12.9-6.3c.3-.1.6-.2.9-.1l7.7 1.3c.2 0 .3.4.1.5z" fill="#bf7d5a"/></g><g><g><path d="m30.3 16.1v1.1c0 .1 0 .2-.2.2l-.1.1-1.5.7-.3.1-.4.2-.5.2-1.2.6-2.1 1-6.9 3.4c-.2.3-.5.3-.8.3l-1.8-.3-2.1-.4-2-.3h-.3l-1.6-.3h-.1c-.1 0-.2-.1-.2-.3v-1.1h1.8v.1l1.8-.9 9.6-4.7c.3-.1.6-.2.9-.1l6.3 1.1v-.6h1.7z" fill="#ffb961"/></g><path d="m30.2 16.3-5.4 2.6-7.7 3.8c-.3.1-.6.2-.9.1l-7.8-1.3c-.3 0-.3-.4-.1-.5l.5-.2 12.5-6.2c.3-.1.6-.2.9-.1l7.8 1.3c.4 0 .4.4.2.5z" fill="#ffd475"/><path d="m30.3 16.8v.4c0 .1 0 .2-.2.2l-.1.1-1.5.7-.3.1-.4.2-.5.2c0-.2 0-.4 0-.5 0-.2 0-.4 0-.7z" fill="#f3a250"/><g opacity=".4"><path d="m30.2 17.5h-.2.2v1.5h-5.4l-8.3.9-4.8.5 9.6-4.7c.3-.1.6-.2.9-.1l7.8 1.3c.4.1.4.4.2.6z" fill="#51383c"/></g><g><g><path d="m30.2 16.3-5.4 2.6-16 1.8 12.5-6.2c.3-.1.6-.2.9-.1l7.8 1.3c.4.1.4.5.2.6z" fill="#f3a250"/></g></g></g><g><g><path d="m34.8 16.3v1.1c0 .1 0 .1-.1.1l-24 2.7-2.1.2c-.1 0-.3 0-.4-.1l-5.1-2s-.1-.1-.1-.1v-1.1h3.6v.6l16-1.7 6.7-.7c.2 0 .4 0 .6.1l2.3.9z" fill="#ffb961"/></g><path d="m34.8 16.3v1.1c0 .1 0 .1-.1.1l-24 2.7c2.3-.5 4.6-1.1 6.8-1.9z" fill="#f3a250"/><g><path d="m29.9 14.3 4.8 1.9c.1 0 .1.2 0 .2l-26.1 3c-.1 0-.3 0-.4-.1l-5.1-2c-.1 0-.1-.2 0-.2l26.3-2.9c.2 0 .4 0 .5.1z" fill="#ffd475"/></g></g><g><g><path d="m34.6 14.4v1.7c0 .1 0 .1-.1.1l-.6.1-15.5 1.8-9.7 1.1c-.1 0-.3 0-.4-.1l-4.9-1.9-.2-.1s-.1-.1-.1-.1v-1.7h3.6v1.2l18.4-2 4.2-.5c.2 0 .4 0 .6.1l1.2.5v-.2z" fill="#aa6256"/></g><g><path d="m29.8 12.4 4.8 1.9c.1 0 .1.2 0 .2l-25.9 3c-.1 0-.3 0-.4-.1l-5.1-2c-.1 0-.1-.2 0-.2l26-2.8c.2-.1.4 0 .6 0z" fill="#bf7d5a"/></g></g><g><g><path d="m34.9 13.1v1.1c0 .1 0 .1-.1.1l-1.2.1-10.1 1.1-14.8 1.7c-.1 0-.3 0-.4-.1l-4.8-1.9-.3-.1s-.1-.1-.1-.1v-1h3.6v.6l1.5-.2 19.4-2.1 1.8-.2h.5.1l2.3.9h2.6z" fill="#ffb961"/></g><g><path d="m30 11.1 4.8 1.9c.1 0 .1.2 0 .2l-26.1 3c-.1 0-.3 0-.4-.1l-5.1-2c-.1 0-.1-.2 0-.2l26.3-2.9c.1 0 .3 0 .5.1z" fill="#ffd475"/></g></g><g><g><path d="m35 11.7v1.1c0 .1 0 .1-.1.1l-1.3.1-7.8.9-17 1.9c-.1 0-.3 0-.4-.1l-4.8-1.7-.4-.2s-.1-.1-.1-.1v-1.1h3.6v.6l22.3-2.4.5-.1c.2 0 .4 0 .6.1l2.3.9z" fill="#ffb961"/></g><g><path d="m30.1 9.7 4.8 1.9c.1 0 .1.2 0 .2l-26.1 3c-.1 0-.3 0-.4-.1l-5.1-2c-.1 0-.1-.2 0-.2l26.3-2.9c.1 0 .3 0 .5.1z" fill="#ffd475"/></g></g><g><g><path d="m34.8 9.8v1.7c0 .1 0 .1-.1.1l-.9.1-3.8.4-2.4.3-18.8 2.1c-.1 0-.3 0-.4-.1l-.2-.1-4.6-1.8-.3-.1s-.1-.1-.1-.1v-1.7h3.6v1.2l22.5-2.5c.2 0 .4 0 .6.1l1.2.5v-.1z" fill="#aa6256"/></g><path d="m27.5 12.4s.1-.1.1-.1c.5-.5.9-1 1.3-1.5.1-.1.1-.2.2-.3l5.6-.7v1.7c0 .1 0 .1-.1.1l-.9.1z" fill="#8a4852"/><g><path d="m29.9 7.8 4.8 1.9c.1 0 .1.2 0 .2l-25.9 2.9c-.1 0-.3 0-.4-.1l-5.1-2c-.1 0-.1-.2 0-.2l26-2.8c.2 0 .4 0 .6.1z" fill="#bf7d5a"/></g></g><g><g><path d="m35 8.4v1.1c0 .1 0 .1-.1.1l-1.6.2-3.8.4-20.7 2.4c-.1 0-.3 0-.4-.1l-1.6-.6-3.1-1.2-.5-.2s-.1-.1-.1-.1v-1.1h3.6v.6l22.7-2.5c.2 0 .4 0 .6.1l.8.3 1.5.6z" fill="#ffb961"/></g><path d="m29.4 10.2c.2-.2.3-.5.5-.7.4-.6.7-1.1 1-1.7l1.5.6h2.6v1.1c0 .1 0 .1-.1.1l-1.6.2z" fill="#f3a250"/><g><path d="m30.1 6.4 4.8 1.9c.1 0 .1.2 0 .2l-26.1 3c-.1 0-.3 0-.4-.1l-5.1-2c-.1 0-.1-.2 0-.2l26.3-2.9c.1 0 .3 0 .5.1z" fill="#ffd475"/><path d="m31.2 8.4c-13.4 1.3-24.2 2-26.9 1l4.2 1.6h.2.1l22.4-2.5z" fill="#ffde9b"/></g></g><path d="m34.6 14.4v1.7c0 .1 0 .1-.1.1l-.6.1-15.5 1.8c.9-.3 1.7-.7 2.5-1.1.6-.3 1.2-.6 1.8-.9.1-.1.3-.2.4-.2z" fill="#8a4852"/><g fill="#f3a250"><path d="m23.5 15.6c.5-.3 1-.7 1.5-1.1.1-.1.2-.2.4-.3l9.5-1.2v1.1c0 .1 0 .1-.1.1l-1.2.1z"/><path d="m25.8 13.9c.5-.4 1-.8 1.4-1.3l7.7-1v1.1c0 .1 0 .1-.1.1l-1.3.1z"/></g></g><path d="m30.1 14.8s-.5-.3-1-.7c0 0-.1 0-.1.1v.6s-.1-.3-.1-.6c0-.1-.1-.1-.1 0-.4.5-.8.9-.8.9s.3-.5.7-1c0-.1 0-.1-.1-.1-.3 0-.6 0-.6 0s.3-.1.6-.1c.1 0 .1-.1 0-.1-.5-.4-.9-.8-.9-.8s.5.3 1 .7c.1 0 .1 0 .1-.1 0-.3 0-.6 0-.6s.1.3.1.6c0 .1.1.1.1 0 .4-.5.8-.9.8-.9s-.3.5-.7 1c0 0 0 .1.1.1h.6s-.3.1-.6.1c-.1 0-.1.1 0 .1.5.4 1 .7.9.8z" fill="#fff"/></g></svg>